<svg id="Layer_1" data-name="Layer 1" xmlns="http://www.w3.org/2000/svg" viewBox="0 0 30 30"><defs><style>.cls-1{fill:#12b3ab;}.cls-2{fill:#3f3f3f;}</style></defs><path class="cls-1" d="M9.18,22.46a1,1,0,0,1-.69-.29c-2.74-2.68-1.78-6.36-.89-7.93a1,1,0,0,1,1.74,1c-.08.14-1.77,3.26.54,5.52a1,1,0,0,1-.7,1.72Z"/><path class="cls-2" d="M12.17,26.26c-4.89,0-8.43-3.44-8.43-8.18,0-.24-.29-7.2,8-11.34a1,1,0,0,1,1.35.44,1,1,0,0,1-.45,1.35C5.56,12.06,5.73,17.79,5.74,18a6,6,0,0,0,6.43,6.23c3.79,0,6.43-2.54,6.43-6.18a1,1,0,0,1,2,0C20.6,22.82,17.06,26.26,12.17,26.26Z"/><path class="cls-2" d="M12.17,26.26c-4.89,0-8.43-3.44-8.43-8.18a1,1,0,0,1,2,0c0,3.64,2.64,6.18,6.43,6.18s6.43-2.54,6.43-6.18c0-.29.18-6-6.88-9.55a1,1,0,1,1,.89-1.79c8.28,4.14,8,11.1,8,11.39C20.6,22.82,17.05,26.26,12.17,26.26Z"/><path class="cls-2" d="M16.2,8.23A1,1,0,0,1,15.52,8a1,1,0,0,1-.06-1.42,12.8,12.8,0,0,1,3.67-2.7,1,1,0,0,1,1.34.45A1,1,0,0,1,20,5.64a10.45,10.45,0,0,0-3.09,2.27A1,1,0,0,1,16.2,8.23Z"/><path class="cls-2" d="M22.13,18.71a1,1,0,0,1-.92-.6,1,1,0,0,1,.51-1.32,4.22,4.22,0,0,0,2.54-4.06c0-.22.12-4.46-5.13-7.09a1,1,0,0,1-.45-1.34A1,1,0,0,1,20,3.85c6.47,3.24,6.25,8.71,6.24,8.94a6.21,6.21,0,0,1-3.73,5.83A1,1,0,0,1,22.13,18.71Z"/></svg>