<?xml version="1.0" encoding="UTF-8"?><svg id="Layer_1" xmlns="http://www.w3.org/2000/svg" viewBox="0 0 26 27"><defs><style>.cls-1{fill:#12b2aa;}</style></defs><path class="cls-1" d="m10,0C6.1,0,3,3.1,3,7c0,2.44,1.21,4.56,3.07,5.81-3.56,1.53-6.07,5.08-6.07,9.19h2c0-4.4,3.6-8,8-8,3.9,0,7-3.1,7-7S13.9,0,10,0Zm0,2c2.8,0,5,2.2,5,5s-2.2,5-5,5-5-2.2-5-5,2.2-5,5-5Zm5,12c-1.1,0-2,.9-2,2v4.4l6,6c.4.4.9.6,1.4.6s1-.2,1.4-.6l3.6-3.6c.4-.4.6-.9.6-1.4s-.2-1-.6-1.4l-6-6h-4.4Zm0,2h3.6l5.4,5.4-3.6,3.6-5.4-5.4v-3.6Zm2,1c-.55,0-1,.45-1,1s.45,1,1,1,1-.45,1-1-.45-1-1-1Z"/></svg>