<svg xmlns="http://www.w3.org/2000/svg" width="20" height="22.009" viewBox="0 0 20 22.009">
  <path id="bell" d="M10.135,2.276a2,2,0,0,1,3.73,0C16.762,3.123,19,5.941,19,10c0,2.625.532,4.1,1.515,5.177.244.266,1.1,1.038,1.2,1.135L22,16.6v3.41H15.874a3.941,3.941,0,0,1-1.787,2.409,4.008,4.008,0,0,1-4.176,0,3.462,3.462,0,0,1-1.824-2.409H2V16.6l.288-.292c.1-.1.956-.869,1.2-1.133C4.469,14.11,5,12.634,5,10,5,5.929,7.235,3.118,10.135,2.276Zm.043,17.738a1.965,1.965,0,0,0,.775.7,2.008,2.008,0,0,0,2.092,0,1.975,1.975,0,0,0,.691-.7ZM20,17.452c-.3-.274-.749-.695-.96-.925C17.706,15.07,17,13.108,17,10c0-3.769-2.34-5.988-5-5.988S7,6.22,7,10c0,3.118-.706,5.079-2.042,6.533-.21.229-.662.648-.958.92v.562H20Z" transform="translate(-2 -1)" fill="#5582c5" fill-rule="evenodd"/>
</svg>
