<svg xmlns="http://www.w3.org/2000/svg" width="30.727" height="26" viewBox="0 0 30.727 26"><defs><style>.a{fill:#abacae;}</style></defs><path class="a" d="M22.455,8.272A1.2,1.2,0,0,0,21.273,7.09H18.909V4.727a1.182,1.182,0,0,0-2.364,0V7.09H14.181A1.176,1.176,0,0,0,13.35,9.1a1.136,1.136,0,0,0,.831.351h2.363v2.363a1.182,1.182,0,0,0,2.364,0V9.455h2.363a1.2,1.2,0,0,0,1.182-1.182ZM11.818,23.636A2.365,2.365,0,0,1,9.455,26a2.364,2.364,0,1,1,1.671-4.036A2.277,2.277,0,0,1,11.818,23.636Zm16.546,0a2.363,2.363,0,1,1-.692-1.67,2.277,2.277,0,0,1,.692,1.67Zm2.363-20.09V13a1.164,1.164,0,0,1-.3.784,1.147,1.147,0,0,1-.757.4L10.4,16.435q.019.129.083.4t.111.489a1.924,1.924,0,0,1,.046.406,3.572,3.572,0,0,1-.443,1.182H27.182a1.182,1.182,0,0,1,0,2.364H8.272A1.2,1.2,0,0,1,7.09,20.091a2.026,2.026,0,0,1,.2-.73q.2-.471.545-1.1t.379-.7L4.949,2.363H1.182a1.136,1.136,0,0,1-.831-.351A1.135,1.135,0,0,1,0,1.182,1.138,1.138,0,0,1,.351.351,1.132,1.132,0,0,1,1.182,0H5.909a1.124,1.124,0,0,1,.527.12,1.186,1.186,0,0,1,.37.286,1.47,1.47,0,0,1,.24.452,3.249,3.249,0,0,1,.138.489q.037.2.1.545t.083.471H29.545a1.136,1.136,0,0,1,.831.351,1.136,1.136,0,0,1,.351.831Z"/></svg>