<svg xmlns="http://www.w3.org/2000/svg" width="14.438" height="14.459" viewBox="0 0 14.438 14.459">
  <path id="Path_43" data-name="Path 43" d="M-3316.908,14.459a2.18,2.18,0,0,1-2.09-2.268V9.708a.62.62,0,0,1,.62-.62.621.621,0,0,1,.62.62v2.478a.959.959,0,0,0,.826,1.033h10.3a.958.958,0,0,0,.826-1.033V9.708a.621.621,0,0,1,.62-.62.62.62,0,0,1,.619.62v2.478a2.18,2.18,0,0,1-2.066,2.272Zm4.52-4.75V2.115l-2.247,2.248a.621.621,0,0,1-.876-.03.621.621,0,0,1,0-.845l3.3-3.305a.617.617,0,0,1,.438-.181.619.619,0,0,1,.451.194l3.292,3.293a.621.621,0,0,1,0,.876.614.614,0,0,1-.438.181.612.612,0,0,1-.438-.181l-2.247-2.247V9.708a.629.629,0,0,1-.62.619A.628.628,0,0,1-3312.388,9.708Z" transform="translate(3319)" fill="#3f3f3f"/>
</svg>
