<svg xmlns="http://www.w3.org/2000/svg" width="157.082" height="157.082" viewBox="0 0 157.082 157.082">
  <g id="Group_1731" data-name="Group 1731" transform="translate(-9.862 12.541)">
    <g id="Group_1749" data-name="Group 1749">
      <circle id="Ellipse_242" data-name="Ellipse 242" cx="74" cy="74" r="74" transform="translate(14.403 -8)" fill="#e7f7f7"/>
      <path id="Allcasesicon" d="M107.963,22.94c-1.632-10.881-10.11-19.4-21.6-21.711C68.354-2.413,57.32,10.884,54.531,14.763,51.744,10.885,40.708-2.409,22.694,1.23,11.21,3.54,2.731,12.059,1.1,22.94c-1.407,9.354.682,34.03,50.4,61.069l2.484,1.407h0a.941.941,0,0,0,.456.123h.185a.941.941,0,0,0,.456-.123l2.471-1.4c49.724-27.045,51.822-51.722,50.413-61.075ZM43.943,62.906V77.56A142.4,142.4,0,0,1,22.729,62.183a.98.98,0,0,0,.041-.273V50.331c0-6.734,4.55-11.812,10.585-11.812,6.134,0,10.589,4.655,10.589,11.072Zm-17.325-33.6a7.066,7.066,0,1,1,2.07,4.991A7.065,7.065,0,0,1,26.618,29.309Zm36.4,35.884V78.8q-3.047,1.789-6.369,3.6l-2.12,1.2L52.4,82.392q-3.463-1.875-6.6-3.749V62.906c0-4.976,2.957-10.012,8.612-10.012,5.153,0,8.614,3.77,8.614,9.375ZM49.34,45.346a5.255,5.255,0,1,1,1.54,3.706A5.251,5.251,0,0,1,49.34,45.346ZM64.873,77.7V53.164c0-5.852,4.216-10.435,9.6-10.435a9.37,9.37,0,0,1,9.6,9.773V63.861a.926.926,0,0,0,.032.239A147.892,147.892,0,0,1,64.872,77.7Zm2.689-39.106a27.779,27.779,0,0,0,1.066-6.6h0a6.3,6.3,0,0,1,6.294-6.3.761.761,0,0,1,.287,0A6.308,6.308,0,0,1,81.5,32.023a27.56,27.56,0,0,0,1.07,6.564,20.55,20.55,0,0,1-7.378,1.568.8.8,0,0,0-.129,0,.792.792,0,0,0-.129,0,20.51,20.51,0,0,1-7.376-1.56ZM85.923,62.542V52.489a11.337,11.337,0,0,0-7.157-10.837h0a21.092,21.092,0,0,0,5.453-1.765.927.927,0,0,0,.392-1.244c-.852-1.649-1.185-5.388-1.244-6.653a8.149,8.149,0,0,0-8.141-8.141.761.761,0,0,1-.287,0,8.143,8.143,0,0,0-8.141,8.1c-.058,1.3-.392,5.04-1.244,6.689a.924.924,0,0,0,.4,1.244,20.477,20.477,0,0,0,4.771,1.632,12.1,12.1,0,0,0-7.694,11.631v2.41a9.684,9.684,0,0,0-5.085-3.966,7.092,7.092,0,1,0-6.747,0,10.2,10.2,0,0,0-5.4,4.43V49.59c0-5.939-3.3-10.585-8.254-12.268a8.91,8.91,0,1,0-7.876-.078c-5.112,1.7-8.745,6.816-8.745,13.073V60.5C2.767,43.463,1.967,29.593,2.928,23.2,4.448,13.113,12.351,5.2,23.065,3.029,42.681-.945,53.545,16.562,53.651,16.739h0a1.106,1.106,0,0,0,1.765,0C55.526,16.561,66.39-.938,86,3.029,96.717,5.2,104.619,13.113,106.139,23.2c1,6.656.092,21.384-20.215,39.34Z" transform="translate(34.181 29.303)" fill="#12b2aa"/>
    </g>
  </g>
</svg>
