<?xml version="1.0" encoding="UTF-8" standalone="no"?><!-- Generator: Gravit.io --><svg xmlns="http://www.w3.org/2000/svg" xmlns:xlink="http://www.w3.org/1999/xlink" style="isolation:isolate" viewBox="0 0 32 32" width="32pt" height="32pt"><defs><clipPath id="_clipPath_LcMIk9yVpdAcn2wLlZUgG4zlqAb6io1K"><rect width="32" height="32"/></clipPath></defs><g clip-path="url(#_clipPath_LcMIk9yVpdAcn2wLlZUgG4zlqAb6io1K)"><path d=" M 21 7 L 11 7 C 8.791 7 7 8.791 7 11 L 7 21 C 7 23.209 8.791 25 11 25 L 16.62 25 L 16.62 18 L 14.28 18 L 14.28 15.31 L 16.62 15.31 L 16.62 13.31 C 16.523 12.347 16.856 11.391 17.532 10.698 C 18.207 10.005 19.155 9.647 20.12 9.72 C 20.818 9.718 21.515 9.752 22.21 9.82 L 22.21 12.25 L 20.78 12.25 C 19.65 12.25 19.43 12.78 19.43 13.57 L 19.43 15.31 L 22.13 15.31 L 21.78 18 L 19.41 18 L 19.41 25 L 21 25 C 23.209 25 25 23.209 25 21 L 25 11 C 25 8.791 23.209 7 21 7 Z " fill="rgb(255,255,255)"/><path d=" M -101 95.74 L -99.38 103.51 L -101.24 103.51 L -101.48 102.36 L -104 102.36 C -104.06 102.36 -104.06 102.36 -104.08 102.42 L -104.45 103.42 L -104.45 103.5 L -106.56 103.5 L -106.56 103.42 C -106.26 102.72 -105.97 102.03 -105.68 101.33 L -103.58 96.33 C -103.488 96.089 -103.299 95.897 -103.06 95.8 C -102.946 95.754 -102.823 95.734 -102.7 95.74 L -101 95.74 M -102.42 97.84 C -102.48 97.95 -103.42 100.71 -103.48 100.75 C -103.54 100.79 -101.87 100.75 -101.82 100.75 L -102.42 97.84 Z " fill-rule="evenodd" fill="rgb(0,0,0)"/><clipPath id="_clipPath_RHGiSaUQiSyZOV25z6V7GG4IFCvE3AzQ"><path d=" M -101 95.74 L -99.38 103.51 L -101.24 103.51 L -101.48 102.36 L -104 102.36 C -104.06 102.36 -104.06 102.36 -104.08 102.42 L -104.45 103.42 L -104.45 103.5 L -106.56 103.5 L -106.56 103.42 C -106.26 102.72 -105.97 102.03 -105.68 101.33 L -103.58 96.33 C -103.488 96.089 -103.299 95.897 -103.06 95.8 C -102.946 95.754 -102.823 95.734 -102.7 95.74 L -101 95.74 M -102.42 97.84 C -102.48 97.95 -103.42 100.71 -103.48 100.75 C -103.54 100.79 -101.87 100.75 -101.82 100.75 L -102.42 97.84 Z " fill="rgb(255,255,255)"/></clipPath><g clip-path="url(#_clipPath_RHGiSaUQiSyZOV25z6V7GG4IFCvE3AzQ)"><g><rect x="-419.73" y="-1347.43" width="458.1" height="1470.1" transform="matrix(1,0,0,1,0,0)" fill="rgb(0,0,0)"/></g></g><path d=" M -116.67 95.74 L -114.67 95.74 Q -116.25 99.63 -117.83 103.51 L -119.89 103.51 C -119.891 103.487 -119.891 103.463 -119.89 103.44 C -120.4 101.44 -120.89 99.34 -121.43 97.29 C -121.449 97.215 -121.472 97.142 -121.5 97.07 C -121.546 96.901 -121.658 96.757 -121.81 96.67 C -121.961 96.58 -122.118 96.5 -122.28 96.43 C -122.71 96.258 -123.151 96.114 -123.6 96 L -123.79 96 L -123.79 96 C -123.795 95.94 -123.795 95.88 -123.79 95.82 L -120.5 95.82 C -120.359 95.821 -120.219 95.851 -120.09 95.91 C -119.825 96.037 -119.636 96.282 -119.58 96.57 C -119.58 96.77 -119.51 96.97 -119.47 97.18 C -119.36 97.75 -119.26 98.32 -119.15 98.9 L -118.82 100.74 C -118.82 100.86 -118.82 100.98 -118.75 101.1 C -118.64 100.85 -118.55 100.6 -118.45 100.35 L -118.16 99.6 C -118.06 99.35 -117.97 99.1 -117.87 98.84 C -117.77 98.58 -117.68 98.34 -117.58 98.09 C -117.48 97.84 -117.39 97.59 -117.29 97.34 L -117.01 96.59 L -116.71 95.83" fill-rule="evenodd" fill="rgb(0,0,0)"/><clipPath id="_clipPath_MI2avhC7cB2jVSXEDbUyLp3WxSQKDEjc"><path d=" M -116.67 95.74 L -114.67 95.74 Q -116.25 99.63 -117.83 103.51 L -119.89 103.51 C -119.891 103.487 -119.891 103.463 -119.89 103.44 C -120.4 101.44 -120.89 99.34 -121.43 97.29 C -121.449 97.215 -121.472 97.142 -121.5 97.07 C -121.546 96.901 -121.658 96.757 -121.81 96.67 C -121.961 96.58 -122.118 96.5 -122.28 96.43 C -122.71 96.258 -123.151 96.114 -123.6 96 L -123.79 96 L -123.79 96 C -123.795 95.94 -123.795 95.88 -123.79 95.82 L -120.5 95.82 C -120.359 95.821 -120.219 95.851 -120.09 95.91 C -119.825 96.037 -119.636 96.282 -119.58 96.57 C -119.58 96.77 -119.51 96.97 -119.47 97.18 C -119.36 97.75 -119.26 98.32 -119.15 98.9 L -118.82 100.74 C -118.82 100.86 -118.82 100.98 -118.75 101.1 C -118.64 100.85 -118.55 100.6 -118.45 100.35 L -118.16 99.6 C -118.06 99.35 -117.97 99.1 -117.87 98.84 C -117.77 98.58 -117.68 98.34 -117.58 98.09 C -117.48 97.84 -117.39 97.59 -117.29 97.34 L -117.01 96.59 L -116.71 95.83" fill="rgb(255,255,255)"/></clipPath><g clip-path="url(#_clipPath_MI2avhC7cB2jVSXEDbUyLp3WxSQKDEjc)"><g><rect x="-419.73" y="-1347.43" width="458.1" height="1470.1" transform="matrix(1,0,0,1,0,0)" fill="rgb(0,0,0)"/></g></g><path d=" M -111.85 103.37 L -111.49 101.67 L -111.42 101.67 C -111.135 101.813 -110.837 101.926 -110.53 102.01 C -110.106 102.121 -109.666 102.159 -109.23 102.12 C -109.014 102.104 -108.804 102.046 -108.61 101.95 C -108.525 101.906 -108.447 101.848 -108.38 101.78 C -108.167 101.556 -108.167 101.204 -108.38 100.98 C -108.446 100.906 -108.52 100.839 -108.6 100.78 C -108.802 100.647 -109.013 100.526 -109.23 100.42 C -109.497 100.3 -109.755 100.16 -110 100 C -110.24 99.839 -110.456 99.643 -110.64 99.42 C -110.824 99.179 -110.947 98.898 -111 98.6 C -111.029 98.404 -111.029 98.206 -111 98.01 C -110.897 97.311 -110.486 96.694 -109.88 96.33 C -109.512 96.098 -109.106 95.932 -108.68 95.84 C -108.236 95.752 -107.782 95.719 -107.33 95.74 C -106.79 95.775 -106.258 95.886 -105.75 96.07 L -105.75 96.07 C -105.75 96.07 -106.07 97.63 -106.1 97.71 L -106.16 97.71 C -106.55 97.538 -106.966 97.43 -107.39 97.39 C -107.649 97.355 -107.911 97.355 -108.17 97.39 C -108.345 97.419 -108.512 97.483 -108.66 97.58 C -108.759 97.644 -108.839 97.734 -108.89 97.84 C -108.965 97.977 -108.965 98.143 -108.89 98.28 C -108.837 98.359 -108.773 98.429 -108.7 98.49 C -108.574 98.588 -108.441 98.675 -108.3 98.75 L -107.57 99.14 C -107.318 99.277 -107.081 99.437 -106.86 99.62 C -106.712 99.742 -106.581 99.884 -106.47 100.04 C -106.258 100.331 -106.143 100.68 -106.14 101.04 C -106.11 101.545 -106.243 102.046 -106.52 102.47 C -106.739 102.795 -107.03 103.065 -107.37 103.26 C -107.725 103.472 -108.114 103.621 -108.52 103.7 C -108.971 103.788 -109.431 103.822 -109.89 103.8 C -110.432 103.779 -110.969 103.692 -111.49 103.54 L -111.82 103.42 L -111.88 103.42" fill-rule="evenodd" fill="rgb(0,0,0)"/><clipPath id="_clipPath_78AynGqLuZcPuXxAv2nSMql3BpB8cYX0"><path d=" M -111.85 103.37 L -111.49 101.67 L -111.42 101.67 C -111.135 101.813 -110.837 101.926 -110.53 102.01 C -110.106 102.121 -109.666 102.159 -109.23 102.12 C -109.014 102.104 -108.804 102.046 -108.61 101.95 C -108.525 101.906 -108.447 101.848 -108.38 101.78 C -108.167 101.556 -108.167 101.204 -108.38 100.98 C -108.446 100.906 -108.52 100.839 -108.6 100.78 C -108.802 100.647 -109.013 100.526 -109.23 100.42 C -109.497 100.3 -109.755 100.16 -110 100 C -110.24 99.839 -110.456 99.643 -110.64 99.42 C -110.824 99.179 -110.947 98.898 -111 98.6 C -111.029 98.404 -111.029 98.206 -111 98.01 C -110.897 97.311 -110.486 96.694 -109.88 96.33 C -109.512 96.098 -109.106 95.932 -108.68 95.84 C -108.236 95.752 -107.782 95.719 -107.33 95.74 C -106.79 95.775 -106.258 95.886 -105.75 96.07 L -105.75 96.07 C -105.75 96.07 -106.07 97.63 -106.1 97.71 L -106.16 97.71 C -106.55 97.538 -106.966 97.43 -107.39 97.39 C -107.649 97.355 -107.911 97.355 -108.17 97.39 C -108.345 97.419 -108.512 97.483 -108.66 97.58 C -108.759 97.644 -108.839 97.734 -108.89 97.84 C -108.965 97.977 -108.965 98.143 -108.89 98.28 C -108.837 98.359 -108.773 98.429 -108.7 98.49 C -108.574 98.588 -108.441 98.675 -108.3 98.75 L -107.57 99.14 C -107.318 99.277 -107.081 99.437 -106.86 99.62 C -106.712 99.742 -106.581 99.884 -106.47 100.04 C -106.258 100.331 -106.143 100.68 -106.14 101.04 C -106.11 101.545 -106.243 102.046 -106.52 102.47 C -106.739 102.795 -107.03 103.065 -107.37 103.26 C -107.725 103.472 -108.114 103.621 -108.52 103.7 C -108.971 103.788 -109.431 103.822 -109.89 103.8 C -110.432 103.779 -110.969 103.692 -111.49 103.54 L -111.82 103.42 L -111.88 103.42" fill="rgb(255,255,255)"/></clipPath><g clip-path="url(#_clipPath_78AynGqLuZcPuXxAv2nSMql3BpB8cYX0)"><g><rect x="-419.73" y="-1347.43" width="458.1" height="1470.1" transform="matrix(1,0,0,1,0,0)" fill="rgb(0,0,0)"/></g></g><path d=" M -111.85 95.75 C -112.4 98.34 -112.94 100.92 -113.49 103.51 L -115.49 103.51 C -114.95 100.92 -114.4 98.33 -113.86 95.75 C -113.86 95.75 -111.97 95.75 -111.86 95.75" fill-rule="evenodd" fill="rgb(0,0,0)"/><clipPath id="_clipPath_Z3vamRW7mGY5M0TVQlbg1x1FeJv0nm4i"><path d=" M -111.85 95.75 C -112.4 98.34 -112.94 100.92 -113.49 103.51 L -115.49 103.51 C -114.95 100.92 -114.4 98.33 -113.86 95.75 C -113.86 95.75 -111.97 95.75 -111.86 95.75" fill="rgb(255,255,255)"/></clipPath><g clip-path="url(#_clipPath_Z3vamRW7mGY5M0TVQlbg1x1FeJv0nm4i)"><g><rect x="-419.73" y="-1347.43" width="458.1" height="1470.1" transform="matrix(1,0,0,1,0,0)" fill="rgb(0,0,0)"/></g></g></g></svg>