<?xml version="1.0" encoding="UTF-8"?><svg id="Layer_2" xmlns="http://www.w3.org/2000/svg" viewBox="0 0 24 26"><defs><style>.cls-1{fill:#59c9c4;}</style></defs><g id="Layer_1-2"><path class="cls-1" d="m4,0v11h1.37l.63-1.58V2h10v6h6v16H6v-5.75l-.05-.05-1.19-1.19h-.76v9h20V6.59l-.28-.31L17.72.28l-.31-.28H4Zm14,3.44l2.56,2.56h-2.56v-2.56Zm-9.03,3.95l-2.34,5.83-.22-.22H0v2h5.59l1.78,1.78,1.67-4.17,3,7,2.07-5.18.28.56h1.89c.36.62,1.02,1,1.73,1,1.1,0,2-.9,2-2s-.9-2-2-2c-.72,0-1.38.38-1.73,1h-.65l-1.72-3.44-1.93,4.82-3-7Z"/></g></svg>