<svg id="Layer_1" data-name="Layer 1" xmlns="http://www.w3.org/2000/svg" viewBox="0 0 30 30"><defs><style>.cls-1{fill:#3f3f3f;}.cls-2{fill:#12b3ab;}</style></defs><path class="cls-1" d="M21.92,23.19H8.08a1,1,0,0,1-1-1V15.86a7.92,7.92,0,0,1,15.84,0v6.33A1,1,0,0,1,21.92,23.19Zm-12.84-2H20.92V15.86a5.92,5.92,0,0,0-11.84,0Z"/><path class="cls-1" d="M25.26,26.26H4.74a1,1,0,0,1-1-1,4.07,4.07,0,0,1,4.07-4.07H22.19a4.07,4.07,0,0,1,4.07,4.07A1,1,0,0,1,25.26,26.26ZM6,24.26H24a2.06,2.06,0,0,0-1.81-1.07H7.81A2.06,2.06,0,0,0,6,24.26Z"/><path class="cls-2" d="M10.54,17.19a1,1,0,0,1-1-1,5.7,5.7,0,0,1,5.7-5.7,1,1,0,0,1,0,2,3.7,3.7,0,0,0-3.7,3.7A1,1,0,0,1,10.54,17.19Z"/><path class="cls-2" d="M15,7.68a1,1,0,0,1-1-1V4.74a1,1,0,0,1,2,0V6.68A1,1,0,0,1,15,7.68Z"/><path class="cls-2" d="M8.73,9.75A1,1,0,0,1,8,9.46L6.65,8.09A1,1,0,0,1,8.07,6.67L9.44,8.05a1,1,0,0,1,0,1.41A1,1,0,0,1,8.73,9.75Z"/><path class="cls-2" d="M21.27,9.75a1,1,0,0,1-.71-.29,1,1,0,0,1,0-1.41l1.37-1.38a1,1,0,1,1,1.42,1.42L22,9.46A1,1,0,0,1,21.27,9.75Z"/></svg>