<svg id="Layer_1" data-name="Layer 1" xmlns="http://www.w3.org/2000/svg" viewBox="0 0 30 30"><defs><style>.cls-1{fill:#12b3ab;}.cls-2{fill:#3f3f3f;}</style></defs><path class="cls-1" d="M12.67,10a1,1,0,0,1-1-.72l-1-3.42A1,1,0,0,1,10.8,5a1,1,0,0,1,.61-.48L15.72,3.4a1.1,1.1,0,0,1,.51,0l4.3,1.11a1,1,0,0,1,.62.47,1,1,0,0,1,.09.77l-1,3.48A1,1,0,0,1,19,9.91a1,1,0,0,1-.69-1.23L19,6.19,16,5.4l-3.06.83.71,2.44A1,1,0,0,1,13,9.91.86.86,0,0,1,12.67,10Z"/><path class="cls-2" d="M16,17.24a5.33,5.33,0,1,1,5.32-5.33A5.33,5.33,0,0,1,16,17.24Zm0-8.62a3.29,3.29,0,1,0,3.29,3.29A3.29,3.29,0,0,0,16,8.62Z"/><path class="cls-2" d="M24.05,25.87h0a1,1,0,0,1-1-1V21.6c0-2.29-.94-3.71-2.72-4.1a1,1,0,1,1,.44-2c2.72.62,4.28,2.82,4.28,6.06v3.27A1,1,0,0,1,24.05,25.87Z"/><path class="cls-2" d="M7.9,25.87h0a1,1,0,0,1-1-1V21.6c0-3.23,1.56-5.44,4.28-6.05a1,1,0,0,1,1.2.75,1,1,0,0,1-.76,1.2c-1.78.4-2.72,1.82-2.72,4.1v3.27A1,1,0,0,1,7.9,25.87Z"/></svg>