<svg id="Layer_1" data-name="Layer 1" xmlns="http://www.w3.org/2000/svg" viewBox="0 0 30 30"><defs><style>.cls-1{fill:#3f3f3f;}.cls-2{fill:#12b3ab;}</style></defs><path class="cls-1" d="M15,23.94a8.94,8.94,0,0,1-8.25-5.47,3.53,3.53,0,0,1,0-7,9,9,0,0,1,6.48-5.29,1,1,0,1,1,.39,2A7,7,0,0,0,8.4,12.79a1,1,0,0,1-1,.69l-.14,0a1.53,1.53,0,0,0,0,3.05l.1,0a1,1,0,0,1,1,.69,7,7,0,0,0,13.2,0,1,1,0,0,1,1-.69l.14,0A1.51,1.51,0,0,0,24.23,15a1.53,1.53,0,0,0-1.52-1.53l-.1,0a1,1,0,0,1-1-.69,7,7,0,0,0-5.47-4.67,1,1,0,1,1,.32-2,8.91,8.91,0,0,1,6.8,5.35,3.53,3.53,0,0,1,0,7A8.94,8.94,0,0,1,15,23.94Z"/><circle class="cls-2" cx="11.7" cy="13.34" r="1.1"/><circle class="cls-2" cx="18.3" cy="13.34" r="1.1"/><path class="cls-2" d="M14.81,10.27a1,1,0,0,1-.67-.26,4,4,0,0,1,0-6,1,1,0,0,1,1.34,1.51,2,2,0,0,0,0,3,1,1,0,0,1,.08,1.42A1,1,0,0,1,14.81,10.27Z"/><path class="cls-2" d="M24.85,26.27a1,1,0,0,1-.76-.34,11.07,11.07,0,0,0-2.55-2.13,1,1,0,0,1,1.05-1.72,13.19,13.19,0,0,1,3,2.52A1,1,0,0,1,25.51,26,1,1,0,0,1,24.85,26.27Z"/><path class="cls-2" d="M5.15,26.27A1,1,0,0,1,4.49,26,1,1,0,0,1,4.4,24.6a13.19,13.19,0,0,1,3-2.52A1,1,0,0,1,8.46,23.8a11.07,11.07,0,0,0-2.55,2.13A1,1,0,0,1,5.15,26.27Z"/></svg>