<svg id="Layer_1" data-name="Layer 1" xmlns="http://www.w3.org/2000/svg" viewBox="0 0 30 30"><defs><style>.cls-1{fill:#3f3f3f;}.cls-2{fill:#12b3ab;}</style></defs><path class="cls-1" d="M25.25,16a1,1,0,0,1-.83-.43c-3-4.26-6.21-6.51-9.42-6.51s-6.47,2.25-9.42,6.51a1,1,0,0,1-1.65-1.14C7.33,9.54,11.05,7.06,15,7.06s7.67,2.48,11.07,7.37a1,1,0,0,1-.25,1.39A1,1,0,0,1,25.25,16Z"/><path class="cls-1" d="M23.23,18.56a1,1,0,0,1-.67-.26,1,1,0,0,1-.07-1.41,24.5,24.5,0,0,0,1.93-2.46,1,1,0,0,1,1.65,1.14A27.42,27.42,0,0,1,24,18.23,1,1,0,0,1,23.23,18.56Z"/><path class="cls-1" d="M15,22.94c-3.95,0-7.67-2.48-11.07-7.37a1,1,0,0,1,1.65-1.14c2.95,4.26,6.21,6.51,9.42,6.51a9.12,9.12,0,0,0,6-2.56,1,1,0,0,1,1.31,1.52A11.08,11.08,0,0,1,15,22.94Z"/><path class="cls-2" d="M15,19.57A4.57,4.57,0,1,1,19.57,15,4.58,4.58,0,0,1,15,19.57Zm0-7.13A2.56,2.56,0,1,0,17.56,15,2.56,2.56,0,0,0,15,12.44Z"/></svg>