<svg id="Layer_1" data-name="Layer 1" xmlns="http://www.w3.org/2000/svg" viewBox="0 0 30 30"><defs><style>.cls-1{fill:#3f3f3f;}.cls-2{fill:#12b3ab;}</style></defs><path class="cls-1" d="M8.89,26.29H6.14A2.42,2.42,0,0,1,3.73,24c-.28-9,8-13.19,8.36-13.37a1,1,0,0,1,1.44.9V14a1,1,0,0,1-2,0v-.74c-2.17,1.51-6,5-5.8,10.62a.41.41,0,0,0,.41.39H8.89a2.64,2.64,0,0,0,2.64-2.64v-2.9a1,1,0,0,1,2,0v2.9A4.64,4.64,0,0,1,8.89,26.29Z"/><path class="cls-1" d="M23.86,26.29H21.11a4.64,4.64,0,0,1-4.64-4.64v-2.9a1,1,0,0,1,2,0v2.9a2.64,2.64,0,0,0,2.64,2.64h2.75a.41.41,0,0,0,.41-.38c.17-5.58-3.64-9.09-5.8-10.62V14a1,1,0,0,1-2,0V11.5a1,1,0,0,1,1.44-.9c.35.18,8.64,4.37,8.36,13.37A2.42,2.42,0,0,1,23.86,26.29Z"/><path class="cls-2" d="M15,16.81a1,1,0,0,1-1-1v-7a1,1,0,0,1,2,0v7A1,1,0,0,1,15,16.81Z"/><path class="cls-2" d="M15,7.17a1,1,0,0,1-1-1V4.71a1,1,0,1,1,2,0V6.17A1,1,0,0,1,15,7.17Z"/><path class="cls-2" d="M8.59,22.12H8.42A1,1,0,0,1,7.61,21a7.43,7.43,0,0,1,14.64,0,1,1,0,0,1-2,.35,5.43,5.43,0,0,0-10.7,0A1,1,0,0,1,8.59,22.12Z"/></svg>