<?xml version="1.0" encoding="UTF-8"?><svg id="Layer_1" xmlns="http://www.w3.org/2000/svg" viewBox="0 0 24.31 26"><defs><style>.cls-1{fill:#12b2aa;}</style></defs><path class="cls-1" d="m12.16,0c-.62,0-1.25.21-1.78.59l-1.66,1.16-1.91.25h-.03l-.03.03c-1.27.29-2.28,1.29-2.56,2.56l-.03.03v.03l-.25,1.94-1.16,1.5-.03.03v.03c-.7,1.12-.73,2.56.03,3.62l1.19,1.66.31,1.72-3.22,4.91-1.03,1.53h4.78l1.16,2.69.72,1.72,1.03-1.56,3.16-4.75c.85.35,1.8.38,2.62,0l3.16,4.75,1.03,1.56.72-1.72,1.16-2.69h4.78l-1.03-1.53-3.12-4.75.25-1.88,1.16-1.66.03-.03v-.03c.7-1.12.73-2.53-.03-3.59l-1.16-1.66-.38-1.88h.03s-.03-.04-.03-.06c-.18-1.31-1.21-2.37-2.53-2.53h-.03l-1.88-.25-1.66-1.16c-.54-.38-1.16-.59-1.78-.59Zm0,2.03c.23,0,.46.07.62.19l1.78,1.28.22.16.25.03,2.19.31h.03c.45.05.76.36.81.81v.06l.41,2.22.03.22.16.19,1.28,1.78c.24.33.27.89-.03,1.38l-1.41,1.97-.03.25-.31,2.19v.03c-.02.16-.07.32-.16.44l-.06.03v.03c-.14.17-.34.29-.59.31h-.06l-2.28.41-.25.03-.19.16-1.78,1.28c-.33.24-.93.27-1.41-.03l-1.62-1.25-.19-.16-.28-.03-2.19-.31h-.03c-.31-.04-.55-.2-.69-.44-.06-.11-.11-.24-.12-.38v-.06l-.41-2.28-.03-.25-.16-.19-1.28-1.78c-.24-.33-.27-.93.03-1.41l1.25-1.62.16-.19.03-.28.28-2.09s.03-.02.03-.03c.12-.49.51-.88,1-1,.02,0,.02-.03.03-.03l2.09-.28.25-.03.22-.16,1.78-1.28c.17-.12.39-.19.62-.19Zm6.91,15.22l1.53,2.34h-2.41l-.25.62-.69,1.59-2.12-3.25.47-.34,1.97-.34v.03s.04-.03.06-.03c.54-.07,1.03-.3,1.44-.62Zm-13.81.03c.43.38.97.65,1.56.72h.03l1.91.25.44.34-2.12,3.22-.69-1.59-.25-.62h-2.41l1.53-2.31Z"/></svg>