<?xml version="1.0" encoding="UTF-8" standalone="no"?><!-- Generator: Gravit.io --><svg xmlns="http://www.w3.org/2000/svg" xmlns:xlink="http://www.w3.org/1999/xlink" style="isolation:isolate" viewBox="0 0 32 32" width="32pt" height="32pt"><defs><clipPath id="_clipPath_QJJ1DUCpJgArPpLkuiDqqVa4y5xCm6vC"><rect width="32" height="32"/></clipPath></defs><g clip-path="url(#_clipPath_QJJ1DUCpJgArPpLkuiDqqVa4y5xCm6vC)"><path d=" M 12 7 C 9.239 7 7 9.239 7 12 L 7 20 C 7 22.761 9.239 25 12 25 L 20 25 C 22.761 25 25 22.761 25 20 L 25 12 C 25 9.239 22.761 7 20 7 L 12 7 Z  M 22 9 C 22.552 9 23 9.448 23 10 C 23 10.552 22.552 11 22 11 C 21.448 11 21 10.552 21 10 C 21 9.448 21.448 9 22 9 Z  M 16 11 C 18.761 11 21 13.239 21 16 C 21 18.761 18.761 21 16 21 C 13.239 21 11 18.761 11 16 C 11 13.239 13.239 11 16 11 Z  M 16 13 C 14.343 13 13 14.343 13 16 C 13 17.657 14.343 19 16 19 C 17.657 19 19 17.657 19 16 C 19 14.343 17.657 13 16 13 Z " fill="rgb(255,255,255)"/></g></svg>