<svg xmlns="http://www.w3.org/2000/svg" width="16.132" height="22.943" viewBox="0 0 16.132 22.943"><defs><style>.a{fill:#4a4a4a;}.b{fill:#12b3ab;}</style></defs><g transform="translate(0 0)"><g transform="translate(0)"><path class="a" d="M84.066,0A8.068,8.068,0,0,0,77.2,12.308l6.4,10.318a.672.672,0,0,0,.571.318h.005a.672.672,0,0,0,.571-.327L90.994,12.2A8.068,8.068,0,0,0,84.066,0Zm5.775,11.508L84.168,20.98,78.347,11.6a6.726,6.726,0,1,1,11.494-.091Z" transform="translate(-76)"/></g><g transform="translate(4.033 4.033)"><path class="b" d="M170.033,90a4.033,4.033,0,1,0,4.033,4.033A4.038,4.038,0,0,0,170.033,90Zm0,6.731a2.7,2.7,0,1,1,2.693-2.7A2.7,2.7,0,0,1,170.033,96.731Z" transform="translate(-166 -90)"/></g></g></svg>