<?xml version="1.0" encoding="UTF-8" standalone="no"?><!-- Generator: Gravit.io --><svg xmlns="http://www.w3.org/2000/svg" xmlns:xlink="http://www.w3.org/1999/xlink" style="isolation:isolate" viewBox="0 0 44.47 32" width="44.47pt" height="32pt"><defs><clipPath id="_clipPath_MuKp66aAheztEzOfWnmPgJfvGfGmYpQu"><rect width="44.47" height="32"/></clipPath></defs><g clip-path="url(#_clipPath_MuKp66aAheztEzOfWnmPgJfvGfGmYpQu)"><clipPath id="_clipPath_vqzdXmXRgiuIS5af90eRheC1XlctKyIY"><rect x="0" y="0" width="44.47" height="32" transform="matrix(1,0,0,1,0,0)" fill="rgb(255,255,255)"/></clipPath><g clip-path="url(#_clipPath_vqzdXmXRgiuIS5af90eRheC1XlctKyIY)"><g><path d=" M -17 11.74 L -15.38 19.51 L -17.24 19.51 L -17.48 18.36 L -20 18.36 C -20.06 18.36 -20.06 18.36 -20.08 18.42 L -20.45 19.42 L -20.45 19.5 L -22.56 19.5 L -22.56 19.42 C -22.26 18.72 -21.97 18.03 -21.68 17.33 L -19.58 12.33 C -19.474 12.076 -19.262 11.882 -19 11.8 C -18.886 11.754 -18.763 11.734 -18.64 11.74 L -17 11.74 L -17 11.74 Z  M -18.42 13.84 C -18.48 13.95 -19.47 16.71 -19.48 16.75 C -19.49 16.79 -17.87 16.75 -17.82 16.75 L -18.42 13.84 L -18.42 13.84 Z " fill-rule="evenodd" fill="rgb(0,0,0)"/><clipPath id="_clipPath_C1Jo3dYPfXWpw6v8rQp5MtpsLXUGRHOq"><path d=" M -17 11.74 L -15.38 19.51 L -17.24 19.51 L -17.48 18.36 L -20 18.36 C -20.06 18.36 -20.06 18.36 -20.08 18.42 L -20.45 19.42 L -20.45 19.5 L -22.56 19.5 L -22.56 19.42 C -22.26 18.72 -21.97 18.03 -21.68 17.33 L -19.58 12.33 C -19.474 12.076 -19.262 11.882 -19 11.8 C -18.886 11.754 -18.763 11.734 -18.64 11.74 L -17 11.74 L -17 11.74 Z  M -18.42 13.84 C -18.48 13.95 -19.47 16.71 -19.48 16.75 C -19.49 16.79 -17.87 16.75 -17.82 16.75 L -18.42 13.84 L -18.42 13.84 Z " fill="rgb(255,255,255)"/></clipPath><g clip-path="url(#_clipPath_C1Jo3dYPfXWpw6v8rQp5MtpsLXUGRHOq)"><g><g><rect x="-335.73" y="-1431.43" width="458.1" height="1470.1" transform="matrix(1,0,0,1,0,0)" fill="rgb(0,0,0)"/></g></g></g><path d=" M -32.67 11.74 L -30.67 11.74 Q -32.24 15.63 -33.83 19.51 L -35.89 19.51 C -35.891 19.487 -35.891 19.463 -35.89 19.44 C -36.4 17.39 -36.89 15.34 -37.43 13.29 C -37.449 13.215 -37.472 13.142 -37.5 13.07 C -37.546 12.901 -37.658 12.757 -37.81 12.67 C -37.961 12.58 -38.118 12.5 -38.28 12.43 C -38.71 12.258 -39.151 12.114 -39.6 12 L -39.79 12 L -39.79 12 C -39.795 11.94 -39.795 11.88 -39.79 11.82 L -36.5 11.82 C -36.359 11.821 -36.219 11.851 -36.09 11.91 C -35.825 12.037 -35.636 12.282 -35.58 12.57 C -35.58 12.77 -35.51 12.97 -35.47 13.18 C -35.36 13.75 -35.26 14.32 -35.15 14.9 L -34.82 16.74 C -34.82 16.86 -34.77 16.98 -34.75 17.1 C -34.64 16.85 -34.55 16.6 -34.45 16.35 L -34.16 15.6 C -34.06 15.35 -33.97 15.1 -33.87 14.84 C -33.77 14.58 -33.68 14.34 -33.58 14.09 C -33.48 13.84 -33.39 13.59 -33.29 13.34 L -33.01 12.59 L -32.71 11.83" fill-rule="evenodd" fill="rgb(0,0,0)"/><clipPath id="_clipPath_G5tVlDCJThGiGUsAl2ftfHApmI7xukaU"><path d=" M -32.67 11.74 L -30.67 11.74 Q -32.24 15.63 -33.83 19.51 L -35.89 19.51 C -35.891 19.487 -35.891 19.463 -35.89 19.44 C -36.4 17.39 -36.89 15.34 -37.43 13.29 C -37.449 13.215 -37.472 13.142 -37.5 13.07 C -37.546 12.901 -37.658 12.757 -37.81 12.67 C -37.961 12.58 -38.118 12.5 -38.28 12.43 C -38.71 12.258 -39.151 12.114 -39.6 12 L -39.79 12 L -39.79 12 C -39.795 11.94 -39.795 11.88 -39.79 11.82 L -36.5 11.82 C -36.359 11.821 -36.219 11.851 -36.09 11.91 C -35.825 12.037 -35.636 12.282 -35.58 12.57 C -35.58 12.77 -35.51 12.97 -35.47 13.18 C -35.36 13.75 -35.26 14.32 -35.15 14.9 L -34.82 16.74 C -34.82 16.86 -34.77 16.98 -34.75 17.1 C -34.64 16.85 -34.55 16.6 -34.45 16.35 L -34.16 15.6 C -34.06 15.35 -33.97 15.1 -33.87 14.84 C -33.77 14.58 -33.68 14.34 -33.58 14.09 C -33.48 13.84 -33.39 13.59 -33.29 13.34 L -33.01 12.59 L -32.71 11.83" fill="rgb(255,255,255)"/></clipPath><g clip-path="url(#_clipPath_G5tVlDCJThGiGUsAl2ftfHApmI7xukaU)"><g><g><rect x="-335.73" y="-1431.43" width="458.1" height="1470.1" transform="matrix(1,0,0,1,0,0)" fill="rgb(0,0,0)"/></g></g></g><path d=" M -27.85 19.37 L -27.49 17.67 L -27.42 17.67 C -27.135 17.813 -26.837 17.926 -26.53 18.01 C -26.106 18.121 -25.666 18.159 -25.23 18.12 C -25.014 18.104 -24.804 18.046 -24.61 17.95 C -24.525 17.906 -24.447 17.848 -24.38 17.78 C -24.167 17.556 -24.167 17.204 -24.38 16.98 C -24.446 16.906 -24.52 16.839 -24.6 16.78 C -24.802 16.647 -25.013 16.526 -25.23 16.42 C -25.497 16.3 -25.755 16.16 -26 16 C -26.24 15.839 -26.456 15.643 -26.64 15.42 C -26.824 15.179 -26.947 14.898 -27 14.6 C -27.03 14.401 -27.03 14.199 -27 14 C -26.897 13.301 -26.486 12.684 -25.88 12.32 C -25.512 12.088 -25.106 11.922 -24.68 11.83 C -24.236 11.742 -23.782 11.709 -23.33 11.73 C -22.79 11.765 -22.258 11.876 -21.75 12.06 L -21.75 12.06 C -21.75 12.11 -22.07 13.62 -22.1 13.7 L -22.16 13.7 C -22.55 13.528 -22.966 13.42 -23.39 13.38 C -23.649 13.345 -23.911 13.345 -24.17 13.38 C -24.345 13.409 -24.512 13.473 -24.66 13.57 C -24.759 13.634 -24.839 13.724 -24.89 13.83 C -24.965 13.967 -24.965 14.133 -24.89 14.27 C -24.837 14.349 -24.773 14.419 -24.7 14.48 C -24.574 14.578 -24.441 14.665 -24.3 14.74 L -23.57 15.13 C -23.318 15.267 -23.081 15.427 -22.86 15.61 C -22.712 15.732 -22.581 15.874 -22.47 16.03 C -22.258 16.321 -22.143 16.67 -22.14 17.03 C -22.11 17.535 -22.243 18.036 -22.52 18.46 C -22.739 18.785 -23.03 19.055 -23.37 19.25 C -23.725 19.462 -24.114 19.611 -24.52 19.69 C -24.971 19.778 -25.431 19.812 -25.89 19.79 C -26.432 19.769 -26.969 19.682 -27.49 19.53 L -27.82 19.41 L -27.88 19.41" fill-rule="evenodd" fill="rgb(0,0,0)"/><clipPath id="_clipPath_TR4MN3R0mckbYE7wgOwt3c77gJtZkDqy"><path d=" M -27.85 19.37 L -27.49 17.67 L -27.42 17.67 C -27.135 17.813 -26.837 17.926 -26.53 18.01 C -26.106 18.121 -25.666 18.159 -25.23 18.12 C -25.014 18.104 -24.804 18.046 -24.61 17.95 C -24.525 17.906 -24.447 17.848 -24.38 17.78 C -24.167 17.556 -24.167 17.204 -24.38 16.98 C -24.446 16.906 -24.52 16.839 -24.6 16.78 C -24.802 16.647 -25.013 16.526 -25.23 16.42 C -25.497 16.3 -25.755 16.16 -26 16 C -26.24 15.839 -26.456 15.643 -26.64 15.42 C -26.824 15.179 -26.947 14.898 -27 14.6 C -27.03 14.401 -27.03 14.199 -27 14 C -26.897 13.301 -26.486 12.684 -25.88 12.32 C -25.512 12.088 -25.106 11.922 -24.68 11.83 C -24.236 11.742 -23.782 11.709 -23.33 11.73 C -22.79 11.765 -22.258 11.876 -21.75 12.06 L -21.75 12.06 C -21.75 12.11 -22.07 13.62 -22.1 13.7 L -22.16 13.7 C -22.55 13.528 -22.966 13.42 -23.39 13.38 C -23.649 13.345 -23.911 13.345 -24.17 13.38 C -24.345 13.409 -24.512 13.473 -24.66 13.57 C -24.759 13.634 -24.839 13.724 -24.89 13.83 C -24.965 13.967 -24.965 14.133 -24.89 14.27 C -24.837 14.349 -24.773 14.419 -24.7 14.48 C -24.574 14.578 -24.441 14.665 -24.3 14.74 L -23.57 15.13 C -23.318 15.267 -23.081 15.427 -22.86 15.61 C -22.712 15.732 -22.581 15.874 -22.47 16.03 C -22.258 16.321 -22.143 16.67 -22.14 17.03 C -22.11 17.535 -22.243 18.036 -22.52 18.46 C -22.739 18.785 -23.03 19.055 -23.37 19.25 C -23.725 19.462 -24.114 19.611 -24.52 19.69 C -24.971 19.778 -25.431 19.812 -25.89 19.79 C -26.432 19.769 -26.969 19.682 -27.49 19.53 L -27.82 19.41 L -27.88 19.41" fill="rgb(255,255,255)"/></clipPath><g clip-path="url(#_clipPath_TR4MN3R0mckbYE7wgOwt3c77gJtZkDqy)"><g><g><rect x="-335.73" y="-1431.43" width="458.1" height="1470.1" transform="matrix(1,0,0,1,0,0)" fill="rgb(0,0,0)"/></g></g></g><path d=" M -27.85 11.75 C -28.4 14.34 -28.94 16.92 -29.49 19.51 L -31.49 19.51 C -30.95 16.92 -30.4 14.33 -29.86 11.75 C -29.86 11.75 -27.97 11.75 -27.86 11.75" fill-rule="evenodd" fill="rgb(0,0,0)"/><clipPath id="_clipPath_PGyPFlUPBqa7jvfltIEOaIE0G8JBGDVf"><path d=" M -27.85 11.75 C -28.4 14.34 -28.94 16.92 -29.49 19.51 L -31.49 19.51 C -30.95 16.92 -30.4 14.33 -29.86 11.75 C -29.86 11.75 -27.97 11.75 -27.86 11.75" fill="rgb(255,255,255)"/></clipPath><g clip-path="url(#_clipPath_PGyPFlUPBqa7jvfltIEOaIE0G8JBGDVf)"><g><g><rect x="-335.73" y="-1431.43" width="458.1" height="1470.1" transform="matrix(1,0,0,1,0,0)" fill="rgb(0,0,0)"/></g></g></g><path d=" M 36.91 9.78 C 37.134 9.827 37.355 9.89 37.57 9.97 C 38.197 10.208 38.619 10.8 38.64 11.47 C 38.681 11.852 38.612 12.237 38.44 12.58 C 38.077 13.266 37.332 13.662 36.56 13.58 C 36.22 13.58 35.88 13.46 35.56 13.42 C 35.414 13.405 35.266 13.405 35.12 13.42 C 34.977 13.43 34.833 13.43 34.69 13.42 L 29.29 13.42 C 29.29 13.19 29.36 12.98 29.4 12.77 C 29.417 12.726 29.454 12.693 29.5 12.68 L 31.56 12.68 C 31.56 12.68 31.56 12.68 31.56 12.68 C 31.585 12.2 31.585 11.72 31.56 11.24 C 31.5 10.75 31.18 10.54 30.63 10.54 L 29.72 10.54 C 29.72 10.3 29.79 10.08 29.84 9.86 C 29.84 9.86 29.92 9.8 29.96 9.8 C 30.32 9.8 30.69 9.8 31.05 9.8 C 31.88 9.768 32.597 10.376 32.7 11.2 C 32.73 11.623 32.73 12.047 32.7 12.47 C 32.7 12.62 32.7 12.67 32.91 12.66 L 34.61 12.66 C 34.85 12.66 34.89 12.66 34.89 12.41 C 34.89 11.95 34.89 11.5 34.89 11.04 L 34.89 10.85 C 34.871 10.397 35.185 9.998 35.63 9.91 C 35.87 9.83 36.12 9.8 36.37 9.74 L 36.91 9.78 L 36.91 9.78 Z  M 35.91 10.78 C 35.91 10.95 35.91 11.09 35.91 11.24 C 35.91 11.64 35.91 12.04 35.91 12.45 C 35.91 12.56 35.91 12.62 36.08 12.63 C 36.25 12.64 36.49 12.63 36.7 12.63 C 37 12.655 37.28 12.48 37.39 12.2 C 37.54 11.824 37.54 11.406 37.39 11.03 C 37.31 10.802 37.101 10.645 36.86 10.63 C 36.542 10.608 36.223 10.663 35.93 10.79 L 35.91 10.78 L 35.91 10.78 Z " fill-rule="evenodd" fill="rgb(255,255,255)"/><path d=" M 23.62 9.85 C 23.62 10.11 23.55 10.35 23.51 10.59 C 23.488 10.646 23.439 10.687 23.38 10.7 L 22.55 10.7 C 22.295 10.671 22.039 10.753 21.848 10.925 C 21.657 11.097 21.548 11.343 21.55 11.6 C 21.505 12.005 21.505 12.415 21.55 12.82 C 21.555 13.046 21.652 13.259 21.818 13.412 C 21.984 13.565 22.205 13.644 22.43 13.63 L 26.93 13.63 C 27.172 13.658 27.405 13.53 27.51 13.31 C 27.608 13.133 27.606 12.918 27.506 12.743 C 27.406 12.567 27.222 12.456 27.02 12.45 L 25.93 12.45 C 25.728 12.447 25.527 12.423 25.33 12.38 C 24.853 12.277 24.505 11.867 24.48 11.38 C 24.383 10.882 24.586 10.373 25 10.08 C 25.261 9.906 25.566 9.809 25.88 9.8 C 26.83 9.8 27.78 9.8 28.73 9.8 L 28.81 9.8 L 28.7 10.63 L 26.35 10.63 L 26.02 10.63 C 25.797 10.694 25.643 10.898 25.643 11.13 C 25.643 11.362 25.797 11.566 26.02 11.63 L 27.16 11.63 C 27.523 11.614 27.878 11.731 28.16 11.96 C 28.544 12.324 28.698 12.869 28.56 13.38 C 28.501 13.842 28.156 14.215 27.7 14.31 C 27.466 14.377 27.224 14.414 26.98 14.42 L 21.98 14.42 C 21.503 14.438 21.04 14.254 20.705 13.913 C 20.371 13.573 20.194 13.107 20.22 12.63 C 20.188 12.166 20.212 11.699 20.29 11.24 C 20.426 10.412 21.162 9.818 22 9.86 C 22.53 9.86 23.07 9.86 23.63 9.86" fill-rule="evenodd" fill="rgb(255,255,255)"/><path d=" M 26 21.6 L 24.83 21.6 L 24.83 21.39 C 24.83 20.67 24.83 19.95 24.83 19.23 C 24.83 18.88 24.65 18.72 24.3 18.72 L 24.16 18.72 C 24.005 18.747 23.851 18.784 23.7 18.83 L 23.7 21.6 L 22.58 21.6 C 22.58 21.53 22.58 21.47 22.58 21.41 L 22.58 19.35 C 22.59 19.257 22.59 19.163 22.58 19.07 C 22.55 18.873 22.379 18.728 22.18 18.73 C 22.104 18.72 22.026 18.72 21.95 18.73 C 21.53 18.73 21.5 18.79 21.5 19.18 L 21.5 20.79 L 21.5 21.58 L 20.66 21.58 L 20.36 21.58 L 20.36 18.7 C 20.36 18.26 20.48 18.11 20.92 17.99 C 21.484 17.822 22.077 17.778 22.66 17.86 C 22.779 17.892 22.893 17.939 23 18 C 23.122 18.064 23.268 18.064 23.39 18 C 23.92 17.786 24.505 17.744 25.06 17.88 C 25.561 17.946 25.934 18.375 25.93 18.88 C 25.93 19.76 25.93 20.64 25.93 21.53 C 25.933 21.55 25.933 21.57 25.93 21.59" fill-rule="evenodd" fill="rgb(255,255,255)"/><path d=" M 33.3 17.53 L 33.3 16.43 C 33.3 16.23 33.3 16.03 33.3 15.84 C 33.302 15.778 33.336 15.721 33.39 15.69 L 34.47 15.49 C 34.47 15.58 34.47 15.64 34.47 15.71 L 34.47 20.66 C 34.47 21.19 34.37 21.32 33.88 21.47 C 33.347 21.638 32.783 21.682 32.23 21.6 C 31.337 21.488 30.673 20.72 30.69 19.82 C 30.668 19.468 30.692 19.116 30.76 18.77 C 30.815 18.327 31.053 17.927 31.415 17.667 C 31.778 17.407 32.233 17.31 32.67 17.4 C 32.87 17.4 33.06 17.49 33.28 17.53 M 33.28 19.53 L 33.28 18.89 C 33.28 18.37 33.28 18.37 32.78 18.31 C 32.579 18.266 32.368 18.31 32.2 18.43 C 32.033 18.55 31.924 18.735 31.9 18.94 C 31.863 19.168 31.846 19.399 31.85 19.63 C 31.85 20.51 32.31 20.85 33.14 20.63 C 33.25 20.63 33.29 20.56 33.28 20.44 L 33.28 19.49" fill-rule="evenodd" fill="rgb(255,255,255)"/><path d=" M 37.56 19.34 C 37.65 18.86 37.44 18.64 36.93 18.63 C 36.459 18.634 35.991 18.705 35.54 18.84 L 35.24 18.92 C 35.24 18.68 35.16 18.46 35.13 18.23 C 35.13 18.23 35.13 18.15 35.19 18.14 C 35.983 17.865 36.827 17.773 37.66 17.87 C 38.31 17.98 38.66 18.32 38.72 18.87 C 38.72 19.76 38.72 20.66 38.72 21.57 L 38.42 21.57 C 37.882 21.46 37.328 21.46 36.79 21.57 C 36.422 21.635 36.043 21.604 35.69 21.48 C 35.241 21.359 34.934 20.945 34.95 20.48 C 34.911 19.998 35.244 19.566 35.72 19.48 C 36.099 19.399 36.483 19.349 36.87 19.33 C 37.09 19.33 37.32 19.33 37.55 19.33 M 37.08 19.94 C 36.88 19.94 36.66 19.94 36.46 20.01 C 36.257 20.055 36.12 20.243 36.14 20.45 C 36.145 20.656 36.314 20.82 36.52 20.82 C 36.756 20.85 36.994 20.85 37.23 20.82 C 37.68 20.73 37.59 20.82 37.59 20.43 C 37.59 20.04 37.59 20 37.08 19.98" fill-rule="evenodd" fill="rgb(255,255,255)"/><path d=" M 30.22 21.6 C 29.97 21.6 29.74 21.54 29.51 21.49 C 29.181 21.418 28.839 21.418 28.51 21.49 C 28.108 21.58 27.692 21.58 27.29 21.49 C 26.81 21.438 26.436 21.051 26.4 20.57 C 26.354 20.061 26.699 19.6 27.2 19.5 C 27.569 19.423 27.943 19.376 28.32 19.36 C 28.54 19.36 28.77 19.36 28.99 19.36 C 29.09 18.88 28.88 18.63 28.35 18.67 C 27.89 18.712 27.433 18.779 26.98 18.87 C 26.879 18.891 26.778 18.918 26.68 18.95 C 26.68 18.71 26.6 18.48 26.57 18.26 C 26.57 18.26 26.57 18.18 26.64 18.17 C 27.407 17.906 28.222 17.811 29.03 17.89 C 29.75 18 30.14 18.34 30.17 18.98 C 30.17 19.86 30.17 20.73 30.17 21.63 M 29.09 20 C 28.75 20 28.43 20 28.09 20 C 27.75 20 27.59 20.22 27.61 20.48 C 27.63 20.74 27.82 20.88 28.14 20.87 C 28.415 20.845 28.689 20.805 28.96 20.75 C 28.96 20.75 29.05 20.69 29.05 20.67 C 29.05 20.45 29.05 20.22 29.05 20" fill-rule="evenodd" fill="rgb(255,255,255)"/><rect x="3.74" y="9.78" width="15.14" height="5.2" transform="matrix(1,0,0,1,0,0)" fill="rgb(255,255,255)"/><rect x="3.74" y="16.4" width="15.14" height="5.2" transform="matrix(1,0,0,1,0,0)" fill="rgb(255,255,255)"/></g></g></g></svg>