<?xml version="1.0" encoding="UTF-8"?><svg id="Layer_1" xmlns="http://www.w3.org/2000/svg" viewBox="0 0 26.24 26.23"><defs><style>.cls-1{fill:#0b6e69;}</style></defs><path class="cls-1" d="m2.5,0l-.56.53L.53,1.94l-.53.56.41.66,2.09,3.5.28.5h2.94l4,3.97C6.14,14.71,1.6,19.28,1.44,19.44c-1.57,1.57-1.57,4.13.03,5.62,1.56,1.54,4.11,1.58,5.59,0l.03-.03,6.16-6.19,6.19,6.22.09.06c1.57,1.48,4.07,1.5,5.53-.06v-.03h.03c1.53-1.57,1.55-4.11-.03-5.59l-.03-.03-5.22-5.19c3.51-.33,6.26-3.29,6.31-6.88h.03s0-.04,0-.06v-.03c.1-1.16-.15-2.26-.75-3.22l-.69-1.06-4.66,4.66-1.41-1.47,4.75-4.75-1.38-.56c-.8-.34-1.73-.59-2.78-.59-3.84,0-7,3.16-7,7,0,.42.09.78.16,1.16-.44.44-.77.8-1.28,1.31l-3.97-3.97v-2.97l-.5-.28L3.16.41l-.66-.41Zm16.75,2.25c.14,0,.24.08.38.09l-3.78,3.78.69.72,2.81,2.91.69.72,3.97-3.97c.02.23.18.4.16.66v.09c0,2.75-2.25,5-5,5-.37,0-.81-.09-1.31-.19l-.53-.09-.38.38-11.28,11.31h-.03v.03c-.71.78-1.95.8-2.78-.03v-.03h-.03c-.78-.71-.8-1.95.03-2.78.38-.38,7.72-7.78,11.31-11.38l.41-.41-.16-.56c-.08-.32-.16-.88-.16-1.25,0-2.75,2.25-5,5-5Zm-16.44.25l2.34,1.44v1l-.22.22h-1l-1.44-2.34.31-.31Zm14.62,12.16l6.22,6.19v.03h.03c.78.71.8,1.95-.03,2.78h-.03v.03c-.71.78-1.95.8-2.78-.03l-6.19-6.22,2.78-2.78Z"/></svg>