<svg xmlns="http://www.w3.org/2000/svg" width="43.902" height="34" viewBox="0 0 43.902 34">
  <g id="logo-mastercard-mobile" transform="translate(-1.847 -0.882)">
    <g id="Group" transform="translate(0.922 0.882)">
      <path id="Shape" d="M37.593,5.484a1.877,1.877,0,0,1-1.806-2.016,1.877,1.877,0,0,1,1.806-2.016,1.322,1.322,0,0,1,1.129.564V0h.79V5.4h-.79V4.919A1.233,1.233,0,0,1,37.593,5.484Zm.112-3.266a1.127,1.127,0,0,0-1.091,1.25,1.1,1.1,0,1,0,2.183,0A1.14,1.14,0,0,0,37.706,2.218ZM30.33,5.484a1.877,1.877,0,0,1-1.806-2.016A1.877,1.877,0,0,1,30.33,1.452a1.326,1.326,0,0,1,1.129.564V1.533h.79V5.4h-.79V4.919A1.236,1.236,0,0,1,30.33,5.484Zm.113-3.266a1.128,1.128,0,0,0-1.092,1.25,1.1,1.1,0,1,0,2.182,0A1.14,1.14,0,0,0,30.443,2.218ZM26.869,5.484a1.865,1.865,0,0,1-1.92-2.016,1.865,1.865,0,0,1,1.92-2.016,1.786,1.786,0,0,1,1.279.444l-.376.685a1.453,1.453,0,0,0-.941-.363,1.162,1.162,0,0,0-1.092,1.25,1.116,1.116,0,0,0,1.092,1.25,1.45,1.45,0,0,0,.941-.363l.376.685A1.785,1.785,0,0,1,26.869,5.484Zm-6.925,0A1.832,1.832,0,0,1,18.1,3.468a1.836,1.836,0,0,1,1.806-2.016,1.538,1.538,0,0,1,1.134.459,2.168,2.168,0,0,1,.522,1.6V3.83H18.891a1.036,1.036,0,0,0,1.091.928,1.714,1.714,0,0,0,1.054-.4l.376.6A2.186,2.186,0,0,1,19.944,5.484Zm-.038-3.307a.979.979,0,0,0-.978.928H20.81C20.736,2.516,20.407,2.177,19.906,2.177ZM16.633,5.484c-.847,0-1.242-.448-1.242-1.411V2.3h-.715V1.533h.715V.363h.79v1.17h1.28V2.3h-1.28V4.032c0,.434.172.645.527.645a1.189,1.189,0,0,0,.678-.2l.226.726A1.989,1.989,0,0,1,16.633,5.484Zm-4.177,0A2.55,2.55,0,0,1,10.913,5l.377-.645a1.979,1.979,0,0,0,1.2.4c.5,0,.827-.19.827-.484,0-.19-.2-.318-.639-.4L12.3,3.83c-.824-.126-1.241-.505-1.241-1.129,0-.759.591-1.25,1.5-1.25a2.436,2.436,0,0,1,1.468.4l-.338.686a2.573,2.573,0,0,0-1.129-.323c-.424,0-.677.166-.677.444,0,.256.3.327.6.363l.376.04c.812.13,1.241.534,1.241,1.169C14.111,4.993,13.461,5.484,12.456,5.484Zm-4.177,0A1.877,1.877,0,0,1,6.473,3.468,1.877,1.877,0,0,1,8.279,1.452a1.325,1.325,0,0,1,1.129.564V1.533h.79V5.4h-.79V4.919A1.235,1.235,0,0,1,8.279,5.484Zm.075-3.266a1.127,1.127,0,0,0-1.091,1.25,1.159,1.159,0,0,0,1.091,1.25,1.153,1.153,0,0,0,1.092-1.25A1.14,1.14,0,0,0,8.354,2.218ZM3.236,5.4h-.79V3.266c0-.659-.273-1.008-.79-1.008C1.1,2.258.79,2.616.79,3.266V5.4H0V1.533H.79v.483a1.185,1.185,0,0,1,1.054-.564,1.291,1.291,0,0,1,1.2.686,1.459,1.459,0,0,1,1.279-.686,1.376,1.376,0,0,1,1.43,1.532V5.4H4.892V3.266c0-.659-.274-1.008-.791-1.008-.542,0-.865.377-.865,1.008V5.4Zm30.857,0H33.3V1.533h.791v.483a1.052,1.052,0,0,1,.941-.564,2.311,2.311,0,0,1,.527.04l-.226.806a2.114,2.114,0,0,0-.489-.081c-.485,0-.752.358-.752,1.008V5.4Zm-10.876,0h-.79V1.533h.79v.483a1.052,1.052,0,0,1,.941-.564,2.323,2.323,0,0,1,.527.04L24.46,2.3a2,2,0,0,0-.49-.081c-.485,0-.752.358-.752,1.008V5.4Z" transform="translate(3.121 28.516)" fill="#fff"/>
      <rect id="Rectangle" width="12.073" height="22" transform="translate(16 3)" fill="rgba(255,255,255,0.71)"/>
      <path id="Path" d="M16.784,13.71A13.8,13.8,0,0,1,21.951,2.932,13.413,13.413,0,0,0,13.578,0,13.636,13.636,0,0,0,0,13.71a13.636,13.636,0,0,0,13.578,13.71,13.413,13.413,0,0,0,8.373-2.932A13.737,13.737,0,0,1,16.784,13.71Z" transform="translate(0.926)" fill="#fff"/>
      <path id="Path-2" data-name="Path" d="M21.951,13.71A13.636,13.636,0,0,1,8.373,27.419,13.413,13.413,0,0,1,0,24.487,13.68,13.68,0,0,0,5.167,13.71,13.8,13.8,0,0,0,0,2.932,13.413,13.413,0,0,1,8.373,0,13.66,13.66,0,0,1,21.951,13.71Z" transform="translate(22.877)" fill="#fff"/>
    </g>
  </g>
</svg>
