<?xml version="1.0" encoding="UTF-8"?><svg id="Layer_1" xmlns="http://www.w3.org/2000/svg" viewBox="0 0 25.44 25.44"><defs><style>.cls-1{fill:#89d9d5;}</style></defs><path class="cls-1" d="m16.53,0l-.69.94-4.91,6.69c-2.63-.46-5.41.29-7.44,2.31l-.72.69,5.31,5.31L0,24.03v1.41h1.41l8.09-8.09,5.31,5.31.69-.72c2.03-2.03,2.77-4.81,2.31-7.44l6.69-4.91.94-.69L16.53,0Zm.25,3.06l5.59,5.59-6.22,4.56-.56.41.19.66c.48,1.83-.04,3.74-1.19,5.34L5.81,10.84c1.6-1.14,3.51-1.67,5.34-1.19l.66.19.41-.56,4.56-6.22Z"/></svg>