<svg xmlns="http://www.w3.org/2000/svg" xmlns:xlink="http://www.w3.org/1999/xlink" width="175" height="130" viewBox="0 0 175 130">
  <defs>
    <clipPath id="clip-ShareIcon">
      <rect width="175" height="130"/>
    </clipPath>
  </defs>
  <g id="ShareIcon" clip-path="url(#clip-ShareIcon)">
    <g id="Group_1530" data-name="Group 1530" transform="translate(14467 6191)">
      <circle id="Ellipse_242" data-name="Ellipse 242" cx="51" cy="51" r="51" transform="translate(-14432 -6179)" fill="#e7f7f7"/>
      <path id="noun-charity-4393106" d="M111.7,0a1.434,1.434,0,0,0-.147.009L94.507,1.918h0a1.238,1.238,0,0,0-1.058,1.551l1.146,4.281-2.8.751-26.931-.19a5.934,5.934,0,0,0-4.243,1.742c-2.1,1.68-4.461,3.592-6.6,5.3a16.818,16.818,0,1,0,10.339,16.6l13.7,3.6h0l.047.009a3.386,3.386,0,0,0,2.664-.31l10.995-6.481h0a1.2,1.2,0,0,0,.157-.118h.059a2.936,2.936,0,0,1,1.061-.525l6.533-1.753,1.188,4.438a1.239,1.239,0,0,0,1.694.811l15.714-6.877a1.24,1.24,0,0,0,.7-1.456L112.889.934A1.238,1.238,0,0,0,111.7.016Zm-.933,2.59,5.435,20.3-13.419,5.873L101.7,24.724h0a1.226,1.226,0,0,0-.107-.394L97.357,8.5a1.26,1.26,0,0,0-.1-.381l-1.044-3.9ZM95.234,10.143l3.7,13.827L92.4,25.723a5.62,5.62,0,0,0-1.871.907l-11.018,6.5a1.121,1.121,0,0,1-.741.119h0a1.088,1.088,0,0,0-.129,0L61.7,28.787a3.005,3.005,0,0,1,1.557-5.8l4.095,1.1,4.094,1.1,3.967,1.061a1.244,1.244,0,0,0,.375.119h.118a3.491,3.491,0,0,0,2.494-.989l2.252-2.293a1.24,1.24,0,1,0-1.767-1.739l-2.252,2.294a.816.816,0,0,1-.609.251L72.087,22.82l-4.095-1.1-4.094-1.1a5.581,5.581,0,0,0-2.167-.131,3.246,3.246,0,0,0-.879.2,2.446,2.446,0,0,0-.222-.286,15.836,15.836,0,0,0-1.15-1.275,16.639,16.639,0,0,0-3.048-2.411c1.9-1.524,3.885-3.131,5.692-4.578h0a1.193,1.193,0,0,0,.153-.131,1.206,1.206,0,0,0,.072-.119,3.393,3.393,0,0,1,2.487-1.025l26.921.19h0a1.225,1.225,0,0,0,.705-.123ZM47.611,16.557a14.243,14.243,0,0,1,5.841,1.251h0a1.22,1.22,0,0,0,.443.2,14.364,14.364,0,0,1,3.833,2.745q.521.519.975,1.073a5.418,5.418,0,0,0-1.513,2.539,5.488,5.488,0,0,0,3.878,6.715,10.891,10.891,0,0,1-3.341,9.934A14.318,14.318,0,1,1,47.613,16.551ZM54.6,38.6ZM44.34,29.149C44.771,29.267,43.032,28.782,44.34,29.149Zm43.73,4.066h0a1.24,1.24,0,0,0-1.262,1.443A28.607,28.607,0,0,1,84.9,50.085a1.239,1.239,0,1,0,2.28.966,31.048,31.048,0,0,0,2.078-16.768,1.239,1.239,0,0,0-1.187-1.073ZM29.059,34.7h0a1.238,1.238,0,0,0-1.219,1.133,30.955,30.955,0,0,0,3.58,17.931A1.24,1.24,0,1,0,33.6,52.573a28.52,28.52,0,0,1-3.29-16.489h0A1.237,1.237,0,0,0,29.059,34.7ZM71.9,43.435a5.472,5.472,0,0,0-3.873,1.6l-10.991,11L52.55,60.524a5.505,5.505,0,0,0-1.806-.858l-16.921-4.45h0a1.262,1.262,0,0,0-.16,0,1.343,1.343,0,0,0-.165,0,5.294,5.294,0,0,0-2.064.155l-12.228,3.28L18.15,54.7a1.238,1.238,0,0,0-1.185-.918,1.224,1.224,0,0,0-.508.119L.743,60.779a1.24,1.24,0,0,0-.7,1.453L6.026,84.594A1.24,1.24,0,0,0,7.36,85.5l17.045-1.909a1.24,1.24,0,0,0,1.059-1.554l-1.146-4.279,2.963-.8a3.443,3.443,0,0,1,1.142-.119l22.871,6.076a5.513,5.513,0,0,0,4.031-.477l0,0a1.222,1.222,0,0,0,.189-.119,1.239,1.239,0,0,0,.195-.143L83.76,61.088a5.741,5.741,0,0,0,1.88-7.405,5.469,5.469,0,0,0-5.395-2.669,6.406,6.406,0,0,0-2.053.644l-2.621,1.4.276-.322a5.655,5.655,0,0,0-.072-7.679,5.428,5.428,0,0,0-3.873-1.6Zm0,2.455a2.986,2.986,0,0,1,2.121.895,3.084,3.084,0,0,1-.072,4.326L69.6,56.231,54.747,64.187a5.609,5.609,0,0,0-.58-1.783l4.618-4.616h0L69.78,46.783a2.99,2.99,0,0,1,2.121-.895Zm8.921,7.52A2.976,2.976,0,0,1,83.492,54.9c.84,1.456.27,3.064-1.224,4.187L54.158,80.22a2.977,2.977,0,0,1-2.229.262L29.024,74.4h-.058l0,0h-.072a1.215,1.215,0,0,0-.192,0,5.218,5.218,0,0,0-2.048.155l-2.962.8L19.855,61.041l12.23-3.279a3.435,3.435,0,0,1,1.141-.119l16.9,4.445a2.982,2.982,0,0,1,1.343.763h0a1.242,1.242,0,0,0,.359.43,3,3,0,0,1,.414,2.489c-.014,0-.023.119-.036.119a1.151,1.151,0,0,0-.072.2,2.961,2.961,0,0,1-3.569,1.8L32.185,63.5h0a1.24,1.24,0,0,0-.642,2.395L47.92,70.284a5.492,5.492,0,0,0,6.4-3.025l16.5-8.841h0a1.23,1.23,0,0,0,.281-.155l8.259-4.426a3.348,3.348,0,0,1,1.465-.405ZM16.13,56.666l.931,3.478h0a1.249,1.249,0,0,0,.149.56l4.406,16.461,1.083,4.05L8.146,82.848l-5.433-20.3Z" transform="matrix(0.755, 0.656, -0.656, 0.755, -14395.825, -6196.627)" fill="#12b2aa"/>
      <path id="Icon_feather-heart" data-name="Icon feather-heart" d="M16.356,5.67a4,4,0,0,0-5.659,0l-.771.771L9.155,5.67A4,4,0,1,0,3.5,11.329l.771.771L9.926,17.76,15.585,12.1l.771-.771A4,4,0,0,0,16.356,5.67Z" transform="translate(-14390.571 -6152.933)" fill="none" stroke="#5581c4" stroke-linecap="round" stroke-linejoin="round" stroke-width="2"/>
    </g>
  </g>
</svg>
