<?xml version="1.0" encoding="utf-8"?>
<!-- Generator: Adobe Illustrator 24.0.1, SVG Export Plug-In . SVG Version: 6.00 Build 0)  -->
<svg version="1.1" id="Layer_1" xmlns="http://www.w3.org/2000/svg" xmlns:xlink="http://www.w3.org/1999/xlink" x="0px" y="0px"
	 viewBox="0 0 841.89 430.91" style="enable-background:new 0 0 841.89 430.91;" xml:space="preserve">
<style type="text/css">
	.st0{fill:#12B2AA;}
	.st1{fill:#5581C4;}
</style>
<g>
	<g>
		<path class="st0" d="M228.13,17.06v233.51c0,9.42,7.64,17.06,17.06,17.06h141.25c19.79,0,37.54-8.69,49.78-22.41
			c12.26,13.71,30.02,22.41,49.82,22.41c23.09,0,43.75-15.36,50.43-37.43l9.85-27.68l23.45,53.21c3.25,7.04,8.84,11.74,16.28,11.82
			c7.52-0.11,13.75-4.98,16.38-12.29l43.03-129.72l31.71,242.44c1.06,8.07,7.67,14.28,15.79,14.81c0.38,0.03,0.76,0.04,1.13,0.04
			c7.67,0,14.47-5.15,16.47-12.65l37.65-140.76l9.9,27.02c2.46,6.72,8.86,11.19,16.02,11.19h49.79c8.5,0,16.37-5.81,17.73-14.2
			c1.74-10.69-6.47-19.92-16.83-19.92h-38.78l-24.36-66.48c-2.81-7.68-10.65-12.37-19.06-10.93c-6.75,1.16-11.92,6.72-13.69,13.33
			l-29.1,108.8L668.7,40.11c-0.85-6.5-5.02-12.4-11.22-14.51c-9.61-3.26-19.53,2.19-22.17,11.41L585.2,212.21l-21.42-67.54
			c-1.83-5.78-6.29-10.6-12.15-12.13c-9.06-2.36-17.54,2.62-20.43,10.76l-27,75.88c-0.11,0.32-0.22,0.63-0.31,0.95
			c-2.29,7.87-9.63,13.38-17.83,13.38c-18.07,0-32.78-14.71-32.78-32.78v-21.47v-34.01V91.91c0-9.42-7.64-17.06-17.06-17.06
			l-50.86,0c-37.46,0-70.22,28.2-72.72,65.58c-2.75,40.99,29.82,75.22,70.24,75.22c13.11,0,25.35-3.67,35.88-9.94
			c-2.38,15.7-15.94,27.79-32.29,27.79H262.25V17.06c0-9.42-7.64-17.06-17.06-17.06h0C235.77,0,228.13,7.64,228.13,17.06z
			 M382.86,181.54c-20.01,0-36.28-16.28-36.28-36.29s16.28-36.28,36.28-36.28h36.28v36.28
			C419.15,165.26,402.87,181.54,382.86,181.54z"/>
		<path class="st0" d="M125.14,121.73h-9.57c-40.22,0-72.95,32.72-72.95,72.94c0,14.28,4.18,27.57,11.3,38.83H17.06
			C7.64,233.51,0,241.14,0,250.57c0,9.42,7.64,17.06,17.06,17.06h98.51h65.46c9.42,0,17.06-7.64,17.06-17.06
			c0-9.42-7.64-17.06-17.06-17.06h-65.46c-21.41,0-38.83-17.42-38.83-38.83c0-21.41,17.42-38.83,38.83-38.83h9.57
			c21.41,0,38.83,17.42,38.83,38.83v3.92c0,9.42,7.64,17.06,17.06,17.06c9.42,0,17.06-7.64,17.06-17.06v-3.92
			C198.09,154.46,165.37,121.73,125.14,121.73z"/>
		<circle class="st0" cx="394.5" cy="24.65" r="24.65"/>
	</g>
	<g>
		<g>
			<path class="st1" d="M6.16,430.91c-3.1,0-4.92-1.55-5.46-4.72l-0.61-2.9c-0.54-3.5,1.35-5.53,4.85-5.53h44.61
				c13.01,0,19-4.25,19-12.94c0-8.63-6.87-13.07-20.15-15.57l-17.66-3.5C10.6,382.05,0.7,374.1,0.7,358.74
				c0-15.63,11.05-24.46,32.55-24.46h37.67c3.17,0,4.99,1.55,5.53,4.72l0.4,2.9c0.54,3.5-1.21,5.53-4.72,5.53H33.65
				c-12.2,0-17.52,3.57-17.52,11.05c0,7.61,6.2,11.73,19.07,14.35l18.06,3.44c10.44,2.02,18.19,5.19,23.25,9.5
				c5.05,4.38,7.55,10.65,7.55,18.8c0,16.78-11.86,26.35-33.96,26.35H6.16z"/>
			<path class="st1" d="M192.47,334.28c3.3,0,5.26,1.95,5.26,5.26v86.12c0,3.3-1.95,5.26-5.26,5.26h-4.72
				c-3.23,0-5.05-1.95-5.05-5.26v-37.4h-57.82v37.4c0,3.3-1.82,5.26-5.12,5.26h-4.72c-3.3,0-5.26-1.95-5.26-5.26v-86.12
				c0-3.3,1.95-5.26,5.26-5.26h4.72c3.3,0,5.12,1.95,5.12,5.26v35.65h57.82v-35.65c0-3.3,1.82-5.26,5.05-5.26H192.47z"/>
			<path class="st1" d="M235.52,430.91c-3.3,0-5.26-1.95-5.26-5.26v-86.12c0-3.3,1.95-5.26,5.26-5.26h64.15
				c3.17,0,4.99,1.55,5.53,4.72l0.4,2.9c0.54,3.5-1.15,5.53-4.65,5.53h-55.53v27.63h45.55c3.23,0,5.12,1.82,5.12,5.05v2.36
				c0,3.3-1.95,5.26-5.12,5.26h-45.55v30.05h56.6c3.57,0,5.39,2.02,4.85,5.53l-0.54,2.9c-0.54,3.17-2.36,4.72-5.53,4.72H235.52z"/>
			<path class="st1" d="M339.22,430.91c-3.3,0-5.26-1.95-5.26-5.26v-86.12c0-3.3,1.95-5.26,5.26-5.26h62.67
				c3.17,0,4.99,1.55,5.53,4.72l0.54,2.9c0.54,3.5-1.35,5.53-4.85,5.53h-54.04v29.65h43.87c3.17,0,5.12,1.95,5.12,5.12v2.49
				c0,3.17-1.95,5.12-5.12,5.12h-43.87v35.85c0,3.3-1.82,5.26-5.12,5.26H339.22z"/>
			<path class="st1" d="M514.49,424.98c1.35,3.57-0.34,5.93-4.18,5.93h-5.19c-3.03,0-5.05-1.35-6.13-4.11l-9.1-22.37h-50.47
				l-9.1,22.37c-1.08,2.76-3.1,4.11-6.13,4.11H419c-3.84,0-5.53-2.36-4.18-5.93l36.32-86.52c1.08-2.76,3.03-4.18,5.93-4.18h15.3
				c2.9,0,4.85,1.42,5.93,4.18L514.49,424.98z M444.81,391.15h39.69l-17.92-44.14h-3.71L444.81,391.15z"/>
			<path class="st1" d="M629.3,424.98c1.35,3.57-0.34,5.93-4.18,5.93h-5.19c-3.03,0-5.05-1.35-6.13-4.11l-9.1-22.37h-50.47
				l-9.1,22.37c-1.08,2.76-3.1,4.11-6.13,4.11h-5.19c-3.84,0-5.53-2.36-4.18-5.93l36.32-86.52c1.08-2.76,3.03-4.18,5.93-4.18h15.3
				c2.9,0,4.85,1.42,5.93,4.18L629.3,424.98z M559.63,391.15h39.69l-17.92-44.14h-3.71L559.63,391.15z"/>
		</g>
		<g>
			<path class="st1" d="M805.17,334.5c12.1,0,21.25,2.99,27.47,9.01c6.17,6.02,9.25,14.66,9.25,25.95s-3.08,19.92-9.25,25.95
				c-6.21,6.02-15.37,9.01-27.47,9.01c-12.1,0-21.3-2.99-27.52-9.01c-6.21-6.02-9.35-14.66-9.35-25.95s3.13-19.92,9.35-25.95
				C783.87,337.49,793.07,334.5,805.17,334.5z M805.17,397.93c9.68,0,17.08-2.32,22.15-7.02s7.54-11.81,7.45-21.44
				c0.19-19.21-10.25-28.46-29.6-28.46c-9.68,0-17.08,2.32-22.15,7.02c-5.12,4.7-7.69,11.81-7.69,21.44s2.56,16.75,7.69,21.44
				C788.09,395.6,795.49,397.93,805.17,397.93z M812.52,375.39l6.4,7.21c1.52,1.95,0.47,3.89-2.13,3.89h-1.61
				c-1.95,0-3.42-0.76-4.41-2.28l-6.59-8.02c-0.71-1.09-1.04-2.04-1.04-2.85v-1.47c0-1.09,0.62-1.61,1.85-1.61h1.33
				c4.79,0,7.21-1.8,7.21-5.46c0-3.75-2.23-5.46-7.88-5.46h-7.97v23.91c0,2.32-0.85,3.23-3.13,3.23h-1.33
				c-2.28,0-3.13-0.9-3.13-3.23v-27.42c0-2.13,1.38-3.37,3.61-3.37h12.43c10.01,0,15.28,4.65,15.28,12.24
				C821.4,370.08,818.07,373.88,812.52,375.39z"/>
		</g>
		<circle class="st1" cx="781.8" cy="24.65" r="24.65"/>
		<path class="st1" d="M792.59,82.8c0,13.61,11.04,24.65,24.65,24.65s24.65-11.04,24.65-24.65c0-13.61-11.04-24.65-24.65-24.65
			S792.59,69.19,792.59,82.8z"/>
		<circle class="st1" cx="746.36" cy="82.8" r="24.65"/>
	</g>
</g>
</svg>
