<svg xmlns="http://www.w3.org/2000/svg" width="22.594" height="18.357" viewBox="0 0 22.594 18.357"><defs><style>.a{fill:#12b3ab;}</style></defs><g transform="translate(0)"><g transform="translate(0 0)"><path class="a" d="M22.594,50.173a9.657,9.657,0,0,1-2.669.731,4.606,4.606,0,0,0,2.038-2.56,9.256,9.256,0,0,1-2.937,1.121,4.632,4.632,0,0,0-8.012,3.167,4.769,4.769,0,0,0,.107,1.056,13.111,13.111,0,0,1-9.547-4.845A4.633,4.633,0,0,0,3,55.035,4.574,4.574,0,0,1,.9,54.465v.051a4.653,4.653,0,0,0,3.711,4.551,4.623,4.623,0,0,1-1.214.153,4.1,4.1,0,0,1-.877-.079,4.676,4.676,0,0,0,4.328,3.227,9.307,9.307,0,0,1-5.743,1.976A8.675,8.675,0,0,1,0,64.279a13.04,13.04,0,0,0,7.106,2.079A13.092,13.092,0,0,0,20.289,53.177c0-.2-.007-.4-.017-.6A9.24,9.24,0,0,0,22.594,50.173Z" transform="translate(0 -48)"/></g></g></svg>