<?xml version="1.0" encoding="utf-8"?>
<svg viewBox="0 0 621 772" fill="rgb(63, 70, 76)" xmlns="http://www.w3.org/2000/svg">
    <path d="M141.124 119.34C141.639 118.807 142.187 118.323 142.769 117.885L142.878 118.027L143.274 117.5C150.627 107.731 161.957 101.5 174.643 101.5H413.054C435.152 101.5 453.125 120.439 453.125 143.866V328.546C453.125 336.186 447.26 342.341 440.095 342.341C432.94 342.341 427.074 336.186 427.074 328.546V143.866C427.074 135.723 420.822 129.071 413.054 129.071H174.643C166.992 129.071 160.781 135.529 160.622 143.555C160.403 154.593 160.144 167.402 159.908 179.079C159.857 181.634 159.806 184.134 159.757 186.55C159.296 209.621 141.472 228.022 119.699 228.022H79.5764C76.2918 228.022 73.2682 229.216 70.8878 231.205L70.8696 231.22L70.853 231.237C70.5526 231.541 70.2391 231.826 69.9212 232.088L69.9019 232.104L69.8844 232.122C67.216 234.812 65.5509 238.608 65.5509 242.808V628.444C65.5509 636.578 71.8031 643.23 79.5717 643.23H309.532C316.692 643.23 322.553 649.386 322.553 657.025C322.553 664.655 316.697 670.811 309.532 670.811H79.5717C57.4639 670.811 39.5 651.871 39.5 628.444V242.808C39.5 230.008 44.8743 218.535 53.3524 210.768L53.3642 210.757L53.3753 210.746L141.124 119.34C141.124 119.34 141.124 119.34 141.124 119.34ZM440.095 626.727C383.793 626.727 333.61 589.959 303.753 532.881L303.751 532.87L303.723 532.816C297.199 520.193 297.195 504.936 303.707 492.315C303.71 492.311 303.712 492.308 303.713 492.305C303.719 492.295 303.725 492.285 303.728 492.28L303.729 492.277L303.729 492.277L303.73 492.275L303.731 492.274L303.742 492.259L303.758 492.229C333.627 435.151 383.801 398.382 440.099 398.382C496.399 398.382 546.571 435.147 576.436 492.22C576.44 492.229 576.447 492.246 576.456 492.265C576.462 492.278 576.47 492.293 576.48 492.31C582.985 504.928 582.996 520.173 576.491 532.787C576.474 532.811 576.453 532.845 576.433 532.887C546.572 589.962 496.391 626.727 440.095 626.727ZM303.739 532.854L303.738 532.853C303.737 532.851 303.737 532.851 303.739 532.854ZM326.543 505.582C324.437 509.704 324.325 514.62 326.211 518.829H326.179L326.562 519.561C351.513 567.227 392.839 599.151 440.094 599.151C487.353 599.151 528.68 567.228 553.649 519.538L553.651 519.533C555.875 515.171 555.875 509.921 553.633 505.557L553.631 505.554C528.68 457.889 487.358 425.964 440.095 425.964C392.841 425.964 351.514 457.887 326.545 505.577L326.543 505.582ZM134.108 166.574L134.099 165.344L133.247 166.231L101.224 199.586L100.412 200.432H101.585H119.702C127.353 200.432 133.564 193.975 133.723 185.958L134.108 166.592L134.108 166.592L134.108 166.579L134.108 166.574ZM382.641 512.55C382.641 479.009 408.406 451.818 440.095 451.818C471.785 451.818 497.56 479.009 497.56 512.55C497.56 546.101 471.785 573.293 440.095 573.293C408.406 573.293 382.641 546.101 382.641 512.55ZM471.509 512.55C471.509 494.273 457.464 479.389 440.095 479.389C422.732 479.389 408.682 494.273 408.682 512.55C408.682 530.832 422.732 545.717 440.095 545.717C457.464 545.717 471.509 530.832 471.509 512.55ZM248.653 485.752H153.613C146.457 485.752 140.592 479.596 140.592 471.966C140.592 464.327 146.457 458.171 153.613 458.171H248.653C255.818 458.171 261.683 464.327 261.683 471.966C261.683 479.596 255.818 485.752 248.653 485.752ZM248.653 399.986H153.613C146.457 399.986 140.592 393.84 140.592 386.201C140.592 378.567 146.457 372.415 153.613 372.415H248.653C255.818 372.415 261.683 378.562 261.683 386.201C261.683 393.835 255.818 399.986 248.653 399.986ZM343.697 314.101H153.613C146.457 314.101 140.592 307.954 140.592 300.315C140.592 292.681 146.457 286.53 153.613 286.53H343.697C350.853 286.53 356.718 292.676 356.718 300.315C356.718 307.949 350.853 314.101 343.697 314.101Z" fill="rgb(63, 70, 76)" stroke="black"/>
</svg>

