<?xml version="1.0" encoding="UTF-8" standalone="no"?><!-- Generator: Gravit.io --><svg xmlns="http://www.w3.org/2000/svg" xmlns:xlink="http://www.w3.org/1999/xlink" style="isolation:isolate" viewBox="0 0 32 32" width="32pt" height="32pt"><defs><clipPath id="_clipPath_Hlzl0B3iTVciEsOBPqpWIgd6p1ivM5qI"><rect width="32" height="32"/></clipPath></defs><g clip-path="url(#_clipPath_Hlzl0B3iTVciEsOBPqpWIgd6p1ivM5qI)"><path d=" M 25 11.74 L 26.62 19.51 L 24.78 19.51 L 24.54 18.36 L 22 18.36 C 21.94 18.36 21.94 18.36 21.92 18.42 L 21.55 19.42 L 21.55 19.5 L 19.42 19.5 L 19.42 19.42 C 19.72 18.72 20.01 18.03 20.3 17.33 L 22.4 12.33 C 22.51 12.072 22.73 11.877 23 11.8 C 23.114 11.754 23.237 11.734 23.36 11.74 L 25 11.74 Z  M 23.58 13.84 C 23.52 13.95 22.53 16.71 22.52 16.75 C 22.51 16.79 24.13 16.75 24.18 16.75 L 23.58 13.84 Z " fill-rule="evenodd" fill="rgb(0,0,0)"/><clipPath id="_clipPath_ndQJhdNHk44K306Ge1Zdx5Eft7NRh26U"><path d=" M 25 11.74 L 26.62 19.51 L 24.78 19.51 L 24.54 18.36 L 22 18.36 C 21.94 18.36 21.94 18.36 21.92 18.42 L 21.55 19.42 L 21.55 19.5 L 19.42 19.5 L 19.42 19.42 C 19.72 18.72 20.01 18.03 20.3 17.33 L 22.4 12.33 C 22.51 12.072 22.73 11.877 23 11.8 C 23.114 11.754 23.237 11.734 23.36 11.74 L 25 11.74 Z  M 23.58 13.84 C 23.52 13.95 22.53 16.71 22.52 16.75 C 22.51 16.79 24.13 16.75 24.18 16.75 L 23.58 13.84 Z " fill="rgb(255,255,255)"/></clipPath><g clip-path="url(#_clipPath_ndQJhdNHk44K306Ge1Zdx5Eft7NRh26U)"><g><rect x="-293.73" y="-1431.43" width="458.1" height="1470.1" transform="matrix(1,0,0,1,0,0)" fill="rgb(0,0,0)"/><clipPath id="_clipPath_YH3DYWEGAYS8tZo4Gwr1lxpLz7S4PsGP"><rect x="-293.73" y="-1431.43" width="458.1" height="1470.1" transform="matrix(1,0,0,1,0,0)" fill="rgb(255,255,255)"/></clipPath><g clip-path="url(#_clipPath_YH3DYWEGAYS8tZo4Gwr1lxpLz7S4PsGP)"><g><rect x="18.04" y="10.35" width="10" height="10.55" transform="matrix(1,0,0,1,0,0)" fill="rgb(255,255,255)"/></g></g></g></g><path d=" M 9.33 11.74 L 11.33 11.74 Q 9.8 15.63 8.21 19.51 L 6.15 19.51 C 6.149 19.487 6.149 19.463 6.15 19.44 C 5.64 17.39 5.15 15.34 4.61 13.29 C 4.591 13.215 4.568 13.142 4.54 13.07 C 4.494 12.901 4.382 12.757 4.23 12.67 C 4.079 12.58 3.922 12.5 3.76 12.43 C 3.317 12.256 2.863 12.112 2.4 12 L 2.21 12 L 2.21 12 C 2.205 11.94 2.205 11.88 2.21 11.82 L 5.54 11.82 C 5.681 11.821 5.821 11.851 5.95 11.91 C 6.215 12.037 6.404 12.282 6.46 12.57 C 6.46 12.77 6.53 12.97 6.57 13.18 C 6.68 13.75 6.78 14.32 6.89 14.9 L 7.22 16.74 C 7.22 16.86 7.22 16.98 7.29 17.1 C 7.4 16.85 7.49 16.6 7.59 16.35 L 7.88 15.6 C 7.98 15.35 8.07 15.1 8.17 14.84 C 8.27 14.58 8.36 14.34 8.46 14.09 C 8.56 13.84 8.65 13.59 8.75 13.34 L 9 12.5 L 9.3 11.74" fill-rule="evenodd" fill="rgb(0,0,0)"/><clipPath id="_clipPath_g6bY8RFAVoRUzjArdINtr6yE6ETykkNi"><path d=" M 9.33 11.74 L 11.33 11.74 Q 9.8 15.63 8.21 19.51 L 6.15 19.51 C 6.149 19.487 6.149 19.463 6.15 19.44 C 5.64 17.39 5.15 15.34 4.61 13.29 C 4.591 13.215 4.568 13.142 4.54 13.07 C 4.494 12.901 4.382 12.757 4.23 12.67 C 4.079 12.58 3.922 12.5 3.76 12.43 C 3.317 12.256 2.863 12.112 2.4 12 L 2.21 12 L 2.21 12 C 2.205 11.94 2.205 11.88 2.21 11.82 L 5.54 11.82 C 5.681 11.821 5.821 11.851 5.95 11.91 C 6.215 12.037 6.404 12.282 6.46 12.57 C 6.46 12.77 6.53 12.97 6.57 13.18 C 6.68 13.75 6.78 14.32 6.89 14.9 L 7.22 16.74 C 7.22 16.86 7.22 16.98 7.29 17.1 C 7.4 16.85 7.49 16.6 7.59 16.35 L 7.88 15.6 C 7.98 15.35 8.07 15.1 8.17 14.84 C 8.27 14.58 8.36 14.34 8.46 14.09 C 8.56 13.84 8.65 13.59 8.75 13.34 L 9 12.5 L 9.3 11.74" fill="rgb(255,255,255)"/></clipPath><g clip-path="url(#_clipPath_g6bY8RFAVoRUzjArdINtr6yE6ETykkNi)"><g><rect x="-293.73" y="-1431.43" width="458.1" height="1470.1" transform="matrix(1,0,0,1,0,0)" fill="rgb(0,0,0)"/><clipPath id="_clipPath_devCn0gz2QeCuWiFuZFxtu3pqxdICfmN"><rect x="-293.73" y="-1431.43" width="458.1" height="1470.1" transform="matrix(1,0,0,1,0,0)" fill="rgb(255,255,255)"/></clipPath><g clip-path="url(#_clipPath_devCn0gz2QeCuWiFuZFxtu3pqxdICfmN)"><g><rect x="0.82" y="10.35" width="11.94" height="10.55" transform="matrix(1,0,0,1,0,0)" fill="rgb(255,255,255)"/></g></g></g></g><path d=" M 14.15 19.37 L 14.51 17.67 L 14.58 17.67 C 14.865 17.813 15.163 17.926 15.47 18.01 C 15.894 18.121 16.334 18.159 16.77 18.12 C 16.986 18.104 17.196 18.046 17.39 17.95 C 17.475 17.906 17.553 17.848 17.62 17.78 C 17.833 17.556 17.833 17.204 17.62 16.98 C 17.554 16.906 17.48 16.839 17.4 16.78 C 17.198 16.647 16.987 16.526 16.77 16.42 C 16.503 16.3 16.245 16.16 16 16 C 15.76 15.839 15.544 15.643 15.36 15.42 C 15.176 15.179 15.053 14.898 15 14.6 C 14.97 14.401 14.97 14.199 15 14 C 15.103 13.301 15.514 12.684 16.12 12.32 C 16.488 12.088 16.894 11.922 17.32 11.83 C 17.764 11.742 18.218 11.709 18.67 11.73 C 19.21 11.765 19.742 11.876 20.25 12.06 L 20.25 12.06 C 20.25 12.11 19.93 13.62 19.9 13.7 L 19.84 13.7 C 19.45 13.528 19.034 13.42 18.61 13.38 C 18.351 13.345 18.089 13.345 17.83 13.38 C 17.655 13.409 17.488 13.473 17.34 13.57 C 17.241 13.634 17.161 13.724 17.11 13.83 C 17.035 13.967 17.035 14.133 17.11 14.27 C 17.163 14.349 17.227 14.419 17.3 14.48 C 17.426 14.578 17.559 14.665 17.7 14.74 L 18.43 15.13 C 18.682 15.267 18.919 15.427 19.14 15.61 C 19.288 15.732 19.419 15.874 19.53 16.03 C 19.742 16.321 19.857 16.67 19.86 17.03 C 19.89 17.535 19.757 18.036 19.48 18.46 C 19.261 18.785 18.97 19.055 18.63 19.25 C 18.275 19.462 17.886 19.611 17.48 19.69 C 17.029 19.778 16.569 19.812 16.11 19.79 C 15.568 19.769 15.031 19.682 14.51 19.53 L 14.18 19.41 L 14.12 19.41" fill-rule="evenodd" fill="rgb(0,0,0)"/><clipPath id="_clipPath_D5irCoBm3NemMI58Mz7tqLIpFMNPhQef"><path d=" M 14.15 19.37 L 14.51 17.67 L 14.58 17.67 C 14.865 17.813 15.163 17.926 15.47 18.01 C 15.894 18.121 16.334 18.159 16.77 18.12 C 16.986 18.104 17.196 18.046 17.39 17.95 C 17.475 17.906 17.553 17.848 17.62 17.78 C 17.833 17.556 17.833 17.204 17.62 16.98 C 17.554 16.906 17.48 16.839 17.4 16.78 C 17.198 16.647 16.987 16.526 16.77 16.42 C 16.503 16.3 16.245 16.16 16 16 C 15.76 15.839 15.544 15.643 15.36 15.42 C 15.176 15.179 15.053 14.898 15 14.6 C 14.97 14.401 14.97 14.199 15 14 C 15.103 13.301 15.514 12.684 16.12 12.32 C 16.488 12.088 16.894 11.922 17.32 11.83 C 17.764 11.742 18.218 11.709 18.67 11.73 C 19.21 11.765 19.742 11.876 20.25 12.06 L 20.25 12.06 C 20.25 12.11 19.93 13.62 19.9 13.7 L 19.84 13.7 C 19.45 13.528 19.034 13.42 18.61 13.38 C 18.351 13.345 18.089 13.345 17.83 13.38 C 17.655 13.409 17.488 13.473 17.34 13.57 C 17.241 13.634 17.161 13.724 17.11 13.83 C 17.035 13.967 17.035 14.133 17.11 14.27 C 17.163 14.349 17.227 14.419 17.3 14.48 C 17.426 14.578 17.559 14.665 17.7 14.74 L 18.43 15.13 C 18.682 15.267 18.919 15.427 19.14 15.61 C 19.288 15.732 19.419 15.874 19.53 16.03 C 19.742 16.321 19.857 16.67 19.86 17.03 C 19.89 17.535 19.757 18.036 19.48 18.46 C 19.261 18.785 18.97 19.055 18.63 19.25 C 18.275 19.462 17.886 19.611 17.48 19.69 C 17.029 19.778 16.569 19.812 16.11 19.79 C 15.568 19.769 15.031 19.682 14.51 19.53 L 14.18 19.41 L 14.12 19.41" fill="rgb(255,255,255)"/></clipPath><g clip-path="url(#_clipPath_D5irCoBm3NemMI58Mz7tqLIpFMNPhQef)"><g><rect x="-293.73" y="-1431.43" width="458.1" height="1470.1" transform="matrix(1,0,0,1,0,0)" fill="rgb(0,0,0)"/><clipPath id="_clipPath_oXhkxXgaoTCbdXBkIk5KgKwB5F0HPpoX"><rect x="-293.73" y="-1431.43" width="458.1" height="1470.1" transform="matrix(1,0,0,1,0,0)" fill="rgb(255,255,255)"/></clipPath><g clip-path="url(#_clipPath_oXhkxXgaoTCbdXBkIk5KgKwB5F0HPpoX)"><g><rect x="12.76" y="10.35" width="8.88" height="10.83" transform="matrix(1,0,0,1,0,0)" fill="rgb(255,255,255)"/></g></g></g></g><path d=" M 14.15 11.75 C 13.6 14.34 13.06 16.92 12.51 19.51 L 10.51 19.51 C 11.05 16.92 11.6 14.33 12.14 11.75 C 12.19 11.75 14.03 11.75 14.14 11.75" fill-rule="evenodd" fill="rgb(0,0,0)"/><clipPath id="_clipPath_2e5fS2IB9hma3qeC1X7UtZIvZdeVtz9I"><path d=" M 14.15 11.75 C 13.6 14.34 13.06 16.92 12.51 19.51 L 10.51 19.51 C 11.05 16.92 11.6 14.33 12.14 11.75 C 12.19 11.75 14.03 11.75 14.14 11.75" fill="rgb(255,255,255)"/></clipPath><g clip-path="url(#_clipPath_2e5fS2IB9hma3qeC1X7UtZIvZdeVtz9I)"><g><rect x="-293.73" y="-1431.43" width="458.1" height="1470.1" transform="matrix(1,0,0,1,0,0)" fill="rgb(0,0,0)"/><clipPath id="_clipPath_HOlI3ZYe3oqjUrUA47p5ZAr9XVE5SRsw"><rect x="-293.73" y="-1431.43" width="458.1" height="1470.1" transform="matrix(1,0,0,1,0,0)" fill="rgb(255,255,255)"/></clipPath><g clip-path="url(#_clipPath_HOlI3ZYe3oqjUrUA47p5ZAr9XVE5SRsw)"><g><rect x="9.15" y="10.35" width="6.39" height="10.55" transform="matrix(1,0,0,1,0,0)" fill="rgb(255,255,255)"/></g></g></g></g></g></svg>