<svg xmlns="http://www.w3.org/2000/svg" width="18.357" height="18.357" viewBox="0 0 18.357 18.357"><defs><style>.a{fill:#12b3ab;}.b{fill:#fafafa;}</style></defs><path class="a" d="M9.181,0h0A9.173,9.173,0,0,0,1.747,14.558L.6,17.968,4.132,16.84A9.177,9.177,0,1,0,9.181,0Z" transform="translate(0)"/><path class="b" d="M120.929,128.305a3.315,3.315,0,0,1-2.306,1.658c-.614.131-1.416.235-4.115-.884a14.718,14.718,0,0,1-5.849-5.166,6.71,6.71,0,0,1-1.4-3.544,3.751,3.751,0,0,1,1.2-2.859,1.707,1.707,0,0,1,1.2-.421c.145,0,.276.007.394.013.345.015.518.035.746.58.283.683.974,2.369,1.056,2.542a.7.7,0,0,1,.05.636,2.03,2.03,0,0,1-.38.539c-.173.2-.338.352-.511.567-.159.187-.338.386-.138.731a10.428,10.428,0,0,0,1.906,2.369,8.637,8.637,0,0,0,2.755,1.7.743.743,0,0,0,.828-.131,14.213,14.213,0,0,0,.918-1.216.656.656,0,0,1,.843-.256c.317.11,2,.94,2.341,1.112s.573.256.656.4A2.926,2.926,0,0,1,120.929,128.305Z" transform="translate(-104.982 -114.334)"/></svg>