<svg xmlns="http://www.w3.org/2000/svg" width="55.708" height="62.5" viewBox="0 0 55.708 62.5">
  <g id="Layer_1" data-name="Layer 1" transform="translate(0 0.001)">
    <g id="Group_1700" data-name="Group 1700" transform="translate(0 -0.001)">
      <path id="Path_1082" data-name="Path 1082" d="M52.758,13.466,30.8.79a5.9,5.9,0,0,0-5.9,0L2.949,13.466A5.9,5.9,0,0,0,0,18.575V43.927a5.9,5.9,0,0,0,2.949,5.108L24.905,61.71a5.9,5.9,0,0,0,5.9,0L52.759,49.034a5.9,5.9,0,0,0,2.949-5.108V18.575a5.9,5.9,0,0,0-2.949-5.108Z" transform="translate(0 0)" fill="#e3ab78"/>
      <g id="Group_1699" data-name="Group 1699" transform="translate(16.492 27.516)">
        <path id="Path_1083" data-name="Path 1083" d="M14.17,30.2a1.04,1.04,0,0,0,.113.508.92.92,0,0,0,.287.324,1.112,1.112,0,0,0,.4.168,2.175,2.175,0,0,0,.456.048h1.593a1.161,1.161,0,0,0,.636-.124.367.367,0,0,0,.172-.308.335.335,0,0,0-.132-.24,2.542,2.542,0,0,0-.336-.252c-.136-.087-.282-.182-.436-.283a2.905,2.905,0,0,1-.436-.349,1.767,1.767,0,0,1-.336-.44,1.166,1.166,0,0,1-.132-.564,1.314,1.314,0,0,1,.429-.98,1.487,1.487,0,0,1,.491-.3,1.84,1.84,0,0,1,.649-.108,1.919,1.919,0,0,1,.884.172,1.822,1.822,0,0,1,.564.451q.048.056-.024.113l-.431.423a.074.074,0,0,1-.113-.008,1.318,1.318,0,0,0-.36-.26,1.092,1.092,0,0,0-.472-.091.821.821,0,0,0-.483.148.5.5,0,0,0-.213.436.533.533,0,0,0,.136.352,2.041,2.041,0,0,0,.341.312q.2.152.44.312A4.4,4.4,0,0,1,18.3,30a1.852,1.852,0,0,1,.34.391.881.881,0,0,1,.136.484,1.2,1.2,0,0,1-.087.456.988.988,0,0,1-.281.38,1.363,1.363,0,0,1-.5.256,2.552,2.552,0,0,1-.728.091H15.316a2.184,2.184,0,0,1-1.55-.48,1.71,1.71,0,0,1-.508-1.3,2.873,2.873,0,0,1,.136-.864,3.08,3.08,0,0,1,.336-.744c.026-.049.066-.053.12-.017l.648.256c.026.011.042.025.044.044a.089.089,0,0,1-.012.06,4,4,0,0,0-.244.524,1.808,1.808,0,0,0-.117.66Zm1.057,3.234a.072.072,0,0,1-.08-.082v-.695a.071.071,0,0,1,.08-.081H15.9a.072.072,0,0,1,.081.081v.695a.072.072,0,0,1-.081.082h-.672Zm1.041,0a.072.072,0,0,1-.08-.082v-.695a.071.071,0,0,1,.08-.081h.672a.072.072,0,0,1,.081.081v.695a.072.072,0,0,1-.081.082Z" transform="translate(-13.258 -26.067)" fill="#9b7456"/>
        <path id="Path_1084" data-name="Path 1084" d="M21.736,27.5a.071.071,0,0,1,.079-.081h.738a.071.071,0,0,1,.08.08v1.947a.421.421,0,0,0,.18.367.825.825,0,0,0,.483.127h.137a.309.309,0,0,1,.24.089.446.446,0,0,1,.08.3.507.507,0,0,1-.076.323.306.306,0,0,1-.244.089,1.991,1.991,0,0,1-.469-.049.6.6,0,0,1-.331-.218v.152a3.525,3.525,0,0,1-.072.757,1.4,1.4,0,0,1-.234.541.99.99,0,0,1-.433.324,1.817,1.817,0,0,1-.671.108h-.3a.071.071,0,0,1-.08-.08v-.64a.071.071,0,0,1,.08-.081H21.1a.674.674,0,0,0,.359-.08.458.458,0,0,0,.188-.236,1.267,1.267,0,0,0,.072-.376q.013-.221.013-.509V27.494Zm.072-.881a.071.071,0,0,1-.081-.081V25.84a.071.071,0,0,1,.081-.081h.768a.071.071,0,0,1,.08.081v.695a.071.071,0,0,1-.08.081Z" transform="translate(-14.773 -25.759)" fill="#9b7456"/>
        <path id="Path_1085" data-name="Path 1085" d="M24.017,31.78a.255.255,0,0,1-.22-.081.54.54,0,0,1-.06-.3.675.675,0,0,1,.056-.331.246.246,0,0,1,.224-.089h.96a.309.309,0,0,1,.24.089.463.463,0,0,1,.08.307.485.485,0,0,1-.076.327.335.335,0,0,1-.244.077Z" transform="translate(-15.35 -26.801)" fill="#9b7456"/>
        <path id="Path_1086" data-name="Path 1086" d="M25.218,31.78A.255.255,0,0,1,25,31.7a.54.54,0,0,1-.06-.3.675.675,0,0,1,.056-.331.246.246,0,0,1,.224-.089h.96a.309.309,0,0,1,.24.089.463.463,0,0,1,.08.307.485.485,0,0,1-.076.327.335.335,0,0,1-.244.077Z" transform="translate(-15.589 -26.801)" fill="#9b7456"/>
        <path id="Path_1087" data-name="Path 1087" d="M26.457,30.739a.421.421,0,0,1-.24-.056.266.266,0,0,1-.08-.227.809.809,0,0,1,.076-.359.253.253,0,0,1,.244-.158h.392a.4.4,0,0,0,.292-.091.469.469,0,0,0,.092-.331V27.5a.07.07,0,0,1,.079-.08h.738a.071.071,0,0,1,.08.081v2.233a1.139,1.139,0,0,1-.215.764.912.912,0,0,1-.715.244h-.745Zm.849-4.122a.072.072,0,0,1-.081-.081v-.695a.072.072,0,0,1,.081-.081h.768a.071.071,0,0,1,.08.081v.695a.071.071,0,0,1-.08.081Z" transform="translate(-15.829 -25.759)" fill="#9b7456"/>
        <path id="Path_1088" data-name="Path 1088" d="M31.215,31.116a2.431,2.431,0,0,1-.669-.084,1.13,1.13,0,0,1-.491-.28,1.292,1.292,0,0,1-.309-.508,2.74,2.74,0,0,1,.025-1.6,1.522,1.522,0,0,1,.36-.568,1.389,1.389,0,0,1,.526-.32,1.953,1.953,0,0,1,.626-.1,2.163,2.163,0,0,1,.661.1,1.311,1.311,0,0,1,.518.3,1.4,1.4,0,0,1,.337.544,2.47,2.47,0,0,1,.12.824v1.873a1.41,1.41,0,0,1-.38,1.1,1.584,1.584,0,0,1-1.1.344H30.356a.071.071,0,0,1-.081-.08v-.64a.072.072,0,0,1,.081-.081h.936a1.554,1.554,0,0,0,.3-.027.475.475,0,0,0,.232-.117.568.568,0,0,0,.148-.248,1.4,1.4,0,0,0,.052-.424h-.808Zm.072-2.665a.663.663,0,0,0-.568.271,1.191,1.191,0,0,0-.2.725.9.9,0,0,0,.2.685.854.854,0,0,0,.587.183h.713v-.908a1.2,1.2,0,0,0-.177-.714.645.645,0,0,0-.559-.243Z" transform="translate(-16.527 -26.136)" fill="#9b7456"/>
        <path id="Path_1089" data-name="Path 1089" d="M35.245,27.91a.071.071,0,0,1,.08-.081h.738a.071.071,0,0,1,.079.08v1.947a.423.423,0,0,0,.18.367.825.825,0,0,0,.484.127h.136a.308.308,0,0,1,.24.089.441.441,0,0,1,.081.3.507.507,0,0,1-.077.323.306.306,0,0,1-.244.089,1.984,1.984,0,0,1-.468-.049.6.6,0,0,1-.332-.218v.152a3.58,3.58,0,0,1-.071.757,1.39,1.39,0,0,1-.235.541.986.986,0,0,1-.433.324,1.812,1.812,0,0,1-.67.108h-.3a.071.071,0,0,1-.081-.08v-.64a.072.072,0,0,1,.081-.081h.176a.677.677,0,0,0,.36-.08.469.469,0,0,0,.188-.236,1.242,1.242,0,0,0,.072-.376q.012-.221.012-.509V27.907Z" transform="translate(-17.469 -26.172)" fill="#9b7456"/>
        <path id="Path_1090" data-name="Path 1090" d="M37.517,31.152a.419.419,0,0,1-.24-.056.266.266,0,0,1-.08-.227.809.809,0,0,1,.076-.359.253.253,0,0,1,.244-.158h.392a.4.4,0,0,0,.292-.091.469.469,0,0,0,.092-.331V27.911a.07.07,0,0,1,.079-.08h.738a.071.071,0,0,1,.079.081v2.233a1.135,1.135,0,0,1-.215.764.909.909,0,0,1-.714.244h-.745Zm.7,1.521a.072.072,0,0,1-.08-.082V31.9a.071.071,0,0,1,.08-.081h.768a.071.071,0,0,1,.081.081v.695a.072.072,0,0,1-.081.082Z" transform="translate(-18.036 -26.173)" fill="#9b7456"/>
      </g>
      <path id="Path_1091" data-name="Path 1091" d="M49.976,16.43,31.812,5.927a6.145,6.145,0,0,0-6.152,0L7.495,16.43a6.162,6.162,0,0,0-3.077,5.335V42.771a6.162,6.162,0,0,0,3.077,5.335l18.165,10.5a6.145,6.145,0,0,0,6.152,0l18.165-10.5a6.162,6.162,0,0,0,3.077-5.335V21.765a6.162,6.162,0,0,0-3.077-5.335Z" transform="translate(-0.882 -1.018)" fill="none" stroke="#ba8a64" stroke-width="2.818"/>
      <path id="Path_1092" data-name="Path 1092" d="M40.878,18.21,27.424,10.442" transform="translate(3.561 0.74)" fill="none" stroke="#f7c297" stroke-linecap="round" stroke-width="1" opacity="0.7" style="mix-blend-mode: normal;isolation: isolate"/>
      <path id="Path_1093" data-name="Path 1093" d="M23.529,48.26,10.075,40.492" transform="translate(1.308 2.869)" fill="none" stroke="#f7c297" stroke-linecap="round" stroke-width="1" opacity="0.7" style="mix-blend-mode: normal;isolation: isolate"/>
    </g>
  </g>
</svg>
