<svg xmlns="http://www.w3.org/2000/svg" width="55.708" height="62.5" viewBox="0 0 55.708 62.5">
  <g id="Layer_1" data-name="Layer 1" transform="translate(0 0)">
    <g id="Group_1694" data-name="Group 1694" transform="translate(0 0)">
      <path id="Path_1053" data-name="Path 1053" d="M52.758,13.466,30.8.79a5.9,5.9,0,0,0-5.9,0L2.949,13.466A5.9,5.9,0,0,0,0,18.575V43.927a5.9,5.9,0,0,0,2.949,5.108L24.905,61.71a5.9,5.9,0,0,0,5.9,0L52.759,49.034a5.9,5.9,0,0,0,2.949-5.108V18.575a5.9,5.9,0,0,0-2.949-5.108Z" transform="translate(0 0)" fill="#b8e8e6"/>
      <g id="Group_1693" data-name="Group 1693" transform="translate(18.324 27.082)">
        <path id="Path_1054" data-name="Path 1054" d="M19.038,32.324a1.263,1.263,0,0,0,.656-.12.362.362,0,0,0,.176-.306.394.394,0,0,0-.091-.262.937.937,0,0,0-.288-.21,4.54,4.54,0,0,0-.5-.209c-.2-.073-.436-.159-.708-.262a.067.067,0,0,1-.049-.1l.217-.633c.016-.053.048-.072.1-.056q.256.1.487.2c.154.067.307.126.456.177s.3.093.439.127a1.856,1.856,0,0,0,.445.052h.8a.322.322,0,0,1,.24.082.411.411,0,0,1,.081.291.545.545,0,0,1-.077.331.291.291,0,0,1-.244.1h-.551a1.343,1.343,0,0,1,.09.2.857.857,0,0,1,.051.3,1.045,1.045,0,0,1-.087.424.929.929,0,0,1-.276.351,1.433,1.433,0,0,1-.487.245,2.537,2.537,0,0,1-.731.091H17.363a2.176,2.176,0,0,1-1.546-.48,1.71,1.71,0,0,1-.507-1.3,2.359,2.359,0,0,1,.044-.452,3.29,3.29,0,0,1,.116-.44,3.632,3.632,0,0,1,.164-.4,2.3,2.3,0,0,1,.2-.332c.026-.042.064-.048.113-.016l.632.328a.067.067,0,0,1,.023.1,3.382,3.382,0,0,0-.251.519,1.651,1.651,0,0,0-.117.609,1.055,1.055,0,0,0,.108.5.9.9,0,0,0,.284.319,1.148,1.148,0,0,0,.4.172,1.985,1.985,0,0,0,.456.052h1.56Zm-1.792,2.225a.072.072,0,0,1-.081-.082v-.695a.071.071,0,0,1,.081-.081h.672a.071.071,0,0,1,.08.081v.695a.072.072,0,0,1-.08.082Zm1.041,0a.072.072,0,0,1-.081-.082v-.695a.072.072,0,0,1,.081-.081h.672a.071.071,0,0,1,.08.081v.695a.072.072,0,0,1-.08.082Z" transform="translate(-15.309 -26.081)" fill="#12b2aa"/>
        <path id="Path_1055" data-name="Path 1055" d="M24.483,29.855q0,.5.581.5a1.561,1.561,0,0,0,.283-.02.314.314,0,0,0,.165-.08.32.32,0,0,0,.081-.18,2.076,2.076,0,0,0,.02-.328V28.534a.071.071,0,0,1,.079-.081h.738a.071.071,0,0,1,.08.081v1.313a.459.459,0,0,0,.153.38.631.631,0,0,0,.411.124,1.348,1.348,0,0,0,.307-.028.254.254,0,0,0,.165-.112.555.555,0,0,0,.069-.235,3.909,3.909,0,0,0,.016-.407v-1.66a.071.071,0,0,1,.08-.08h.738a.071.071,0,0,1,.079.081v2.233a1.086,1.086,0,0,1-.227.78,1.069,1.069,0,0,1-.772.228h-.344a.965.965,0,0,1-.476-.11.723.723,0,0,1-.3-.311.646.646,0,0,1-.324.327,1.456,1.456,0,0,1-.572.093h-.352a.784.784,0,0,1-.776-.428.665.665,0,0,1-.321.331,1.4,1.4,0,0,1-.576.1h-.912a.334.334,0,0,1-.24-.077.394.394,0,0,1-.081-.287.571.571,0,0,1,.076-.34.291.291,0,0,1,.245-.1h.64c.165,0,.27-.044.312-.132a1.207,1.207,0,0,0,.064-.476V28.533a.071.071,0,0,1,.08-.081h.738a.071.071,0,0,1,.079.081v1.32Z" transform="translate(-16.695 -25.709)" fill="#12b2aa"/>
        <path id="Path_1056" data-name="Path 1056" d="M31.359,25.26a.071.071,0,0,1,.079-.08h.738a.071.071,0,0,1,.08.08V29.4a.47.47,0,0,0,.091.332.4.4,0,0,0,.292.091h.281a.3.3,0,0,1,.24.093.492.492,0,0,1,.08.319c0,.166-.025.274-.076.319a.355.355,0,0,1-.244.069h-.632a.909.909,0,0,1-.715-.244,1.135,1.135,0,0,1-.215-.764V25.259Z" transform="translate(-18.513 -25.18)" fill="#12b2aa"/>
        <path id="Path_1057" data-name="Path 1057" d="M35.693,31.172a2.226,2.226,0,0,1-.721-.11,1.214,1.214,0,0,1-.537-.359.743.743,0,0,1-.194.211,1.006,1.006,0,0,1-.234.126,1.108,1.108,0,0,1-.249.06,1.837,1.837,0,0,1-.24.017h-.28a.3.3,0,0,1-.24-.093.665.665,0,0,1,0-.627.324.324,0,0,1,.245-.082h.312a.465.465,0,0,0,.176-.036.416.416,0,0,0,.16-.119.66.66,0,0,0,.12-.223,1.079,1.079,0,0,0,.048-.347.922.922,0,0,1-.008-.119V29.35a2.324,2.324,0,0,1,.132-.786,1.38,1.38,0,0,1,.346-.527,1.333,1.333,0,0,1,.517-.295,2.321,2.321,0,0,1,1.308,0,1.338,1.338,0,0,1,.525.3,1.391,1.391,0,0,1,.346.552,2.449,2.449,0,0,1,.124.832,2.341,2.341,0,0,1-.12.8,1.394,1.394,0,0,1-.337.536,1.3,1.3,0,0,1-.52.3,2.233,2.233,0,0,1-.674.1Zm0-2.721a.659.659,0,0,0-.565.247,1.2,1.2,0,0,0-.183.717,1.157,1.157,0,0,0,.183.733.686.686,0,0,0,.565.223.7.7,0,0,0,.574-.227,1.16,1.16,0,0,0,.183-.729q0-.965-.756-.964Z" transform="translate(-18.823 -25.673)" fill="#12b2aa"/>
      </g>
      <path id="Path_1058" data-name="Path 1058" d="M49.976,16.43,31.812,5.927a6.145,6.145,0,0,0-6.152,0L7.495,16.43a6.162,6.162,0,0,0-3.077,5.335V42.771a6.162,6.162,0,0,0,3.077,5.335l18.165,10.5a6.145,6.145,0,0,0,6.152,0l18.165-10.5a6.162,6.162,0,0,0,3.077-5.335V21.765a6.162,6.162,0,0,0-3.077-5.335Z" transform="translate(-0.882 -1.018)" fill="none" stroke="#89d9d5" stroke-width="2.818"/>
      <path id="Path_1059" data-name="Path 1059" d="M40.878,18.21,27.424,10.442" transform="translate(3.561 0.74)" fill="none" stroke="#e7f7f7" stroke-linecap="round" stroke-width="1" opacity="0.7" style="mix-blend-mode: normal;isolation: isolate"/>
      <path id="Path_1060" data-name="Path 1060" d="M23.529,48.26,10.075,40.492" transform="translate(1.308 2.869)" fill="none" stroke="#e7f7f7" stroke-linecap="round" stroke-width="1" opacity="0.7" style="mix-blend-mode: normal;isolation: isolate"/>
    </g>
  </g>
</svg>
