<svg xmlns="http://www.w3.org/2000/svg" width="55.708" height="62.5" viewBox="0 0 55.708 62.5">
  <g id="Layer_1" data-name="Layer 1" transform="translate(0 0)">
    <g id="Group_1696" data-name="Group 1696" transform="translate(0 0)">
      <path id="Path_1061" data-name="Path 1061" d="M52.758,13.466,30.8.79a5.9,5.9,0,0,0-5.9,0L2.949,13.466A5.9,5.9,0,0,0,0,18.575V43.927a5.9,5.9,0,0,0,2.949,5.108L24.905,61.71a5.9,5.9,0,0,0,5.9,0L52.759,49.034a5.9,5.9,0,0,0,2.949-5.108V18.575a5.9,5.9,0,0,0-2.949-5.108Z" transform="translate(0 0)" fill="#ffd37b"/>
      <g id="Group_1695" data-name="Group 1695" transform="translate(17.424 27.624)">
        <path id="Path_1062" data-name="Path 1062" d="M18.037,32.323a1.263,1.263,0,0,0,.656-.12.362.362,0,0,0,.176-.306.394.394,0,0,0-.091-.262.937.937,0,0,0-.288-.21,4.54,4.54,0,0,0-.5-.209c-.2-.073-.436-.159-.708-.262a.067.067,0,0,1-.049-.1l.217-.633c.016-.053.048-.072.1-.056q.256.1.487.2c.154.067.307.126.456.177s.3.093.439.127a1.856,1.856,0,0,0,.445.052h.8a.322.322,0,0,1,.24.082.411.411,0,0,1,.081.291.545.545,0,0,1-.077.331.291.291,0,0,1-.244.1h-.551a1.344,1.344,0,0,1,.09.2.857.857,0,0,1,.051.3,1.045,1.045,0,0,1-.087.424.929.929,0,0,1-.276.351,1.433,1.433,0,0,1-.487.245,2.537,2.537,0,0,1-.731.091H16.362a2.176,2.176,0,0,1-1.546-.48,1.71,1.71,0,0,1-.507-1.3,2.358,2.358,0,0,1,.044-.452,3.289,3.289,0,0,1,.116-.44,3.631,3.631,0,0,1,.164-.4,2.3,2.3,0,0,1,.2-.332c.026-.042.064-.048.113-.016l.632.328a.067.067,0,0,1,.023.1,3.382,3.382,0,0,0-.251.519,1.651,1.651,0,0,0-.117.609,1.055,1.055,0,0,0,.108.5.9.9,0,0,0,.284.319,1.147,1.147,0,0,0,.4.172,1.985,1.985,0,0,0,.456.052h1.56Zm-1.792,2.225a.072.072,0,0,1-.081-.082v-.695a.071.071,0,0,1,.081-.081h.672a.071.071,0,0,1,.08.081v.695a.072.072,0,0,1-.08.082Zm1.041,0a.072.072,0,0,1-.081-.082v-.695a.072.072,0,0,1,.081-.081h.672a.071.071,0,0,1,.08.081v.695a.072.072,0,0,1-.08.082Z" transform="translate(-14.308 -26.544)" fill="#9d834c"/>
        <path id="Path_1063" data-name="Path 1063" d="M21.578,31.779a.255.255,0,0,1-.22-.081.54.54,0,0,1-.06-.3.675.675,0,0,1,.056-.331.246.246,0,0,1,.224-.089h.96a.309.309,0,0,1,.24.089.463.463,0,0,1,.08.307.485.485,0,0,1-.076.327.335.335,0,0,1-.244.077Z" transform="translate(-15.703 -26.801)" fill="#9d834c"/>
        <path id="Path_1064" data-name="Path 1064" d="M22.778,31.779a.255.255,0,0,1-.22-.081.54.54,0,0,1-.06-.3.675.675,0,0,1,.056-.331.246.246,0,0,1,.224-.089h.96a.309.309,0,0,1,.24.089.463.463,0,0,1,.08.307.485.485,0,0,1-.076.327.335.335,0,0,1-.244.077Z" transform="translate(-15.943 -26.801)" fill="#9d834c"/>
        <path id="Path_1065" data-name="Path 1065" d="M23.977,31.779a.255.255,0,0,1-.219-.081.525.525,0,0,1-.06-.3.675.675,0,0,1,.056-.331.244.244,0,0,1,.223-.089h.96a.307.307,0,0,1,.24.089.458.458,0,0,1,.081.307.484.484,0,0,1-.077.327.335.335,0,0,1-.244.077Z" transform="translate(-16.182 -26.801)" fill="#9d834c"/>
        <path id="Path_1066" data-name="Path 1066" d="M26.891,29.855a.421.421,0,0,0,.18.367.826.826,0,0,0,.484.127h.136a.309.309,0,0,1,.24.089.446.446,0,0,1,.08.3.507.507,0,0,1-.076.323.306.306,0,0,1-.244.089,1.739,1.739,0,0,1-.545-.077.641.641,0,0,1-.367-.336.619.619,0,0,1-.33.323,1.637,1.637,0,0,1-.6.089h-.632a.444.444,0,0,1-.24-.052c-.053-.035-.08-.112-.08-.231a.809.809,0,0,1,.076-.359.26.26,0,0,1,.252-.158h.383a.5.5,0,0,0,.217-.04.245.245,0,0,0,.116-.127.715.715,0,0,0,.044-.231c.006-.1.009-.214.009-.351V27.908a.07.07,0,0,1,.079-.08h.738a.071.071,0,0,1,.08.08v1.947Zm-.824,2.817a.072.072,0,0,1-.081-.082V31.9a.072.072,0,0,1,.081-.081h.768a.071.071,0,0,1,.08.081v.695a.072.072,0,0,1-.08.082Z" transform="translate(-16.422 -26.172)" fill="#9d834c"/>
        <path id="Path_1067" data-name="Path 1067" d="M28.268,31.063a.3.3,0,0,1-.24-.093.46.46,0,0,1-.081-.3.49.49,0,0,1,.076-.319.312.312,0,0,1,.245-.085h.888a1.306,1.306,0,0,1-.112-.557,1.392,1.392,0,0,1,.092-.534.984.984,0,0,1,.251-.367,1.013,1.013,0,0,1,.368-.211,1.405,1.405,0,0,1,.441-.068,1.234,1.234,0,0,1,.836.287,1.118,1.118,0,0,1,.332.892,2.243,2.243,0,0,1-.02.279,1.651,1.651,0,0,1-.06.279.944.944,0,0,0,.328-.048.426.426,0,0,0,.2-.148.571.571,0,0,0,.1-.255,2.412,2.412,0,0,0,.024-.363,1.306,1.306,0,0,0-.336-.941,1.37,1.37,0,0,0-1.033-.351,3.1,3.1,0,0,0-.573.056,2.678,2.678,0,0,0-.6.191.152.152,0,0,1-.08.032c-.026,0-.043-.01-.048-.032l-.192-.487a.244.244,0,0,1-.017-.072.071.071,0,0,1,.04-.064,3.478,3.478,0,0,1,1.633-.392,2.61,2.61,0,0,1,1.049.183,1.784,1.784,0,0,1,.66.477,1.686,1.686,0,0,1,.34.656,2.862,2.862,0,0,1,.1.732,3.379,3.379,0,0,1-.072.756,1.179,1.179,0,0,1-.236.5.946.946,0,0,1-.428.28,2.03,2.03,0,0,1-.641.088H28.266Zm1.929-1.9a.433.433,0,0,0-.349.147.625.625,0,0,0-.124.417.618.618,0,0,0,.113.409.436.436,0,0,0,.312.147h.088a.416.416,0,0,0,.312-.147.83.83,0,0,0-.012-.826A.409.409,0,0,0,30.2,29.158Z" transform="translate(-17.03 -26.085)" fill="#9d834c"/>
        <path id="Path_1068" data-name="Path 1068" d="M38.222,29.369a2.534,2.534,0,0,1-.071.66,1.023,1.023,0,0,1-.215.419.747.747,0,0,1-.365.224,1.894,1.894,0,0,1-.526.064H35.188a.071.071,0,0,1-.08-.081v-.64a.071.071,0,0,1,.08-.081h1.489a1.506,1.506,0,0,0,.344-.032.344.344,0,0,0,.284-.3,1.9,1.9,0,0,0,.019-.295v-.535q0-.7-.816-.7h-.96a.071.071,0,0,1-.08-.08v-.641a.071.071,0,0,1,.08-.08h1.281a1.441,1.441,0,0,1,1.017.349,1.41,1.41,0,0,1,.377,1.084v.664Zm-2.137-2.753a.071.071,0,0,1-.08-.081V25.84a.071.071,0,0,1,.08-.081h.768a.071.071,0,0,1,.08.081v.695a.071.071,0,0,1-.08.081Z" transform="translate(-18.46 -25.759)" fill="#9d834c"/>
      </g>
      <path id="Path_1069" data-name="Path 1069" d="M49.976,16.43,31.812,5.927a6.145,6.145,0,0,0-6.152,0L7.495,16.43a6.162,6.162,0,0,0-3.077,5.335V42.771a6.162,6.162,0,0,0,3.077,5.335l18.165,10.5a6.145,6.145,0,0,0,6.152,0l18.165-10.5a6.162,6.162,0,0,0,3.077-5.335V21.765a6.162,6.162,0,0,0-3.077-5.335Z" transform="translate(-0.882 -1.018)" fill="none" stroke="#e8c376" stroke-width="2.818"/>
      <path id="Path_1070" data-name="Path 1070" d="M40.878,18.21,27.424,10.442" transform="translate(3.561 0.74)" fill="none" stroke="#ffdf97" stroke-linecap="round" stroke-width="1" opacity="0.7" style="mix-blend-mode: normal;isolation: isolate"/>
      <path id="Path_1071" data-name="Path 1071" d="M23.529,48.26,10.075,40.492" transform="translate(1.308 2.869)" fill="none" stroke="#ffdf97" stroke-linecap="round" stroke-width="1" opacity="0.7" style="mix-blend-mode: normal;isolation: isolate"/>
    </g>
  </g>
</svg>
