<svg xmlns="http://www.w3.org/2000/svg" width="69.6" height="78.085" viewBox="0 0 69.6 78.085">
  <g id="Layer_1" data-name="Layer 1" transform="translate(0 0)">
    <g id="Group_1700" data-name="Group 1700" transform="translate(0 0)">
      <path id="Path_1082" data-name="Path 1082" d="M65.914,16.824,38.484.987a7.37,7.37,0,0,0-7.369,0L3.685,16.824A7.369,7.369,0,0,0,0,23.206V54.881a7.368,7.368,0,0,0,3.685,6.381L31.116,77.1a7.37,7.37,0,0,0,7.369,0L65.915,61.262A7.368,7.368,0,0,0,69.6,54.881V23.206a7.368,7.368,0,0,0-3.685-6.381Z" transform="translate(0 0)" fill="#e3ab78"/>
      <g id="Group_1699" data-name="Group 1699" transform="translate(20.605 34.377)">
        <path id="Path_1083" data-name="Path 1083" d="M14.4,30.92a1.3,1.3,0,0,0,.141.635,1.15,1.15,0,0,0,.359.405,1.39,1.39,0,0,0,.5.21,2.717,2.717,0,0,0,.57.06h1.99a1.451,1.451,0,0,0,.8-.155.458.458,0,0,0,.215-.385.418.418,0,0,0-.165-.3,3.177,3.177,0,0,0-.42-.315c-.17-.109-.352-.228-.545-.354a3.631,3.631,0,0,1-.545-.436,2.208,2.208,0,0,1-.42-.55,1.457,1.457,0,0,1-.165-.7,1.641,1.641,0,0,1,.536-1.225,1.858,1.858,0,0,1,.614-.37,2.3,2.3,0,0,1,.811-.135,2.4,2.4,0,0,1,1.1.215,2.276,2.276,0,0,1,.7.564q.06.071-.03.141l-.539.529a.092.092,0,0,1-.141-.01,1.646,1.646,0,0,0-.45-.325,1.364,1.364,0,0,0-.59-.114,1.026,1.026,0,0,0-.6.185.623.623,0,0,0-.266.545.665.665,0,0,0,.17.44,2.549,2.549,0,0,0,.426.39q.255.191.55.39a5.5,5.5,0,0,1,.55.426,2.314,2.314,0,0,1,.425.489,1.1,1.1,0,0,1,.17.6,1.5,1.5,0,0,1-.109.57,1.235,1.235,0,0,1-.351.475,1.7,1.7,0,0,1-.62.32,3.189,3.189,0,0,1-.909.114h-2.33a2.728,2.728,0,0,1-1.936-.6,2.136,2.136,0,0,1-.635-1.63,3.59,3.59,0,0,1,.17-1.08,3.848,3.848,0,0,1,.42-.93c.033-.061.083-.066.15-.021l.81.32c.033.014.052.031.055.055a.111.111,0,0,1-.015.075,5,5,0,0,0-.305.655,2.259,2.259,0,0,0-.146.825Zm1.32,4.04a.09.09,0,0,1-.1-.1V33.99a.089.089,0,0,1,.1-.1h.84a.09.09,0,0,1,.1.1v.868a.09.09,0,0,1-.1.1h-.84Zm1.3,0a.09.09,0,0,1-.1-.1V33.99a.089.089,0,0,1,.1-.1h.84a.09.09,0,0,1,.1.1v.868a.09.09,0,0,1-.1.1Z" transform="translate(-13.258 -25.759)" fill="#9b7456"/>
        <path id="Path_1084" data-name="Path 1084" d="M21.958,27.93a.089.089,0,0,1,.1-.1h.922a.089.089,0,0,1,.1.1v2.433a.526.526,0,0,0,.225.459,1.031,1.031,0,0,0,.6.159h.171a.386.386,0,0,1,.3.111.557.557,0,0,1,.1.373.634.634,0,0,1-.095.4.382.382,0,0,1-.305.111,2.487,2.487,0,0,1-.586-.061.752.752,0,0,1-.414-.272v.19a4.4,4.4,0,0,1-.09.946,1.75,1.75,0,0,1-.292.676,1.237,1.237,0,0,1-.541.4,2.27,2.27,0,0,1-.838.135h-.37a.089.089,0,0,1-.1-.1v-.8a.089.089,0,0,1,.1-.1h.221a.842.842,0,0,0,.449-.1.572.572,0,0,0,.235-.295,1.583,1.583,0,0,0,.09-.47q.016-.276.016-.636V27.927Zm.09-1.1a.089.089,0,0,1-.1-.1V25.86a.089.089,0,0,1,.1-.1h.96a.089.089,0,0,1,.1.1v.868a.089.089,0,0,1-.1.1Z" transform="translate(-13.258 -25.759)" fill="#9b7456"/>
        <path id="Path_1085" data-name="Path 1085" d="M24.087,31.98a.319.319,0,0,1-.275-.1.675.675,0,0,1-.075-.374.843.843,0,0,1,.07-.414.307.307,0,0,1,.28-.111h1.2a.386.386,0,0,1,.3.111.578.578,0,0,1,.1.384.606.606,0,0,1-.095.409.419.419,0,0,1-.305.1h-1.2Z" transform="translate(-13.258 -25.759)" fill="#9b7456"/>
        <path id="Path_1086" data-name="Path 1086" d="M25.288,31.98a.319.319,0,0,1-.275-.1.675.675,0,0,1-.075-.374.843.843,0,0,1,.07-.414.307.307,0,0,1,.28-.111h1.2a.386.386,0,0,1,.3.111.578.578,0,0,1,.1.384.606.606,0,0,1-.095.409.419.419,0,0,1-.305.1h-1.2Z" transform="translate(-13.258 -25.759)" fill="#9b7456"/>
        <path id="Path_1087" data-name="Path 1087" d="M26.537,31.98a.526.526,0,0,1-.3-.07.332.332,0,0,1-.1-.283,1.011,1.011,0,0,1,.095-.449.316.316,0,0,1,.305-.2h.49a.5.5,0,0,0,.365-.114.585.585,0,0,0,.115-.414V27.931a.088.088,0,0,1,.1-.1h.922a.089.089,0,0,1,.1.1v2.79a1.424,1.424,0,0,1-.268.955,1.139,1.139,0,0,1-.893.305h-.931ZM27.6,26.83a.09.09,0,0,1-.1-.1v-.868a.09.09,0,0,1,.1-.1h.96a.089.089,0,0,1,.1.1v.868a.089.089,0,0,1-.1.1Z" transform="translate(-13.258 -25.759)" fill="#9b7456"/>
        <path id="Path_1088" data-name="Path 1088" d="M31.608,31.98a3.038,3.038,0,0,1-.836-.1,1.412,1.412,0,0,1-.614-.35,1.615,1.615,0,0,1-.386-.635,3.423,3.423,0,0,1,.031-2,1.9,1.9,0,0,1,.45-.71,1.736,1.736,0,0,1,.657-.4,2.44,2.44,0,0,1,.782-.125,2.7,2.7,0,0,1,.826.12,1.637,1.637,0,0,1,.647.38,1.753,1.753,0,0,1,.421.68,3.086,3.086,0,0,1,.15,1.03V32.2a1.762,1.762,0,0,1-.475,1.37,1.979,1.979,0,0,1-1.376.43h-1.35a.089.089,0,0,1-.1-.1v-.8a.09.09,0,0,1,.1-.1h1.17a1.941,1.941,0,0,0,.37-.034.593.593,0,0,0,.29-.146.709.709,0,0,0,.185-.31,1.748,1.748,0,0,0,.065-.53h-1.01Zm.09-3.33a.829.829,0,0,0-.71.339,1.488,1.488,0,0,0-.25.906,1.129,1.129,0,0,0,.255.856,1.067,1.067,0,0,0,.734.229h.891V29.845a1.5,1.5,0,0,0-.221-.892.805.805,0,0,0-.7-.3Z" transform="translate(-13.258 -25.759)" fill="#9b7456"/>
        <path id="Path_1089" data-name="Path 1089" d="M35.467,27.93a.089.089,0,0,1,.1-.1h.922a.088.088,0,0,1,.1.1v2.433a.529.529,0,0,0,.225.459,1.03,1.03,0,0,0,.6.159h.17a.384.384,0,0,1,.3.111.551.551,0,0,1,.1.373.633.633,0,0,1-.1.4.382.382,0,0,1-.305.111A2.479,2.479,0,0,1,37,31.918a.754.754,0,0,1-.415-.272v.19a4.473,4.473,0,0,1-.089.946,1.736,1.736,0,0,1-.293.676,1.232,1.232,0,0,1-.541.4,2.264,2.264,0,0,1-.837.135h-.37a.089.089,0,0,1-.1-.1v-.8a.09.09,0,0,1,.1-.1h.22a.846.846,0,0,0,.45-.1.586.586,0,0,0,.235-.295,1.552,1.552,0,0,0,.09-.47q.015-.276.015-.636V27.927Z" transform="translate(-13.258 -25.759)" fill="#9b7456"/>
        <path id="Path_1090" data-name="Path 1090" d="M37.6,31.98a.523.523,0,0,1-.3-.07.332.332,0,0,1-.1-.283,1.011,1.011,0,0,1,.1-.449.316.316,0,0,1,.305-.2h.49a.5.5,0,0,0,.365-.114.585.585,0,0,0,.115-.414V27.931a.088.088,0,0,1,.1-.1h.922a.089.089,0,0,1,.1.1v2.79a1.418,1.418,0,0,1-.268.955,1.135,1.135,0,0,1-.892.305H37.6Zm.88,1.9a.09.09,0,0,1-.1-.1V32.91a.089.089,0,0,1,.1-.1h.96a.089.089,0,0,1,.1.1v.868a.09.09,0,0,1-.1.1Z" transform="translate(-13.258 -25.759)" fill="#9b7456"/>
      </g>
      <path id="Path_1091" data-name="Path 1091" d="M61.337,19.255,38.643,6.132a7.678,7.678,0,0,0-7.686,0L8.262,19.255a7.7,7.7,0,0,0-3.844,6.666V52.164A7.7,7.7,0,0,0,8.262,58.83l22.7,13.122a7.678,7.678,0,0,0,7.686,0l22.7-13.122a7.7,7.7,0,0,0,3.844-6.666V25.921a7.7,7.7,0,0,0-3.844-6.666Z" transform="translate(0 0)" fill="none" stroke="#ba8a64" stroke-width="2.818"/>
      <path id="Path_1092" data-name="Path 1092" d="M44.233,20.147l-16.809-9.7" transform="translate(11.288 3.528)" fill="none" stroke="#f7c297" stroke-linecap="round" stroke-width="1" opacity="0.7" style="mix-blend-mode: normal;isolation: isolate"/>
      <path id="Path_1093" data-name="Path 1093" d="M26.884,50.2,10.075,40.492" transform="translate(4.147 13.681)" fill="none" stroke="#f7c297" stroke-linecap="round" stroke-width="1" opacity="0.7" style="mix-blend-mode: normal;isolation: isolate"/>
    </g>
  </g>
</svg>
