<svg xmlns="http://www.w3.org/2000/svg" width="69.6" height="78.085" viewBox="0 0 69.6 78.085">
  <g id="Layer_1" data-name="Layer 1" transform="translate(0 0)">
    <g id="Group_1696" data-name="Group 1696" transform="translate(0 0)">
      <path id="Path_1061" data-name="Path 1061" d="M65.914,16.824,38.484.987a7.37,7.37,0,0,0-7.369,0L3.685,16.824A7.369,7.369,0,0,0,0,23.206V54.881a7.368,7.368,0,0,0,3.685,6.381L31.116,77.1a7.37,7.37,0,0,0,7.369,0L65.915,61.262A7.368,7.368,0,0,0,69.6,54.881V23.206a7.368,7.368,0,0,0-3.685-6.381Z" transform="translate(0 0)" fill="#ffd37b"/>
      <g id="Group_1695" data-name="Group 1695" transform="translate(21.77 34.513)">
        <path id="Path_1062" data-name="Path 1062" d="M18.967,32.979a1.577,1.577,0,0,0,.82-.15.453.453,0,0,0,.22-.382.492.492,0,0,0-.114-.327,1.171,1.171,0,0,0-.36-.262,5.673,5.673,0,0,0-.62-.261c-.25-.091-.545-.2-.885-.327a.084.084,0,0,1-.061-.12l.271-.791c.02-.066.06-.09.12-.07q.319.12.609.245c.193.084.384.157.57.221s.369.116.549.159a2.319,2.319,0,0,0,.556.065h1a.4.4,0,0,1,.3.1.513.513,0,0,1,.1.363.681.681,0,0,1-.1.414.364.364,0,0,1-.305.121H20.95a1.678,1.678,0,0,1,.113.255,1.07,1.07,0,0,1,.064.375,1.306,1.306,0,0,1-.109.53,1.161,1.161,0,0,1-.345.439,1.79,1.79,0,0,1-.609.306,3.17,3.17,0,0,1-.913.114H16.874a2.719,2.719,0,0,1-1.932-.6,2.137,2.137,0,0,1-.634-1.63,2.947,2.947,0,0,1,.055-.565,4.11,4.11,0,0,1,.145-.55,4.537,4.537,0,0,1,.2-.5,2.877,2.877,0,0,1,.245-.415c.033-.053.08-.06.141-.02l.79.41a.083.083,0,0,1,.029.13,4.224,4.224,0,0,0-.314.649,2.063,2.063,0,0,0-.146.761,1.318,1.318,0,0,0,.135.63,1.126,1.126,0,0,0,.355.4,1.434,1.434,0,0,0,.5.215,2.48,2.48,0,0,0,.57.065h1.949Zm-2.239,2.78a.09.09,0,0,1-.1-.1v-.868a.089.089,0,0,1,.1-.1h.84a.089.089,0,0,1,.1.1v.868a.09.09,0,0,1-.1.1Zm1.3,0a.09.09,0,0,1-.1-.1v-.868a.09.09,0,0,1,.1-.1h.84a.089.089,0,0,1,.1.1v.868a.09.09,0,0,1-.1.1Z" transform="translate(-14.308 -25.759)" fill="#9d834c"/>
        <path id="Path_1063" data-name="Path 1063" d="M21.648,31.979a.319.319,0,0,1-.275-.1A.675.675,0,0,1,21.3,31.5a.843.843,0,0,1,.07-.414.307.307,0,0,1,.28-.111h1.2a.386.386,0,0,1,.3.111.578.578,0,0,1,.1.384.606.606,0,0,1-.095.409.419.419,0,0,1-.305.1h-1.2Z" transform="translate(-14.308 -25.759)" fill="#9d834c"/>
        <path id="Path_1064" data-name="Path 1064" d="M22.848,31.979a.319.319,0,0,1-.275-.1A.675.675,0,0,1,22.5,31.5a.843.843,0,0,1,.07-.414.307.307,0,0,1,.28-.111h1.2a.386.386,0,0,1,.3.111.578.578,0,0,1,.1.384.606.606,0,0,1-.095.409.419.419,0,0,1-.305.1h-1.2Z" transform="translate(-14.308 -25.759)" fill="#9d834c"/>
        <path id="Path_1065" data-name="Path 1065" d="M24.047,31.979a.318.318,0,0,1-.274-.1A.655.655,0,0,1,23.7,31.5a.843.843,0,0,1,.07-.414.305.305,0,0,1,.279-.111h1.2a.383.383,0,0,1,.3.111.572.572,0,0,1,.1.384.6.6,0,0,1-.1.409.419.419,0,0,1-.305.1h-1.2Z" transform="translate(-14.308 -25.759)" fill="#9d834c"/>
        <path id="Path_1066" data-name="Path 1066" d="M27.388,30.361a.526.526,0,0,0,.225.459,1.032,1.032,0,0,0,.6.159h.17a.386.386,0,0,1,.3.111.557.557,0,0,1,.1.373.634.634,0,0,1-.095.4.382.382,0,0,1-.305.111,2.173,2.173,0,0,1-.681-.1.8.8,0,0,1-.458-.42.774.774,0,0,1-.412.4,2.045,2.045,0,0,1-.75.111H25.3a.555.555,0,0,1-.3-.065c-.066-.044-.1-.14-.1-.288a1.011,1.011,0,0,1,.095-.449.324.324,0,0,1,.315-.2h.479a.624.624,0,0,0,.271-.05.306.306,0,0,0,.145-.159.893.893,0,0,0,.055-.289c.007-.12.011-.267.011-.439V27.928a.088.088,0,0,1,.1-.1h.922a.089.089,0,0,1,.1.1v2.433Zm-1.03,3.519a.09.09,0,0,1-.1-.1V32.91a.09.09,0,0,1,.1-.1h.96a.089.089,0,0,1,.1.1v.868a.09.09,0,0,1-.1.1Z" transform="translate(-14.308 -25.759)" fill="#9d834c"/>
        <path id="Path_1067" data-name="Path 1067" d="M28.348,31.979a.375.375,0,0,1-.3-.116.575.575,0,0,1-.1-.379.613.613,0,0,1,.095-.4.39.39,0,0,1,.306-.106h1.109a1.631,1.631,0,0,1-.14-.7,1.739,1.739,0,0,1,.115-.667,1.229,1.229,0,0,1,.314-.458,1.266,1.266,0,0,1,.46-.264,1.756,1.756,0,0,1,.551-.085,1.542,1.542,0,0,1,1.045.358,1.4,1.4,0,0,1,.415,1.115,2.8,2.8,0,0,1-.025.348,2.063,2.063,0,0,1-.075.349,1.18,1.18,0,0,0,.41-.06.532.532,0,0,0,.25-.185.713.713,0,0,0,.12-.318,3.013,3.013,0,0,0,.03-.453,1.632,1.632,0,0,0-.42-1.176,1.712,1.712,0,0,0-1.29-.438,3.87,3.87,0,0,0-.716.07,3.346,3.346,0,0,0-.755.239.19.19,0,0,1-.1.04c-.033,0-.054-.013-.06-.04l-.24-.609a.3.3,0,0,1-.021-.09.089.089,0,0,1,.05-.08,4.345,4.345,0,0,1,2.04-.49,3.26,3.26,0,0,1,1.311.229,2.228,2.228,0,0,1,.825.6,2.107,2.107,0,0,1,.425.819,3.576,3.576,0,0,1,.12.915,4.222,4.222,0,0,1-.09.945,1.473,1.473,0,0,1-.295.625,1.182,1.182,0,0,1-.535.35,2.536,2.536,0,0,1-.8.11H28.346Zm2.41-2.38a.541.541,0,0,0-.436.184.781.781,0,0,0-.155.521.772.772,0,0,0,.141.511A.545.545,0,0,0,30.7,31h.11a.52.52,0,0,0,.39-.184,1.038,1.038,0,0,0-.015-1.032.51.51,0,0,0-.425-.184Z" transform="translate(-14.308 -25.759)" fill="#9d834c"/>
        <path id="Path_1068" data-name="Path 1068" d="M39,30.269a3.166,3.166,0,0,1-.089.825,1.278,1.278,0,0,1-.268.524.933.933,0,0,1-.456.28,2.367,2.367,0,0,1-.657.08h-2.32a.089.089,0,0,1-.1-.1v-.8a.089.089,0,0,1,.1-.1h1.86a1.882,1.882,0,0,0,.43-.04.43.43,0,0,0,.355-.378,2.375,2.375,0,0,0,.024-.368v-.668q0-.876-1.02-.876h-1.2a.089.089,0,0,1-.1-.1v-.8a.089.089,0,0,1,.1-.1h1.6a1.8,1.8,0,0,1,1.27.436A1.762,1.762,0,0,1,39,29.436v.83Zm-2.67-3.44a.089.089,0,0,1-.1-.1V25.86a.089.089,0,0,1,.1-.1h.96a.089.089,0,0,1,.1.1v.868a.089.089,0,0,1-.1.1Z" transform="translate(-14.308 -25.759)" fill="#9d834c"/>
      </g>
      <path id="Path_1069" data-name="Path 1069" d="M61.337,19.255,38.643,6.132a7.678,7.678,0,0,0-7.686,0L8.262,19.255a7.7,7.7,0,0,0-3.844,6.666V52.164A7.7,7.7,0,0,0,8.262,58.83l22.7,13.122a7.678,7.678,0,0,0,7.686,0l22.7-13.122a7.7,7.7,0,0,0,3.844-6.666V25.921a7.7,7.7,0,0,0-3.844-6.666Z" transform="translate(0 0)" fill="none" stroke="#e8c376" stroke-width="2.818"/>
      <path id="Path_1070" data-name="Path 1070" d="M44.233,20.147l-16.809-9.7" transform="translate(11.288 3.528)" fill="none" stroke="#ffdf97" stroke-linecap="round" stroke-width="1" opacity="0.7" style="mix-blend-mode: normal;isolation: isolate"/>
      <path id="Path_1071" data-name="Path 1071" d="M26.884,50.2,10.075,40.492" transform="translate(4.147 13.681)" fill="none" stroke="#ffdf97" stroke-linecap="round" stroke-width="1" opacity="0.7" style="mix-blend-mode: normal;isolation: isolate"/>
    </g>
  </g>
</svg>
