<svg xmlns="http://www.w3.org/2000/svg" width="69.6" height="78.085" viewBox="0 0 69.6 78.085">
  <g id="Layer_1" data-name="Layer 1" transform="translate(0 0)">
    <g id="Group_1694" data-name="Group 1694" transform="translate(0 0)">
      <path id="Path_1053" data-name="Path 1053" d="M65.914,16.824,38.484.987a7.37,7.37,0,0,0-7.369,0L3.685,16.824A7.369,7.369,0,0,0,0,23.206V54.881a7.368,7.368,0,0,0,3.685,6.381L31.116,77.1a7.37,7.37,0,0,0,7.369,0L65.915,61.262A7.368,7.368,0,0,0,69.6,54.881V23.206a7.368,7.368,0,0,0-3.685-6.381Z" transform="translate(0 0)" fill="#b8e8e6"/>
      <g id="Group_1693" data-name="Group 1693" transform="translate(22.894 33.836)">
        <path id="Path_1054" data-name="Path 1054" d="M19.968,32.98a1.577,1.577,0,0,0,.82-.15.453.453,0,0,0,.22-.382.492.492,0,0,0-.114-.327,1.171,1.171,0,0,0-.36-.262,5.673,5.673,0,0,0-.62-.261c-.25-.091-.545-.2-.885-.327a.084.084,0,0,1-.061-.12l.271-.791c.02-.066.06-.09.12-.07q.319.12.609.245c.193.084.384.157.57.221s.369.116.549.159a2.319,2.319,0,0,0,.556.065h1a.4.4,0,0,1,.3.1.513.513,0,0,1,.1.363.681.681,0,0,1-.1.414.364.364,0,0,1-.305.121h-.689a1.678,1.678,0,0,1,.113.255,1.07,1.07,0,0,1,.064.375,1.306,1.306,0,0,1-.109.53,1.161,1.161,0,0,1-.345.439,1.79,1.79,0,0,1-.609.306,3.17,3.17,0,0,1-.913.114H17.875a2.719,2.719,0,0,1-1.932-.6,2.137,2.137,0,0,1-.634-1.63,2.947,2.947,0,0,1,.055-.565,4.11,4.11,0,0,1,.145-.55,4.537,4.537,0,0,1,.2-.5,2.877,2.877,0,0,1,.245-.415c.033-.053.08-.06.141-.02l.79.41a.083.083,0,0,1,.029.13,4.224,4.224,0,0,0-.314.649,2.063,2.063,0,0,0-.146.761,1.318,1.318,0,0,0,.135.63,1.126,1.126,0,0,0,.355.4,1.434,1.434,0,0,0,.5.215,2.48,2.48,0,0,0,.57.065h1.949Zm-2.239,2.78a.09.09,0,0,1-.1-.1V34.79a.089.089,0,0,1,.1-.1h.84a.089.089,0,0,1,.1.1v.868a.09.09,0,0,1-.1.1Zm1.3,0a.09.09,0,0,1-.1-.1V34.79a.09.09,0,0,1,.1-.1h.84a.089.089,0,0,1,.1.1v.868a.09.09,0,0,1-.1.1Z" transform="translate(-15.309 -25.18)" fill="#12b2aa"/>
        <path id="Path_1055" data-name="Path 1055" d="M25.039,30.36q0,.62.726.62a1.951,1.951,0,0,0,.353-.025.392.392,0,0,0,.206-.1.4.4,0,0,0,.1-.225,2.594,2.594,0,0,0,.025-.41V28.71a.089.089,0,0,1,.1-.1h.922a.089.089,0,0,1,.1.1v1.64a.574.574,0,0,0,.191.475.788.788,0,0,0,.514.155,1.685,1.685,0,0,0,.383-.035.317.317,0,0,0,.206-.14.693.693,0,0,0,.086-.294,4.884,4.884,0,0,0,.02-.508V27.929a.089.089,0,0,1,.1-.1h.922a.089.089,0,0,1,.1.1v2.79a1.357,1.357,0,0,1-.284.975,1.336,1.336,0,0,1-.965.285h-.43a1.206,1.206,0,0,1-.595-.137.9.9,0,0,1-.375-.389.807.807,0,0,1-.405.409,1.819,1.819,0,0,1-.715.116h-.44a.98.98,0,0,1-.97-.535.83.83,0,0,1-.4.414,1.744,1.744,0,0,1-.72.121h-1.14a.417.417,0,0,1-.3-.1.492.492,0,0,1-.1-.358.714.714,0,0,1,.095-.425.364.364,0,0,1,.306-.121h.8c.206,0,.337-.055.39-.165a1.508,1.508,0,0,0,.08-.595v-1.51a.089.089,0,0,1,.1-.1h.922a.089.089,0,0,1,.1.1v1.649Z" transform="translate(-15.309 -25.18)" fill="#12b2aa"/>
        <path id="Path_1056" data-name="Path 1056" d="M31.359,25.28a.088.088,0,0,1,.1-.1h.922a.089.089,0,0,1,.1.1v5.171a.587.587,0,0,0,.114.415.5.5,0,0,0,.365.114h.351a.377.377,0,0,1,.3.116.614.614,0,0,1,.1.4c0,.208-.031.342-.1.4a.443.443,0,0,1-.305.086h-.79a1.136,1.136,0,0,1-.893-.305,1.418,1.418,0,0,1-.268-.955v-5.44Z" transform="translate(-15.309 -25.18)" fill="#12b2aa"/>
        <path id="Path_1057" data-name="Path 1057" d="M36.385,32.05a2.781,2.781,0,0,1-.9-.137,1.517,1.517,0,0,1-.671-.449.928.928,0,0,1-.242.263,1.257,1.257,0,0,1-.292.157,1.384,1.384,0,0,1-.311.075,2.3,2.3,0,0,1-.3.021h-.35a.375.375,0,0,1-.3-.116.831.831,0,0,1-.006-.783.4.4,0,0,1,.306-.1h.39a.581.581,0,0,0,.22-.045.52.52,0,0,0,.2-.149.824.824,0,0,0,.15-.279,1.348,1.348,0,0,0,.06-.434,1.152,1.152,0,0,1-.01-.149v-.149a2.9,2.9,0,0,1,.165-.982,1.724,1.724,0,0,1,.432-.658,1.666,1.666,0,0,1,.646-.368,2.9,2.9,0,0,1,1.634.005,1.672,1.672,0,0,1,.656.38,1.738,1.738,0,0,1,.432.69,3.059,3.059,0,0,1,.155,1.04,2.925,2.925,0,0,1-.15,1,1.742,1.742,0,0,1-.421.67,1.628,1.628,0,0,1-.65.38,2.79,2.79,0,0,1-.842.12Zm0-3.4a.823.823,0,0,0-.706.309,1.494,1.494,0,0,0-.229.9,1.446,1.446,0,0,0,.229.916.856.856,0,0,0,.706.279.868.868,0,0,0,.717-.284,1.449,1.449,0,0,0,.229-.911q0-1.206-.945-1.2Z" transform="translate(-15.309 -25.18)" fill="#12b2aa"/>
      </g>
      <path id="Path_1058" data-name="Path 1058" d="M61.337,19.255,38.643,6.132a7.678,7.678,0,0,0-7.686,0L8.262,19.255a7.7,7.7,0,0,0-3.844,6.666V52.164A7.7,7.7,0,0,0,8.262,58.83l22.7,13.122a7.678,7.678,0,0,0,7.686,0l22.7-13.122a7.7,7.7,0,0,0,3.844-6.666V25.921a7.7,7.7,0,0,0-3.844-6.666Z" transform="translate(0 0)" fill="none" stroke="#89d9d5" stroke-width="2.818"/>
      <path id="Path_1059" data-name="Path 1059" d="M44.233,20.147l-16.809-9.7" transform="translate(11.288 3.528)" fill="none" stroke="#e7f7f7" stroke-linecap="round" stroke-width="1" opacity="0.7" style="mix-blend-mode: normal;isolation: isolate"/>
      <path id="Path_1060" data-name="Path 1060" d="M26.884,50.2,10.075,40.492" transform="translate(4.147 13.681)" fill="none" stroke="#e7f7f7" stroke-linecap="round" stroke-width="1" opacity="0.7" style="mix-blend-mode: normal;isolation: isolate"/>
    </g>
  </g>
</svg>
