<svg xmlns="http://www.w3.org/2000/svg" width="69.604" height="78.089" viewBox="0 0 69.604 78.089">
  <g id="Layer_1" data-name="Layer 1" transform="translate(0 0)">
    <g id="Group_1690" data-name="Group 1690" transform="translate(0 0)">
      <path id="Path_1040" data-name="Path 1040" d="M65.917,16.825,38.486.987a7.37,7.37,0,0,0-7.369,0L3.685,16.825A7.369,7.369,0,0,0,0,23.208V54.883a7.369,7.369,0,0,0,3.685,6.382L31.117,77.1a7.37,7.37,0,0,0,7.369,0L65.918,61.265A7.369,7.369,0,0,0,69.6,54.883V23.208a7.369,7.369,0,0,0-3.685-6.382Z" transform="translate(0 0)" fill="#b6d8d7"/>
      <g id="Group_1689" data-name="Group 1689" transform="translate(15.803 32.33)">
        <path id="Path_1041" data-name="Path 1041" d="M18.289,33.913a2.026,2.026,0,0,0,1.053-.193.581.581,0,0,0,.282-.491.631.631,0,0,0-.146-.42,1.5,1.5,0,0,0-.462-.336,7.284,7.284,0,0,0-.8-.335c-.321-.117-.7-.256-1.136-.42a.108.108,0,0,1-.078-.154l.348-1.016c.026-.085.077-.116.154-.09q.41.154.782.315c.248.108.493.2.732.284s.474.149.7.2a2.977,2.977,0,0,0,.714.083h1.28a.516.516,0,0,1,.385.131.659.659,0,0,1,.13.466.874.874,0,0,1-.123.532.467.467,0,0,1-.392.155h-.885a2.155,2.155,0,0,1,.145.327,1.374,1.374,0,0,1,.082.482,1.677,1.677,0,0,1-.14.681,1.491,1.491,0,0,1-.443.564,2.3,2.3,0,0,1-.782.393,4.07,4.07,0,0,1-1.172.146H15.6a3.491,3.491,0,0,1-2.481-.77,2.744,2.744,0,0,1-.814-2.093,3.784,3.784,0,0,1,.071-.725,5.278,5.278,0,0,1,.186-.706,5.826,5.826,0,0,1,.263-.642,3.694,3.694,0,0,1,.315-.533c.042-.068.1-.077.181-.026l1.014.526a.107.107,0,0,1,.037.167,5.424,5.424,0,0,0-.4.833,2.649,2.649,0,0,0-.187.977,1.692,1.692,0,0,0,.173.809,1.446,1.446,0,0,0,.456.512,1.841,1.841,0,0,0,.642.276,3.184,3.184,0,0,0,.732.083h2.5Zm-2.875,3.57a.115.115,0,0,1-.13-.131V36.237a.114.114,0,0,1,.13-.13h1.079a.114.114,0,0,1,.128.13v1.115a.115.115,0,0,1-.128.131Zm1.669,0a.116.116,0,0,1-.13-.131V36.237a.115.115,0,0,1,.13-.13h1.079a.114.114,0,0,1,.128.13v1.115a.115.115,0,0,1-.128.131Z" transform="translate(-12.307 -23.897)" fill="#688d86"/>
        <path id="Path_1042" data-name="Path 1042" d="M22.495,31.668a.677.677,0,0,0,.29.589,1.319,1.319,0,0,0,.776.2h.218a.492.492,0,0,1,.385.143.708.708,0,0,1,.13.479.813.813,0,0,1-.123.519.49.49,0,0,1-.392.143,2.787,2.787,0,0,1-.873-.123,1.031,1.031,0,0,1-.589-.539.991.991,0,0,1-.528.519,2.626,2.626,0,0,1-.963.143H19.811a.706.706,0,0,1-.385-.083c-.086-.056-.13-.18-.13-.37a1.3,1.3,0,0,1,.123-.577.415.415,0,0,1,.4-.253h.616a.792.792,0,0,0,.347-.064.39.39,0,0,0,.187-.2,1.22,1.22,0,0,0,.071-.371c.009-.154.013-.343.013-.564V28.544a.114.114,0,0,1,.128-.128h1.184a.113.113,0,0,1,.127.128v3.124Zm-1.323-4.535a.114.114,0,0,1-.128-.13V25.889a.114.114,0,0,1,.128-.13H22.4a.114.114,0,0,1,.13.13V27a.114.114,0,0,1-.13.13Z" transform="translate(-10.322 -25.014)" fill="#688d86"/>
        <path id="Path_1043" data-name="Path 1043" d="M25.621,32.5a.98.98,0,0,1-.541.519,2.731,2.731,0,0,1-.976.143h-1.2a.54.54,0,0,1-.385-.123.685.685,0,0,1-.128-.487.843.843,0,0,1,.122-.525.48.48,0,0,1,.392-.149h.835A.723.723,0,0,0,24.1,31.8a.432.432,0,0,0,.18-.218,1.265,1.265,0,0,0,.071-.384c.009-.158.014-.352.014-.582V27.956a.1.1,0,0,1,.069-.1.405.405,0,0,1,.146-.027h1.1a.113.113,0,0,1,.127.128V31.08a.677.677,0,0,0,.29.589,1.319,1.319,0,0,0,.776.2h.218a.5.5,0,0,1,.386.143.715.715,0,0,1,.128.479.814.814,0,0,1-.122.519.491.491,0,0,1-.393.143,2.787,2.787,0,0,1-.873-.123,1.035,1.035,0,0,1-.589-.539ZM23.63,35.625a.115.115,0,0,1-.13-.13V34.38a.116.116,0,0,1,.13-.131h1.079a.115.115,0,0,1,.128.131v1.115a.114.114,0,0,1-.128.13Zm1.669,0a.114.114,0,0,1-.128-.13V34.38a.115.115,0,0,1,.128-.131h1.079a.116.116,0,0,1,.13.131v1.115a.115.115,0,0,1-.13.13Z" transform="translate(-9.441 -24.427)" fill="#688d86"/>
        <path id="Path_1044" data-name="Path 1044" d="M26.156,32.263a.41.41,0,0,1-.353-.13.867.867,0,0,1-.1-.48,1.083,1.083,0,0,1,.09-.532.394.394,0,0,1,.36-.143H27.7a.5.5,0,0,1,.385.143.743.743,0,0,1,.128.493.778.778,0,0,1-.122.525.538.538,0,0,1-.392.123Z" transform="translate(-8.501 -23.532)" fill="#688d86"/>
        <path id="Path_1045" data-name="Path 1045" d="M27.355,32.263a.408.408,0,0,1-.352-.13.842.842,0,0,1-.1-.48,1.083,1.083,0,0,1,.09-.532.392.392,0,0,1,.358-.143H28.9a.492.492,0,0,1,.385.143.735.735,0,0,1,.13.493.776.776,0,0,1-.123.525.538.538,0,0,1-.392.123H27.355Z" transform="translate(-8.16 -23.532)" fill="#688d86"/>
        <path id="Path_1046" data-name="Path 1046" d="M28.556,32.263a.408.408,0,0,1-.352-.13.842.842,0,0,1-.1-.48,1.083,1.083,0,0,1,.09-.532.392.392,0,0,1,.358-.143H30.1a.492.492,0,0,1,.385.143.735.735,0,0,1,.13.493.776.776,0,0,1-.123.525.538.538,0,0,1-.392.123H28.556Z" transform="translate(-7.819 -23.532)" fill="#688d86"/>
        <path id="Path_1047" data-name="Path 1047" d="M29.771,33.746a.538.538,0,0,1-.385-.123.664.664,0,0,1-.128-.474.875.875,0,0,1,.122-.532.467.467,0,0,1,.392-.155h.835a.647.647,0,0,0,.469-.146.752.752,0,0,0,.146-.532V28.545a.114.114,0,0,1,.128-.128h1.184a.114.114,0,0,1,.127.13v3.582a1.821,1.821,0,0,1-.344,1.226,1.461,1.461,0,0,1-1.147.392h-1.4Zm.8-6.613a.114.114,0,0,1-.128-.13V25.889a.114.114,0,0,1,.128-.13h1.079a.115.115,0,0,1,.13.13V27a.115.115,0,0,1-.13.13Zm1.669,0a.114.114,0,0,1-.128-.13V25.889a.114.114,0,0,1,.128-.13h1.079a.114.114,0,0,1,.13.13V27a.114.114,0,0,1-.13.13Z" transform="translate(-7.493 -25.014)" fill="#688d86"/>
        <path id="Path_1048" data-name="Path 1048" d="M38.792,25.307a.114.114,0,0,1,.128-.128H40.1a.113.113,0,0,1,.127.128V31.96q.117.668,1.053.668H41.5a.494.494,0,0,1,.385.143.708.708,0,0,1,.13.479.813.813,0,0,1-.123.519.49.49,0,0,1-.392.143,2.8,2.8,0,0,1-.854-.117,1.052,1.052,0,0,1-.6-.532,1.006,1.006,0,0,1-.532.506,2.532,2.532,0,0,1-.941.143H33.105a.114.114,0,0,1-.128-.13V32.755a.115.115,0,0,1,.128-.13h2.286V27.1a.114.114,0,0,1,.127-.13H36.7a.115.115,0,0,1,.128.13v5.521h1.344a.833.833,0,0,0,.343-.058.4.4,0,0,0,.187-.191.99.99,0,0,0,.078-.36c.009-.149.013-.331.013-.544V25.306Z" transform="translate(-6.436 -25.179)" fill="#688d86"/>
        <path id="Path_1049" data-name="Path 1049" d="M39.741,33.157a.672.672,0,0,1-.385-.09.426.426,0,0,1-.128-.363,1.3,1.3,0,0,1,.122-.577.406.406,0,0,1,.392-.253h.629a.645.645,0,0,0,.469-.146.752.752,0,0,0,.148-.532V27.958a.113.113,0,0,1,.127-.128H42.3a.114.114,0,0,1,.127.13v3.582a1.821,1.821,0,0,1-.344,1.226,1.458,1.458,0,0,1-1.145.392h-1.2Zm1.13,2.44a.115.115,0,0,1-.128-.131V34.352a.114.114,0,0,1,.128-.13H42.1a.114.114,0,0,1,.13.13v1.115a.115.115,0,0,1-.13.131Z" transform="translate(-4.661 -24.426)" fill="#688d86"/>
      </g>
      <path id="Path_1050" data-name="Path 1050" d="M58.989,18.651,37.231,6.088a7.37,7.37,0,0,0-7.369,0L8.1,18.651a7.369,7.369,0,0,0-3.685,6.382V50.158A7.369,7.369,0,0,0,8.1,56.539L29.862,69.1a7.37,7.37,0,0,0,7.369,0L58.991,56.539a7.369,7.369,0,0,0,3.685-6.382V25.033a7.369,7.369,0,0,0-3.685-6.382Z" transform="translate(1.255 1.449)" fill="none" stroke="#a3c9c4" stroke-width="2.818"/>
      <path id="Path_1051" data-name="Path 1051" d="M49.007,22.9,27.424,10.442" transform="translate(7.789 2.966)" fill="none" stroke="#caefeb" stroke-linecap="round" stroke-width="1" opacity="0.7" style="mix-blend-mode: normal;isolation: isolate"/>
      <path id="Path_1052" data-name="Path 1052" d="M31.658,52.954,10.075,40.492" transform="translate(2.862 11.501)" fill="none" stroke="#caefeb" stroke-linecap="round" stroke-width="1" opacity="0.7" style="mix-blend-mode: normal;isolation: isolate"/>
    </g>
  </g>
</svg>
