<svg xmlns="http://www.w3.org/2000/svg" width="69.6" height="78.085" viewBox="0 0 69.6 78.085">
  <g id="Layer_1" data-name="Layer 1" transform="translate(0 0)">
    <g id="Group_1698" data-name="Group 1698" transform="translate(0 0)">
      <path id="Path_1072" data-name="Path 1072" d="M65.914,16.824,38.484.987a7.37,7.37,0,0,0-7.369,0L3.685,16.824A7.369,7.369,0,0,0,0,23.206V54.881a7.368,7.368,0,0,0,3.685,6.381L31.116,77.1a7.37,7.37,0,0,0,7.369,0L65.915,61.262A7.368,7.368,0,0,0,69.6,54.881V23.206a7.368,7.368,0,0,0-3.685-6.381Z" transform="translate(0 0)" fill="#ebf2f2"/>
      <g id="Group_1697" data-name="Group 1697" transform="translate(23.008 34.514)">
        <path id="Path_1073" data-name="Path 1073" d="M20.969,32.98a1.58,1.58,0,0,0,.82-.15.453.453,0,0,0,.22-.382.487.487,0,0,0-.115-.327,1.153,1.153,0,0,0-.359-.262,5.759,5.759,0,0,0-.62-.261c-.25-.091-.545-.2-.886-.327a.084.084,0,0,1-.06-.12l.27-.791c.021-.066.061-.09.12-.07q.321.12.61.245c.193.084.383.157.57.221s.369.116.548.159a2.321,2.321,0,0,0,.557.065h1a.4.4,0,0,1,.3.1.513.513,0,0,1,.1.363.682.682,0,0,1-.095.414.364.364,0,0,1-.305.121h-.69a1.568,1.568,0,0,1,.114.255,1.07,1.07,0,0,1,.064.375,1.307,1.307,0,0,1-.11.53,1.168,1.168,0,0,1-.344.439,1.809,1.809,0,0,1-.609.306,3.177,3.177,0,0,1-.914.114H18.876a2.722,2.722,0,0,1-1.933-.6,2.137,2.137,0,0,1-.634-1.63,3.029,3.029,0,0,1,.055-.565,4.113,4.113,0,0,1,.146-.55,4.178,4.178,0,0,1,.2-.5,2.788,2.788,0,0,1,.245-.415c.033-.053.08-.06.14-.02l.79.41a.083.083,0,0,1,.03.13,4.224,4.224,0,0,0-.315.649,2.062,2.062,0,0,0-.145.761,1.318,1.318,0,0,0,.135.63,1.114,1.114,0,0,0,.354.4,1.442,1.442,0,0,0,.5.215,2.486,2.486,0,0,0,.57.065h1.95Zm-2.24,2.78a.09.09,0,0,1-.1-.1V34.79a.089.089,0,0,1,.1-.1h.84a.089.089,0,0,1,.1.1v.868a.09.09,0,0,1-.1.1Zm1.3,0a.09.09,0,0,1-.1-.1V34.79a.089.089,0,0,1,.1-.1h.841a.089.089,0,0,1,.1.1v.868a.09.09,0,0,1-.1.1Z" transform="translate(-16.309 -25.76)" fill="#a1b1b0"/>
        <path id="Path_1074" data-name="Path 1074" d="M25.779,28.211a6.549,6.549,0,0,1,1.043-.4A4.229,4.229,0,0,1,28,27.65a3.275,3.275,0,0,1,1.118.17,1.945,1.945,0,0,1,.762.479,1.872,1.872,0,0,1,.431.753,3.362,3.362,0,0,1,.135.981c0,.066,0,.128,0,.185s0,.1,0,.145a.558.558,0,0,0,.23.459,1,1,0,0,0,.6.159h.17a.383.383,0,0,1,.3.111.551.551,0,0,1,.1.373.64.64,0,0,1-.095.4.381.381,0,0,1-.306.111,2.085,2.085,0,0,1-.755-.126.87.87,0,0,1-.485-.511.983.983,0,0,1-.614.521,4,4,0,0,1-1.065.116h-1.97c-.106,0-.217,0-.33,0s-.224-.012-.33-.025-.208-.029-.305-.05a.773.773,0,0,1-.245-.09.851.851,0,0,1-.355.14,2.9,2.9,0,0,1-.455.03H23.7a.421.421,0,0,1-.3-.1.533.533,0,0,1-.1-.379.648.648,0,0,1,.095-.424.4.4,0,0,1,.305-.1h.46a.4.4,0,0,0,.436-.3,1.346,1.346,0,0,0,.055-.334c.007-.126.01-.259.01-.4V27.889a.089.089,0,0,1,.1-.1h.922a.089.089,0,0,1,.1.1v.32Zm2.066.439a3.685,3.685,0,0,0-1.1.17,7.4,7.4,0,0,0-.963.368v1.354c0,.08,0,.156-.01.229s-.017.143-.03.209h2.177c.287,0,.52,0,.7-.015a.851.851,0,0,0,.411-.109.468.468,0,0,0,.2-.3,2.563,2.563,0,0,0,.05-.573,2.221,2.221,0,0,0-.065-.567.916.916,0,0,0-.23-.418,1.078,1.078,0,0,0-.436-.259,2.239,2.239,0,0,0-.692-.09Zm-.406-1.82a.089.089,0,0,1-.1-.1v-.868a.089.089,0,0,1,.1-.1h.96a.09.09,0,0,1,.1.1v.868a.09.09,0,0,1-.1.1Z" transform="translate(-16.309 -25.76)" fill="#a1b1b0"/>
        <path id="Path_1075" data-name="Path 1075" d="M31.389,31.98a.318.318,0,0,1-.274-.1.655.655,0,0,1-.075-.374.843.843,0,0,1,.07-.414.305.305,0,0,1,.279-.111h1.2a.383.383,0,0,1,.3.111.572.572,0,0,1,.1.384.6.6,0,0,1-.1.409.419.419,0,0,1-.305.1h-1.2Z" transform="translate(-16.309 -25.76)" fill="#a1b1b0"/>
        <path id="Path_1076" data-name="Path 1076" d="M32.589,31.98a.319.319,0,0,1-.275-.1.675.675,0,0,1-.075-.374.843.843,0,0,1,.07-.414.307.307,0,0,1,.28-.111h1.2a.386.386,0,0,1,.3.111.578.578,0,0,1,.1.384.606.606,0,0,1-.1.409.419.419,0,0,1-.305.1h-1.2Z" transform="translate(-16.309 -25.76)" fill="#a1b1b0"/>
        <path id="Path_1077" data-name="Path 1077" d="M33.79,31.98a.319.319,0,0,1-.275-.1.675.675,0,0,1-.075-.374.843.843,0,0,1,.07-.414.307.307,0,0,1,.28-.111h1.2a.386.386,0,0,1,.3.111.578.578,0,0,1,.1.384.606.606,0,0,1-.1.409.419.419,0,0,1-.305.1h-1.2Z" transform="translate(-16.309 -25.76)" fill="#a1b1b0"/>
        <path id="Path_1078" data-name="Path 1078" d="M35.039,31.98a.4.4,0,0,1-.305-.1.626.626,0,0,1-.1-.41.543.543,0,0,1,.1-.37.388.388,0,0,1,.3-.11h.95a2.345,2.345,0,0,1-.229-1.109,2.905,2.905,0,0,1,.165-1.04,1.7,1.7,0,0,1,1.113-1.07,2.568,2.568,0,0,1,.786-.12,2.722,2.722,0,0,1,.822.12,1.672,1.672,0,0,1,.656.38,1.738,1.738,0,0,1,.432.69,3.059,3.059,0,0,1,.155,1.04,2.855,2.855,0,0,1-.15.989,1.677,1.677,0,0,1-.421.65,1.539,1.539,0,0,1-.652.354,3.161,3.161,0,0,1-.842.1H35.039Zm2.78-3.33a.838.838,0,0,0-.7.305,1.361,1.361,0,0,0-.239.855,1.431,1.431,0,0,0,.229.925.889.889,0,0,0,.71.265.924.924,0,0,0,.72-.255,1.32,1.32,0,0,0,.23-.885q0-1.21-.95-1.21Zm-.479-1.82a.089.089,0,0,1-.1-.1v-.868a.089.089,0,0,1,.1-.1h.96a.089.089,0,0,1,.1.1v.868a.089.089,0,0,1-.1.1Z" transform="translate(-16.309 -25.76)" fill="#a1b1b0"/>
      </g>
      <path id="Path_1079" data-name="Path 1079" d="M61.337,19.255,38.643,6.132a7.678,7.678,0,0,0-7.686,0L8.262,19.255a7.7,7.7,0,0,0-3.844,6.666V52.164A7.7,7.7,0,0,0,8.262,58.83l22.7,13.122a7.678,7.678,0,0,0,7.686,0l22.7-13.122a7.7,7.7,0,0,0,3.844-6.666V25.921a7.7,7.7,0,0,0-3.844-6.666Z" transform="translate(0 0)" fill="none" stroke="#c3dbda" stroke-width="2.818"/>
      <path id="Path_1080" data-name="Path 1080" d="M44.233,20.147l-16.809-9.7" transform="translate(11.288 3.528)" fill="none" stroke="#fff" stroke-linecap="round" stroke-width="1" opacity="0.7" style="mix-blend-mode: normal;isolation: isolate"/>
      <path id="Path_1081" data-name="Path 1081" d="M26.884,50.2,10.075,40.492" transform="translate(4.147 13.681)" fill="none" stroke="#fff" stroke-linecap="round" stroke-width="1" opacity="0.7" style="mix-blend-mode: normal;isolation: isolate"/>
    </g>
  </g>
</svg>
