<svg xmlns="http://www.w3.org/2000/svg" width="55.711" height="62.503" viewBox="0 0 55.711 62.503">
  <g id="Layer_1" data-name="Layer 1" transform="translate(0 -0.001)">
    <g id="Group_1690" data-name="Group 1690" transform="translate(0 0.001)">
      <path id="Path_1040" data-name="Path 1040" d="M52.76,13.467,30.8.79a5.9,5.9,0,0,0-5.9,0L2.95,13.467A5.9,5.9,0,0,0,0,18.575V43.929a5.9,5.9,0,0,0,2.95,5.108L24.906,61.713a5.9,5.9,0,0,0,5.9,0L52.761,49.037a5.9,5.9,0,0,0,2.95-5.108V18.575a5.9,5.9,0,0,0-2.95-5.108Z" transform="translate(0 0)" fill="#b6d8d7"/>
      <g id="Group_1689" data-name="Group 1689" transform="translate(12.648 25.877)">
        <path id="Path_1041" data-name="Path 1041" d="M17.1,33.07a1.621,1.621,0,0,0,.843-.154.465.465,0,0,0,.226-.393.505.505,0,0,0-.117-.336,1.2,1.2,0,0,0-.37-.269,5.832,5.832,0,0,0-.637-.268c-.257-.094-.56-.2-.91-.336a.087.087,0,0,1-.063-.123l.279-.813c.021-.068.062-.092.123-.072q.328.123.626.252c.2.086.395.161.586.227s.379.119.564.163a2.383,2.383,0,0,0,.571.067h1.025a.413.413,0,0,1,.308.1.527.527,0,0,1,.1.373.7.7,0,0,1-.1.425.374.374,0,0,1-.313.124h-.708a1.725,1.725,0,0,1,.116.262,1.1,1.1,0,0,1,.066.385,1.342,1.342,0,0,1-.112.545,1.193,1.193,0,0,1-.355.451,1.84,1.84,0,0,1-.626.314,3.258,3.258,0,0,1-.938.117h-2.34a2.8,2.8,0,0,1-1.986-.617,2.2,2.2,0,0,1-.652-1.675,3.029,3.029,0,0,1,.057-.581,4.225,4.225,0,0,1,.149-.565,4.663,4.663,0,0,1,.211-.514,2.957,2.957,0,0,1,.252-.427c.034-.054.082-.062.145-.021l.812.421a.086.086,0,0,1,.03.134,4.342,4.342,0,0,0-.323.667,2.12,2.12,0,0,0-.15.782,1.354,1.354,0,0,0,.139.647,1.157,1.157,0,0,0,.365.41,1.473,1.473,0,0,0,.514.221,2.548,2.548,0,0,0,.586.067h2Zm-2.3,2.857a.092.092,0,0,1-.1-.1V34.93a.092.092,0,0,1,.1-.1h.863a.091.091,0,0,1,.1.1v.892a.092.092,0,0,1-.1.1Zm1.336,0a.093.093,0,0,1-.1-.1V34.93a.092.092,0,0,1,.1-.1h.863a.091.091,0,0,1,.1.1v.892a.092.092,0,0,1-.1.1Z" transform="translate(-12.307 -25.054)" fill="#688d86"/>
        <path id="Path_1042" data-name="Path 1042" d="M21.856,30.489a.542.542,0,0,0,.232.472,1.055,1.055,0,0,0,.621.163h.175a.394.394,0,0,1,.308.114.567.567,0,0,1,.1.383.651.651,0,0,1-.1.415.392.392,0,0,1-.313.114,2.231,2.231,0,0,1-.7-.1.825.825,0,0,1-.472-.432.793.793,0,0,1-.422.415,2.1,2.1,0,0,1-.771.114h-.812a.565.565,0,0,1-.308-.067c-.069-.045-.1-.144-.1-.3a1.039,1.039,0,0,1,.1-.461.332.332,0,0,1,.323-.2h.493a.634.634,0,0,0,.277-.051.312.312,0,0,0,.15-.163.977.977,0,0,0,.057-.3c.007-.123.01-.274.01-.451V27.988a.091.091,0,0,1,.1-.1h.948a.091.091,0,0,1,.1.1v2.5ZM20.8,26.859a.091.091,0,0,1-.1-.1v-.892a.091.091,0,0,1,.1-.1h.987a.092.092,0,0,1,.1.1v.892a.092.092,0,0,1-.1.1Z" transform="translate(-12.113 -25.163)" fill="#688d86"/>
        <path id="Path_1043" data-name="Path 1043" d="M24.978,31.565a.785.785,0,0,1-.433.415,2.186,2.186,0,0,1-.781.114h-.957A.432.432,0,0,1,22.5,32a.548.548,0,0,1-.1-.39.675.675,0,0,1,.1-.42.384.384,0,0,1,.313-.119h.668a.579.579,0,0,0,.283-.057.346.346,0,0,0,.144-.175,1.012,1.012,0,0,0,.057-.307c.007-.126.011-.282.011-.466V27.931a.079.079,0,0,1,.055-.081.324.324,0,0,1,.117-.022h.877a.09.09,0,0,1,.1.1v2.5a.542.542,0,0,0,.232.472,1.055,1.055,0,0,0,.621.163h.175a.4.4,0,0,1,.309.114.573.573,0,0,1,.1.383.651.651,0,0,1-.1.415.393.393,0,0,1-.314.114,2.231,2.231,0,0,1-.7-.1.828.828,0,0,1-.472-.432Zm-1.594,2.5a.092.092,0,0,1-.1-.1v-.892a.093.093,0,0,1,.1-.1h.863a.092.092,0,0,1,.1.1v.892a.091.091,0,0,1-.1.1Zm1.336,0a.091.091,0,0,1-.1-.1v-.892a.092.092,0,0,1,.1-.1h.863a.093.093,0,0,1,.1.1v.892a.092.092,0,0,1-.1.1Z" transform="translate(-12.027 -25.106)" fill="#688d86"/>
        <path id="Path_1044" data-name="Path 1044" d="M26.067,32.007a.328.328,0,0,1-.283-.1.694.694,0,0,1-.077-.384.867.867,0,0,1,.072-.425.316.316,0,0,1,.288-.114H27.3a.4.4,0,0,1,.308.114.594.594,0,0,1,.1.395.623.623,0,0,1-.1.42.431.431,0,0,1-.313.1Z" transform="translate(-11.935 -25.018)" fill="#688d86"/>
        <path id="Path_1045" data-name="Path 1045" d="M27.266,32.007a.327.327,0,0,1-.282-.1.674.674,0,0,1-.077-.384.867.867,0,0,1,.072-.425.314.314,0,0,1,.287-.114H28.5a.394.394,0,0,1,.308.114.588.588,0,0,1,.1.395.621.621,0,0,1-.1.42.431.431,0,0,1-.313.1H27.266Z" transform="translate(-11.902 -25.018)" fill="#688d86"/>
        <path id="Path_1046" data-name="Path 1046" d="M28.467,32.007a.327.327,0,0,1-.282-.1.674.674,0,0,1-.077-.384.867.867,0,0,1,.072-.425.314.314,0,0,1,.287-.114H29.7a.394.394,0,0,1,.308.114.588.588,0,0,1,.1.395.621.621,0,0,1-.1.42.431.431,0,0,1-.313.1H28.467Z" transform="translate(-11.869 -25.018)" fill="#688d86"/>
        <path id="Path_1047" data-name="Path 1047" d="M29.668,32.152a.431.431,0,0,1-.308-.1.532.532,0,0,1-.1-.379.7.7,0,0,1,.1-.425.374.374,0,0,1,.313-.124h.668a.518.518,0,0,0,.375-.117.6.6,0,0,0,.117-.425V27.989a.091.091,0,0,1,.1-.1h.948a.091.091,0,0,1,.1.1v2.867a1.458,1.458,0,0,1-.275.981,1.169,1.169,0,0,1-.918.313h-1.12Zm.637-5.293a.091.091,0,0,1-.1-.1v-.892a.091.091,0,0,1,.1-.1h.863a.092.092,0,0,1,.1.1v.892a.092.092,0,0,1-.1.1Zm1.336,0a.091.091,0,0,1-.1-.1v-.892a.091.091,0,0,1,.1-.1H32.5a.092.092,0,0,1,.1.1v.892a.092.092,0,0,1-.1.1Z" transform="translate(-11.837 -25.163)" fill="#688d86"/>
        <path id="Path_1048" data-name="Path 1048" d="M37.632,25.282a.091.091,0,0,1,.1-.1h.948a.091.091,0,0,1,.1.1v5.325q.094.535.843.534H39.8a.4.4,0,0,1,.308.114.567.567,0,0,1,.1.383.651.651,0,0,1-.1.415.392.392,0,0,1-.313.114,2.238,2.238,0,0,1-.683-.094.842.842,0,0,1-.477-.425.805.805,0,0,1-.425.4,2.027,2.027,0,0,1-.753.114H33.08a.091.091,0,0,1-.1-.1v-.821a.092.092,0,0,1,.1-.1h1.829V26.72a.091.091,0,0,1,.1-.1h.948a.092.092,0,0,1,.1.1v4.419h1.076a.667.667,0,0,0,.274-.046.32.32,0,0,0,.15-.153.793.793,0,0,0,.063-.288c.007-.119.01-.265.01-.436V25.281Z" transform="translate(-11.734 -25.179)" fill="#688d86"/>
        <path id="Path_1049" data-name="Path 1049" d="M39.638,32.094a.538.538,0,0,1-.308-.072.341.341,0,0,1-.1-.291,1.039,1.039,0,0,1,.1-.461.325.325,0,0,1,.313-.2h.5a.516.516,0,0,0,.375-.117.6.6,0,0,0,.118-.425V27.933a.09.09,0,0,1,.1-.1h.948a.091.091,0,0,1,.1.1V30.8a1.458,1.458,0,0,1-.275.981,1.167,1.167,0,0,1-.917.313h-.957Zm.9,1.953a.092.092,0,0,1-.1-.1V33.05a.091.091,0,0,1,.1-.1h.987a.092.092,0,0,1,.1.1v.892a.092.092,0,0,1-.1.1Z" transform="translate(-11.56 -25.105)" fill="#688d86"/>
      </g>
      <path id="Path_1050" data-name="Path 1050" d="M48.1,15.947,30.682,5.891a5.9,5.9,0,0,0-5.9,0L7.368,15.947a5.9,5.9,0,0,0-2.95,5.108v20.11a5.9,5.9,0,0,0,2.95,5.108L24.784,56.328a5.9,5.9,0,0,0,5.9,0L48.1,46.272a5.9,5.9,0,0,0,2.95-5.108V21.055a5.9,5.9,0,0,0-2.95-5.108Z" transform="translate(0.123 0.141)" fill="none" stroke="#a3c9c4" stroke-width="2.818"/>
      <path id="Path_1051" data-name="Path 1051" d="M44.7,20.416,27.424,10.442" transform="translate(0.761 0.289)" fill="none" stroke="#caefeb" stroke-linecap="round" stroke-width="1" opacity="0.7" style="mix-blend-mode: normal;isolation: isolate"/>
      <path id="Path_1052" data-name="Path 1052" d="M27.35,50.466,10.075,40.492" transform="translate(0.28 1.123)" fill="none" stroke="#caefeb" stroke-linecap="round" stroke-width="1" opacity="0.7" style="mix-blend-mode: normal;isolation: isolate"/>
    </g>
  </g>
</svg>
