<svg xmlns="http://www.w3.org/2000/svg" width="55.708" height="62.5" viewBox="0 0 55.708 62.5">
  <g id="Layer_1" data-name="Layer 1" transform="translate(0 0)">
    <g id="Group_1698" data-name="Group 1698" transform="translate(0 0)">
      <path id="Path_1072" data-name="Path 1072" d="M52.758,13.466,30.8.79a5.9,5.9,0,0,0-5.9,0L2.949,13.466A5.9,5.9,0,0,0,0,18.575V43.927a5.9,5.9,0,0,0,2.949,5.108L24.905,61.71a5.9,5.9,0,0,0,5.9,0L52.759,49.034a5.9,5.9,0,0,0,2.949-5.108V18.575a5.9,5.9,0,0,0-2.949-5.108Z" transform="translate(0 0)" fill="#ebf2f2"/>
      <g id="Group_1697" data-name="Group 1697" transform="translate(18.416 27.625)">
        <path id="Path_1073" data-name="Path 1073" d="M20.039,32.324a1.265,1.265,0,0,0,.656-.12.362.362,0,0,0,.176-.306.39.39,0,0,0-.092-.262.923.923,0,0,0-.287-.21,4.608,4.608,0,0,0-.5-.209c-.2-.073-.436-.159-.709-.262a.067.067,0,0,1-.048-.1l.216-.633c.017-.053.049-.072.1-.056q.257.1.488.2c.154.067.307.126.456.177s.3.093.439.127a1.858,1.858,0,0,0,.446.052h.8a.323.323,0,0,1,.24.082.411.411,0,0,1,.08.291.546.546,0,0,1-.076.331.291.291,0,0,1-.244.1h-.552a1.255,1.255,0,0,1,.091.2.857.857,0,0,1,.051.3,1.046,1.046,0,0,1-.088.424.935.935,0,0,1-.275.351,1.448,1.448,0,0,1-.487.245,2.543,2.543,0,0,1-.732.091H18.364a2.179,2.179,0,0,1-1.547-.48,1.71,1.71,0,0,1-.507-1.3,2.424,2.424,0,0,1,.044-.452,3.291,3.291,0,0,1,.117-.44,3.344,3.344,0,0,1,.164-.4,2.232,2.232,0,0,1,.2-.332c.026-.042.064-.048.112-.016l.632.328a.066.066,0,0,1,.024.1,3.382,3.382,0,0,0-.252.519,1.65,1.65,0,0,0-.116.609,1.055,1.055,0,0,0,.108.5.892.892,0,0,0,.283.319,1.154,1.154,0,0,0,.4.172,1.99,1.99,0,0,0,.456.052h1.561Zm-1.793,2.225a.072.072,0,0,1-.08-.082v-.695a.071.071,0,0,1,.08-.081h.672a.071.071,0,0,1,.081.081v.695a.072.072,0,0,1-.081.082Zm1.041,0a.072.072,0,0,1-.08-.082v-.695a.071.071,0,0,1,.08-.081h.673a.071.071,0,0,1,.08.081v.695a.072.072,0,0,1-.08.082Z" transform="translate(-16.309 -26.545)" fill="#a1b1b0"/>
        <path id="Path_1074" data-name="Path 1074" d="M25.284,27.722a5.241,5.241,0,0,1,.835-.317,3.385,3.385,0,0,1,.946-.132,2.621,2.621,0,0,1,.895.136,1.557,1.557,0,0,1,.61.383,1.5,1.5,0,0,1,.345.6,2.691,2.691,0,0,1,.108.785c0,.053,0,.1,0,.148s0,.083,0,.116a.446.446,0,0,0,.184.367.8.8,0,0,0,.48.127h.136a.307.307,0,0,1,.24.089.441.441,0,0,1,.081.3.512.512,0,0,1-.076.323.305.305,0,0,1-.245.089,1.669,1.669,0,0,1-.6-.1.7.7,0,0,1-.388-.409.787.787,0,0,1-.491.417,3.2,3.2,0,0,1-.852.093H25.9c-.085,0-.174,0-.264,0s-.179-.01-.264-.02-.166-.023-.244-.04a.619.619,0,0,1-.2-.072.682.682,0,0,1-.284.112,2.318,2.318,0,0,1-.364.024h-.664a.337.337,0,0,1-.24-.077.427.427,0,0,1-.08-.3.519.519,0,0,1,.076-.339.323.323,0,0,1,.244-.082h.368a.321.321,0,0,0,.349-.243,1.078,1.078,0,0,0,.044-.267c.006-.1.008-.207.008-.319V27.464a.071.071,0,0,1,.08-.081h.738a.071.071,0,0,1,.079.081v.256Zm1.654.351a2.95,2.95,0,0,0-.884.136,5.924,5.924,0,0,0-.771.295v1.084c0,.064,0,.125-.008.183s-.014.114-.024.167h1.742c.23,0,.416,0,.557-.012a.681.681,0,0,0,.329-.087.375.375,0,0,0,.157-.239,2.051,2.051,0,0,0,.04-.459,1.778,1.778,0,0,0-.052-.454.733.733,0,0,0-.184-.335.863.863,0,0,0-.349-.207,1.792,1.792,0,0,0-.554-.072Zm-.325-1.457a.071.071,0,0,1-.08-.081v-.695a.071.071,0,0,1,.08-.081h.768a.072.072,0,0,1,.081.081v.695a.072.072,0,0,1-.081.081Z" transform="translate(-17.705 -25.76)" fill="#a1b1b0"/>
        <path id="Path_1075" data-name="Path 1075" d="M31.319,31.78A.255.255,0,0,1,31.1,31.7a.525.525,0,0,1-.06-.3.675.675,0,0,1,.056-.331.244.244,0,0,1,.223-.089h.96a.307.307,0,0,1,.24.089.458.458,0,0,1,.081.307.484.484,0,0,1-.077.327.335.335,0,0,1-.244.077Z" transform="translate(-19.249 -26.802)" fill="#a1b1b0"/>
        <path id="Path_1076" data-name="Path 1076" d="M32.519,31.78a.255.255,0,0,1-.22-.081.54.54,0,0,1-.06-.3.675.675,0,0,1,.056-.331.246.246,0,0,1,.224-.089h.96a.309.309,0,0,1,.24.089.463.463,0,0,1,.08.307.485.485,0,0,1-.076.327.335.335,0,0,1-.244.077h-.96Z" transform="translate(-19.489 -26.802)" fill="#a1b1b0"/>
        <path id="Path_1077" data-name="Path 1077" d="M33.72,31.78a.255.255,0,0,1-.22-.081.54.54,0,0,1-.06-.3.675.675,0,0,1,.056-.331.246.246,0,0,1,.224-.089h.96a.309.309,0,0,1,.24.089.463.463,0,0,1,.08.307.485.485,0,0,1-.076.327.335.335,0,0,1-.244.077h-.96Z" transform="translate(-19.728 -26.802)" fill="#a1b1b0"/>
        <path id="Path_1078" data-name="Path 1078" d="M34.959,30.739a.324.324,0,0,1-.244-.08.5.5,0,0,1-.076-.328.434.434,0,0,1,.08-.3.31.31,0,0,1,.24-.088h.76a1.877,1.877,0,0,1-.183-.888,2.325,2.325,0,0,1,.132-.832,1.362,1.362,0,0,1,.891-.856,2.055,2.055,0,0,1,.629-.1,2.179,2.179,0,0,1,.658.1,1.338,1.338,0,0,1,.525.3,1.391,1.391,0,0,1,.346.552,2.449,2.449,0,0,1,.124.832,2.285,2.285,0,0,1-.12.792,1.342,1.342,0,0,1-.337.52,1.232,1.232,0,0,1-.522.283,2.53,2.53,0,0,1-.674.084H34.959Zm2.225-2.665a.671.671,0,0,0-.56.244,1.089,1.089,0,0,0-.191.684,1.146,1.146,0,0,0,.183.74.712.712,0,0,0,.568.212.74.74,0,0,0,.576-.2,1.057,1.057,0,0,0,.184-.708Q37.945,28.073,37.184,28.073ZM36.8,26.616a.071.071,0,0,1-.081-.081v-.695a.071.071,0,0,1,.081-.081h.768a.071.071,0,0,1,.08.081v.695a.071.071,0,0,1-.08.081Z" transform="translate(-19.968 -25.76)" fill="#a1b1b0"/>
      </g>
      <path id="Path_1079" data-name="Path 1079" d="M49.976,16.43,31.812,5.927a6.145,6.145,0,0,0-6.152,0L7.495,16.43a6.162,6.162,0,0,0-3.077,5.335V42.771a6.162,6.162,0,0,0,3.077,5.335l18.165,10.5a6.145,6.145,0,0,0,6.152,0l18.165-10.5a6.162,6.162,0,0,0,3.077-5.335V21.765a6.162,6.162,0,0,0-3.077-5.335Z" transform="translate(-0.882 -1.018)" fill="none" stroke="#c3dbda" stroke-width="2.818"/>
      <path id="Path_1080" data-name="Path 1080" d="M40.878,18.21,27.424,10.442" transform="translate(3.561 0.74)" fill="none" stroke="#fff" stroke-linecap="round" stroke-width="1" opacity="0.7" style="mix-blend-mode: normal;isolation: isolate"/>
      <path id="Path_1081" data-name="Path 1081" d="M23.529,48.26,10.075,40.492" transform="translate(1.308 2.869)" fill="none" stroke="#fff" stroke-linecap="round" stroke-width="1" opacity="0.7" style="mix-blend-mode: normal;isolation: isolate"/>
    </g>
  </g>
</svg>
